  0
SECTION
  2
BLOCKS
  0
ENDSEC
  0
SECTION
  2
ENTITIES
  0
LINE
  8
0
 10
-9.31447
 20
-57.5059
 11
-9.2562
 21
-57.5016
  0
LINE
  8
0
 10
-9.2562
 20
-57.5016
 11
-9.1982
 21
-57.4944
  0
LINE
  8
0
 10
-9.1982
 20
-57.4944
 11
-9.14061
 21
-57.4845
  0
LINE
  8
0
 10
-9.14061
 20
-57.4845
 11
-9.0836
 21
-57.4716
  0
LINE
  8
0
 10
-9.0836
 20
-57.4716
 11
-9.02727
 21
-57.4561
  0
LINE
  8
0
 10
-9.02727
 20
-57.4561
 11
-8.97179
 21
-57.4377
  0
LINE
  8
0
 10
-8.97179
 20
-57.4377
 11
-8.91727
 21
-57.4167
  0
LINE
  8
0
 10
-8.91727
 20
-57.4167
 11
-8.86383
 21
-57.393
  0
LINE
  8
0
 10
-8.86383
 20
-57.393
 11
-8.81163
 21
-57.3667
  0
LINE
  8
0
 10
-8.81163
 20
-57.3667
 11
-8.76079
 21
-57.338
  0
LINE
  8
0
 10
-8.76079
 20
-57.338
 11
-8.71143
 21
-57.3067
  0
LINE
  8
0
 10
-8.71143
 20
-57.3067
 11
-8.66364
 21
-57.273
  0
LINE
  8
0
 10
-8.66364
 20
-57.273
 11
-8.61757
 21
-57.2371
  0
LINE
  8
0
 10
-8.61757
 20
-57.2371
 11
-8.57332
 21
-57.1989
  0
LINE
  8
0
 10
-8.57332
 20
-57.1989
 11
-8.53099
 21
-57.1586
  0
LINE
  8
0
 10
-8.53099
 20
-57.1586
 11
-8.49069
 21
-57.1163
  0
LINE
  8
0
 10
-8.49069
 20
-57.1163
 11
-8.45253
 21
-57.072
  0
LINE
  8
0
 10
-8.45253
 20
-57.072
 11
-8.41658
 21
-57.026
  0
LINE
  8
0
 10
-8.41658
 20
-57.026
 11
-8.38292
 21
-56.9782
  0
LINE
  8
0
 10
-8.38292
 20
-56.9782
 11
-8.35165
 21
-56.9288
  0
LINE
  8
0
 10
-8.35165
 20
-56.9288
 11
-8.32286
 21
-56.878
  0
LINE
  8
0
 10
-8.32286
 20
-56.878
 11
-8.29659
 21
-56.8258
  0
LINE
  8
0
 10
-8.29659
 20
-56.8258
 11
-8.2729
 21
-56.7723
  0
LINE
  8
0
 10
-8.2729
 20
-56.7723
 11
-8.25186
 21
-56.7178
  0
LINE
  8
0
 10
-8.25186
 20
-56.7178
 11
-8.23354
 21
-56.6623
  0
LINE
  8
0
 10
-8.23354
 20
-56.6623
 11
-8.21796
 21
-56.606
  0
LINE
  8
0
 10
-8.21796
 20
-56.606
 11
-8.20515
 21
-56.549
  0
LINE
  8
0
 10
-8.20515
 20
-56.549
 11
-8.19516
 21
-56.4914
  0
LINE
  8
0
 10
-8.19516
 20
-56.4914
 11
-8.188
 21
-56.4334
  0
LINE
  8
0
 10
-8.188
 20
-56.4334
 11
-8.1837
 21
-56.3751
  0
LINE
  8
0
 10
-8.1837
 20
-56.3751
 11
-8.18227
 21
-56.3167
  0
LINE
  8
0
 10
-8.18227
 20
-56.3167
 11
-8.18227
 21
-51.7056
  0
LINE
  8
0
 10
-8.18227
 20
-51.7056
 11
-8.18207
 21
-51.69
  0
LINE
  8
0
 10
-8.18207
 20
-51.69
 11
-8.1812
 21
-51.6543
  0
LINE
  8
0
 10
-8.1812
 20
-51.6543
 11
-8.17975
 21
-51.6249
  0
LINE
  8
0
 10
-8.17975
 20
-51.6249
 11
-8.17758
 21
-51.5955
  0
LINE
  8
0
 10
-8.17758
 20
-51.5955
 11
-8.17479
 21
-51.5672
  0
LINE
  8
0
 10
-8.17479
 20
-51.5672
 11
-8.17113
 21
-51.5375
  0
LINE
  8
0
 10
-8.17113
 20
-51.5375
 11
-8.16693
 21
-51.5092
  0
LINE
  8
0
 10
-8.16693
 20
-51.5092
 11
-8.16179
 21
-51.4795
  0
LINE
  8
0
 10
-8.16179
 20
-51.4795
 11
-8.15628
 21
-51.4519
  0
LINE
  8
0
 10
-8.15628
 20
-51.4519
 11
-8.14977
 21
-51.4229
  0
LINE
  8
0
 10
-8.14977
 20
-51.4229
 11
-8.14267
 21
-51.3945
  0
LINE
  8
0
 10
-8.14267
 20
-51.3945
 11
-8.13483
 21
-51.3662
  0
LINE
  8
0
 10
-8.13483
 20
-51.3662
 11
-8.12651
 21
-51.3388
  0
LINE
  8
0
 10
-8.12651
 20
-51.3388
 11
-8.11728
 21
-51.3108
  0
LINE
  8
0
 10
-8.11728
 20
-51.3108
 11
-8.1073
 21
-51.283
  0
LINE
  8
0
 10
-8.1073
 20
-51.283
 11
-8.09685
 21
-51.2559
  0
LINE
  8
0
 10
-8.09685
 20
-51.2559
 11
-8.08577
 21
-51.2291
  0
LINE
  8
0
 10
-8.08577
 20
-51.2291
 11
-8.07393
 21
-51.2024
  0
LINE
  8
0
 10
-8.07393
 20
-51.2024
 11
-8.06133
 21
-51.1758
  0
LINE
  8
0
 10
-8.06133
 20
-51.1758
 11
-8.04822
 21
-51.1497
  0
LINE
  8
0
 10
-8.04822
 20
-51.1497
 11
-8.03458
 21
-51.1242
  0
LINE
  8
0
 10
-8.03458
 20
-51.1242
 11
-8.02003
 21
-51.0985
  0
LINE
  8
0
 10
-8.02003
 20
-51.0985
 11
-8.0051
 21
-51.0736
  0
LINE
  8
0
 10
-8.0051
 20
-51.0736
 11
-7.98923
 21
-51.0485
  0
LINE
  8
0
 10
-7.98923
 20
-51.0485
 11
-7.9733
 21
-51.0247
  0
LINE
  8
0
 10
-7.9733
 20
-51.0247
 11
-7.95631
 21
-51.0006
  0
LINE
  8
0
 10
-7.95631
 20
-51.0006
 11
-7.93904
 21
-50.9773
  0
LINE
  8
0
 10
-7.93904
 20
-50.9773
 11
-7.92087
 21
-50.954
  0
LINE
  8
0
 10
-7.92087
 20
-50.954
 11
-7.90273
 21
-50.9319
  0
LINE
  8
0
 10
-7.90273
 20
-50.9319
 11
-7.88338
 21
-50.9095
  0
LINE
  8
0
 10
-7.88338
 20
-50.9095
 11
-7.86368
 21
-50.8877
  0
LINE
  8
0
 10
-7.86368
 20
-50.8877
 11
-7.84384
 21
-50.8669
  0
LINE
  8
0
 10
-7.84384
 20
-50.8669
 11
-7.82272
 21
-50.8458
  0
LINE
  8
0
 10
-7.82272
 20
-50.8458
 11
-7.80188
 21
-50.8259
  0
LINE
  8
0
 10
-7.80188
 20
-50.8259
 11
-7.78015
 21
-50.8062
  0
LINE
  8
0
 10
-7.78015
 20
-50.8062
 11
-7.75772
 21
-50.7869
  0
LINE
  8
0
 10
-7.75772
 20
-50.7869
 11
-7.73561
 21
-50.7687
  0
LINE
  8
0
 10
-7.73561
 20
-50.7687
 11
-7.71233
 21
-50.7506
  0
LINE
  8
0
 10
-7.71233
 20
-50.7506
 11
-7.68901
 21
-50.7333
  0
LINE
  8
0
 10
-7.68901
 20
-50.7333
 11
-7.66492
 21
-50.7163
  0
LINE
  8
0
 10
-7.66492
 20
-50.7163
 11
-7.64108
 21
-50.7004
  0
LINE
  8
0
 10
-7.64108
 20
-50.7004
 11
-7.61604
 21
-50.6845
  0
LINE
  8
0
 10
-7.61604
 20
-50.6845
 11
-7.59111
 21
-50.6696
  0
LINE
  8
0
 10
-7.59111
 20
-50.6696
 11
-7.56544
 21
-50.655
  0
LINE
  8
0
 10
-7.56544
 20
-50.655
 11
-7.5399
 21
-50.6414
  0
LINE
  8
0
 10
-7.5399
 20
-50.6414
 11
-7.51385
 21
-50.6283
  0
LINE
  8
0
 10
-7.51385
 20
-50.6283
 11
-7.48723
 21
-50.6157
  0
LINE
  8
0
 10
-7.48723
 20
-50.6157
 11
-7.46046
 21
-50.6038
  0
LINE
  8
0
 10
-7.46046
 20
-50.6038
 11
-7.43373
 21
-50.5928
  0
LINE
  8
0
 10
-7.43373
 20
-50.5928
 11
-7.40665
 21
-50.5823
  0
LINE
  8
0
 10
-7.40665
 20
-50.5823
 11
-7.37881
 21
-50.5723
  0
LINE
  8
0
 10
-7.37881
 20
-50.5723
 11
-7.35083
 21
-50.5631
  0
LINE
  8
0
 10
-7.35083
 20
-50.5631
 11
-7.32341
 21
-50.5548
  0
LINE
  8
0
 10
-7.32341
 20
-50.5548
 11
-7.29506
 21
-50.5469
  0
LINE
  8
0
 10
-7.29506
 20
-50.5469
 11
-7.26671
 21
-50.5398
  0
LINE
  8
0
 10
-7.26671
 20
-50.5398
 11
-7.2377
 21
-50.5333
  0
LINE
  8
0
 10
-7.2377
 20
-50.5333
 11
-7.21007
 21
-50.5278
  0
LINE
  8
0
 10
-7.21007
 20
-50.5278
 11
-7.18045
 21
-50.5227
  0
LINE
  8
0
 10
-7.18045
 20
-50.5227
 11
-7.1521
 21
-50.5185
  0
LINE
  8
0
 10
-7.1521
 20
-50.5185
 11
-7.12239
 21
-50.5148
  0
LINE
  8
0
 10
-7.12239
 20
-50.5148
 11
-7.0941
 21
-50.512
  0
LINE
  8
0
 10
-7.0941
 20
-50.512
 11
-7.06468
 21
-50.5099
  0
LINE
  8
0
 10
-7.06468
 20
-50.5099
 11
-7.03529
 21
-50.5084
  0
LINE
  8
0
 10
-7.03529
 20
-50.5084
 11
-6.99959
 21
-50.5075
  0
LINE
  8
0
 10
-6.99959
 20
-50.5075
 11
-6.98402
 21
-50.5073
  0
LINE
  8
0
 10
-6.98402
 20
-50.5073
 11
6.98402
 21
-50.5073
  0
LINE
  8
0
 10
6.98402
 20
-50.5073
 11
6.99959
 21
-50.5075
  0
LINE
  8
0
 10
6.99959
 20
-50.5075
 11
7.03529
 21
-50.5084
  0
LINE
  8
0
 10
7.03529
 20
-50.5084
 11
7.06468
 21
-50.5099
  0
LINE
  8
0
 10
7.06468
 20
-50.5099
 11
7.0941
 21
-50.512
  0
LINE
  8
0
 10
7.0941
 20
-50.512
 11
7.12239
 21
-50.5148
  0
LINE
  8
0
 10
7.12239
 20
-50.5148
 11
7.1521
 21
-50.5185
  0
LINE
  8
0
 10
7.1521
 20
-50.5185
 11
7.18045
 21
-50.5227
  0
LINE
  8
0
 10
7.18045
 20
-50.5227
 11
7.21007
 21
-50.5278
  0
LINE
  8
0
 10
7.21007
 20
-50.5278
 11
7.2377
 21
-50.5333
  0
LINE
  8
0
 10
7.2377
 20
-50.5333
 11
7.26671
 21
-50.5398
  0
LINE
  8
0
 10
7.26671
 20
-50.5398
 11
7.29506
 21
-50.5469
  0
LINE
  8
0
 10
7.29506
 20
-50.5469
 11
7.32341
 21
-50.5548
  0
LINE
  8
0
 10
7.32341
 20
-50.5548
 11
7.35083
 21
-50.5631
  0
LINE
  8
0
 10
7.35083
 20
-50.5631
 11
7.37881
 21
-50.5723
  0
LINE
  8
0
 10
7.37881
 20
-50.5723
 11
7.40665
 21
-50.5823
  0
LINE
  8
0
 10
7.40665
 20
-50.5823
 11
7.43373
 21
-50.5928
  0
LINE
  8
0
 10
7.43373
 20
-50.5928
 11
7.46046
 21
-50.6038
  0
LINE
  8
0
 10
7.46046
 20
-50.6038
 11
7.48723
 21
-50.6157
  0
LINE
  8
0
 10
7.48723
 20
-50.6157
 11
7.51385
 21
-50.6283
  0
LINE
  8
0
 10
7.51385
 20
-50.6283
 11
7.5399
 21
-50.6414
  0
LINE
  8
0
 10
7.5399
 20
-50.6414
 11
7.56544
 21
-50.655
  0
LINE
  8
0
 10
7.56544
 20
-50.655
 11
7.59111
 21
-50.6696
  0
LINE
  8
0
 10
7.59111
 20
-50.6696
 11
7.61604
 21
-50.6845
  0
LINE
  8
0
 10
7.61604
 20
-50.6845
 11
7.64108
 21
-50.7004
  0
LINE
  8
0
 10
7.64108
 20
-50.7004
 11
7.66492
 21
-50.7163
  0
LINE
  8
0
 10
7.66492
 20
-50.7163
 11
7.68901
 21
-50.7333
  0
LINE
  8
0
 10
7.68901
 20
-50.7333
 11
7.71233
 21
-50.7506
  0
LINE
  8
0
 10
7.71233
 20
-50.7506
 11
7.73561
 21
-50.7687
  0
LINE
  8
0
 10
7.73561
 20
-50.7687
 11
7.75772
 21
-50.7869
  0
LINE
  8
0
 10
7.75772
 20
-50.7869
 11
7.78015
 21
-50.8062
  0
LINE
  8
0
 10
7.78015
 20
-50.8062
 11
7.80188
 21
-50.8259
  0
LINE
  8
0
 10
7.80188
 20
-50.8259
 11
7.82272
 21
-50.8458
  0
LINE
  8
0
 10
7.82272
 20
-50.8458
 11
7.84384
 21
-50.8669
  0
LINE
  8
0
 10
7.84384
 20
-50.8669
 11
7.86368
 21
-50.8877
  0
LINE
  8
0
 10
7.86368
 20
-50.8877
 11
7.88338
 21
-50.9095
  0
LINE
  8
0
 10
7.88338
 20
-50.9095
 11
7.90273
 21
-50.9319
  0
LINE
  8
0
 10
7.90273
 20
-50.9319
 11
7.92087
 21
-50.954
  0
LINE
  8
0
 10
7.92087
 20
-50.954
 11
7.93904
 21
-50.9773
  0
LINE
  8
0
 10
7.93904
 20
-50.9773
 11
7.95631
 21
-51.0006
  0
LINE
  8
0
 10
7.95631
 20
-51.0006
 11
7.9733
 21
-51.0247
  0
LINE
  8
0
 10
7.9733
 20
-51.0247
 11
7.98923
 21
-51.0485
  0
LINE
  8
0
 10
7.98923
 20
-51.0485
 11
8.0051
 21
-51.0736
  0
LINE
  8
0
 10
8.0051
 20
-51.0736
 11
8.02003
 21
-51.0985
  0
LINE
  8
0
 10
8.02003
 20
-51.0985
 11
8.03458
 21
-51.1242
  0
LINE
  8
0
 10
8.03458
 20
-51.1242
 11
8.04822
 21
-51.1497
  0
LINE
  8
0
 10
8.04822
 20
-51.1497
 11
8.06133
 21
-51.1758
  0
LINE
  8
0
 10
8.06133
 20
-51.1758
 11
8.07393
 21
-51.2024
  0
LINE
  8
0
 10
8.07393
 20
-51.2024
 11
8.08577
 21
-51.2291
  0
LINE
  8
0
 10
8.08577
 20
-51.2291
 11
8.09685
 21
-51.2559
  0
LINE
  8
0
 10
8.09685
 20
-51.2559
 11
8.1073
 21
-51.283
  0
LINE
  8
0
 10
8.1073
 20
-51.283
 11
8.11728
 21
-51.3108
  0
LINE
  8
0
 10
8.11728
 20
-51.3108
 11
8.12651
 21
-51.3388
  0
LINE
  8
0
 10
8.12651
 20
-51.3388
 11
8.13483
 21
-51.3662
  0
LINE
  8
0
 10
8.13483
 20
-51.3662
 11
8.14267
 21
-51.3945
  0
LINE
  8
0
 10
8.14267
 20
-51.3945
 11
8.14977
 21
-51.4229
  0
LINE
  8
0
 10
8.14977
 20
-51.4229
 11
8.15628
 21
-51.4519
  0
LINE
  8
0
 10
8.15628
 20
-51.4519
 11
8.16179
 21
-51.4795
  0
LINE
  8
0
 10
8.16179
 20
-51.4795
 11
8.16693
 21
-51.5092
  0
LINE
  8
0
 10
8.16693
 20
-51.5092
 11
8.17113
 21
-51.5375
  0
LINE
  8
0
 10
8.17113
 20
-51.5375
 11
8.17479
 21
-51.5672
  0
LINE
  8
0
 10
8.17479
 20
-51.5672
 11
8.17758
 21
-51.5955
  0
LINE
  8
0
 10
8.17758
 20
-51.5955
 11
8.17975
 21
-51.6249
  0
LINE
  8
0
 10
8.17975
 20
-51.6249
 11
8.1812
 21
-51.6543
  0
LINE
  8
0
 10
8.1812
 20
-51.6543
 11
8.18207
 21
-51.69
  0
LINE
  8
0
 10
8.18207
 20
-51.69
 11
8.18227
 21
-51.7056
  0
LINE
  8
0
 10
8.18227
 20
-51.7056
 11
8.18227
 21
-56.3167
  0
LINE
  8
0
 10
8.18227
 20
-56.3167
 11
8.1837
 21
-56.3751
  0
LINE
  8
0
 10
8.1837
 20
-56.3751
 11
8.188
 21
-56.4334
  0
LINE
  8
0
 10
8.188
 20
-56.4334
 11
8.19516
 21
-56.4914
  0
LINE
  8
0
 10
8.19516
 20
-56.4914
 11
8.20515
 21
-56.549
  0
LINE
  8
0
 10
8.20515
 20
-56.549
 11
8.21796
 21
-56.606
  0
LINE
  8
0
 10
8.21796
 20
-56.606
 11
8.23354
 21
-56.6623
  0
LINE
  8
0
 10
8.23354
 20
-56.6623
 11
8.25186
 21
-56.7178
  0
LINE
  8
0
 10
8.25186
 20
-56.7178
 11
8.2729
 21
-56.7723
  0
LINE
  8
0
 10
8.2729
 20
-56.7723
 11
8.29659
 21
-56.8258
  0
LINE
  8
0
 10
8.29659
 20
-56.8258
 11
8.32286
 21
-56.878
  0
LINE
  8
0
 10
8.32286
 20
-56.878
 11
8.35165
 21
-56.9288
  0
LINE
  8
0
 10
8.35165
 20
-56.9288
 11
8.38292
 21
-56.9782
  0
LINE
  8
0
 10
8.38292
 20
-56.9782
 11
8.41658
 21
-57.026
  0
LINE
  8
0
 10
8.41658
 20
-57.026
 11
8.45253
 21
-57.072
  0
LINE
  8
0
 10
8.45253
 20
-57.072
 11
8.49069
 21
-57.1163
  0
LINE
  8
0
 10
8.49069
 20
-57.1163
 11
8.53099
 21
-57.1586
  0
LINE
  8
0
 10
8.53099
 20
-57.1586
 11
8.57332
 21
-57.1989
  0
LINE
  8
0
 10
8.57332
 20
-57.1989
 11
8.61757
 21
-57.2371
  0
LINE
  8
0
 10
8.61757
 20
-57.2371
 11
8.66364
 21
-57.273
  0
LINE
  8
0
 10
8.66364
 20
-57.273
 11
8.71143
 21
-57.3067
  0
LINE
  8
0
 10
8.71143
 20
-57.3067
 11
8.76079
 21
-57.338
  0
LINE
  8
0
 10
8.76079
 20
-57.338
 11
8.81163
 21
-57.3667
  0
LINE
  8
0
 10
8.81163
 20
-57.3667
 11
8.86383
 21
-57.393
  0
LINE
  8
0
 10
8.86383
 20
-57.393
 11
8.91727
 21
-57.4167
  0
LINE
  8
0
 10
8.91727
 20
-57.4167
 11
8.97179
 21
-57.4377
  0
LINE
  8
0
 10
8.97179
 20
-57.4377
 11
9.02727
 21
-57.4561
  0
LINE
  8
0
 10
9.02727
 20
-57.4561
 11
9.0836
 21
-57.4716
  0
LINE
  8
0
 10
9.0836
 20
-57.4716
 11
9.14061
 21
-57.4845
  0
LINE
  8
0
 10
9.14061
 20
-57.4845
 11
9.1982
 21
-57.4944
  0
LINE
  8
0
 10
9.1982
 20
-57.4944
 11
9.2562
 21
-57.5016
  0
LINE
  8
0
 10
9.2562
 20
-57.5016
 11
9.31447
 21
-57.5059
  0
LINE
  8
0
 10
9.31447
 20
-57.5059
 11
9.37289
 21
-57.5073
  0
LINE
  8
0
 10
9.37289
 20
-57.5073
 11
45.9916
 21
-57.5073
  0
LINE
  8
0
 10
45.9916
 20
-57.5073
 11
46.0501
 21
-57.5059
  0
LINE
  8
0
 10
46.0501
 20
-57.5059
 11
46.1083
 21
-57.5016
  0
LINE
  8
0
 10
46.1083
 20
-57.5016
 11
46.1663
 21
-57.4944
  0
LINE
  8
0
 10
46.1663
 20
-57.4944
 11
46.2239
 21
-57.4845
  0
LINE
  8
0
 10
46.2239
 20
-57.4845
 11
46.2809
 21
-57.4716
  0
LINE
  8
0
 10
46.2809
 20
-57.4716
 11
46.3373
 21
-57.4561
  0
LINE
  8
0
 10
46.3373
 20
-57.4561
 11
46.3927
 21
-57.4377
  0
LINE
  8
0
 10
46.3927
 20
-57.4377
 11
46.4473
 21
-57.4167
  0
LINE
  8
0
 10
46.4473
 20
-57.4167
 11
46.5007
 21
-57.393
  0
LINE
  8
0
 10
46.5007
 20
-57.393
 11
46.5529
 21
-57.3667
  0
LINE
  8
0
 10
46.5529
 20
-57.3667
 11
46.6037
 21
-57.338
  0
LINE
  8
0
 10
46.6037
 20
-57.338
 11
46.6531
 21
-57.3067
  0
LINE
  8
0
 10
46.6531
 20
-57.3067
 11
46.7009
 21
-57.273
  0
LINE
  8
0
 10
46.7009
 20
-57.273
 11
46.747
 21
-57.2371
  0
LINE
  8
0
 10
46.747
 20
-57.2371
 11
46.7912
 21
-57.1989
  0
LINE
  8
0
 10
46.7912
 20
-57.1989
 11
46.8335
 21
-57.1586
  0
LINE
  8
0
 10
46.8335
 20
-57.1586
 11
46.8738
 21
-57.1163
  0
LINE
  8
0
 10
46.8738
 20
-57.1163
 11
46.912
 21
-57.072
  0
LINE
  8
0
 10
46.912
 20
-57.072
 11
46.948
 21
-57.026
  0
LINE
  8
0
 10
46.948
 20
-57.026
 11
46.9816
 21
-56.9782
  0
LINE
  8
0
 10
46.9816
 20
-56.9782
 11
47.0129
 21
-56.9288
  0
LINE
  8
0
 10
47.0129
 20
-56.9288
 11
47.0417
 21
-56.878
  0
LINE
  8
0
 10
47.0417
 20
-56.878
 11
47.0679
 21
-56.8258
  0
LINE
  8
0
 10
47.0679
 20
-56.8258
 11
47.0916
 21
-56.7723
  0
LINE
  8
0
 10
47.0916
 20
-56.7723
 11
47.1127
 21
-56.7178
  0
LINE
  8
0
 10
47.1127
 20
-56.7178
 11
47.131
 21
-56.6623
  0
LINE
  8
0
 10
47.131
 20
-56.6623
 11
47.1466
 21
-56.606
  0
LINE
  8
0
 10
47.1466
 20
-56.606
 11
47.1594
 21
-56.549
  0
LINE
  8
0
 10
47.1594
 20
-56.549
 11
47.1694
 21
-56.4914
  0
LINE
  8
0
 10
47.1694
 20
-56.4914
 11
47.1765
 21
-56.4334
  0
LINE
  8
0
 10
47.1765
 20
-56.4334
 11
47.1808
 21
-56.3751
  0
LINE
  8
0
 10
47.1808
 20
-56.3751
 11
47.1823
 21
-56.3167
  0
LINE
  8
0
 10
47.1823
 20
-56.3167
 11
47.1823
 21
-51.7056
  0
LINE
  8
0
 10
47.1823
 20
-51.7056
 11
47.1825
 21
-51.69
  0
LINE
  8
0
 10
47.1825
 20
-51.69
 11
47.1833
 21
-51.6543
  0
LINE
  8
0
 10
47.1833
 20
-51.6543
 11
47.1848
 21
-51.6249
  0
LINE
  8
0
 10
47.1848
 20
-51.6249
 11
47.187
 21
-51.5955
  0
LINE
  8
0
 10
47.187
 20
-51.5955
 11
47.1897
 21
-51.5672
  0
LINE
  8
0
 10
47.1897
 20
-51.5672
 11
47.1934
 21
-51.5375
  0
LINE
  8
0
 10
47.1934
 20
-51.5375
 11
47.1976
 21
-51.5092
  0
LINE
  8
0
 10
47.1976
 20
-51.5092
 11
47.2027
 21
-51.4795
  0
LINE
  8
0
 10
47.2027
 20
-51.4795
 11
47.2083
 21
-51.4519
  0
LINE
  8
0
 10
47.2083
 20
-51.4519
 11
47.2148
 21
-51.4229
  0
LINE
  8
0
 10
47.2148
 20
-51.4229
 11
47.2219
 21
-51.3945
  0
LINE
  8
0
 10
47.2219
 20
-51.3945
 11
47.2297
 21
-51.3662
  0
LINE
  8
0
 10
47.2297
 20
-51.3662
 11
47.238
 21
-51.3388
  0
LINE
  8
0
 10
47.238
 20
-51.3388
 11
47.2473
 21
-51.3108
  0
LINE
  8
0
 10
47.2473
 20
-51.3108
 11
47.2572
 21
-51.283
  0
LINE
  8
0
 10
47.2572
 20
-51.283
 11
47.2677
 21
-51.2559
  0
LINE
  8
0
 10
47.2677
 20
-51.2559
 11
47.2788
 21
-51.2291
  0
LINE
  8
0
 10
47.2788
 20
-51.2291
 11
47.2906
 21
-51.2024
  0
LINE
  8
0
 10
47.2906
 20
-51.2024
 11
47.3032
 21
-51.1758
  0
LINE
  8
0
 10
47.3032
 20
-51.1758
 11
47.3163
 21
-51.1497
  0
LINE
  8
0
 10
47.3163
 20
-51.1497
 11
47.33
 21
-51.1242
  0
LINE
  8
0
 10
47.33
 20
-51.1242
 11
47.3445
 21
-51.0985
  0
LINE
  8
0
 10
47.3445
 20
-51.0985
 11
47.3594
 21
-51.0736
  0
LINE
  8
0
 10
47.3594
 20
-51.0736
 11
47.3753
 21
-51.0485
  0
LINE
  8
0
 10
47.3753
 20
-51.0485
 11
47.3912
 21
-51.0247
  0
LINE
  8
0
 10
47.3912
 20
-51.0247
 11
47.4082
 21
-51.0006
  0
LINE
  8
0
 10
47.4082
 20
-51.0006
 11
47.4255
 21
-50.9773
  0
LINE
  8
0
 10
47.4255
 20
-50.9773
 11
47.4437
 21
-50.954
  0
LINE
  8
0
 10
47.4437
 20
-50.954
 11
47.4618
 21
-50.9319
  0
LINE
  8
0
 10
47.4618
 20
-50.9319
 11
47.4812
 21
-50.9095
  0
LINE
  8
0
 10
47.4812
 20
-50.9095
 11
47.5009
 21
-50.8877
  0
LINE
  8
0
 10
47.5009
 20
-50.8877
 11
47.5207
 21
-50.8669
  0
LINE
  8
0
 10
47.5207
 20
-50.8669
 11
47.5418
 21
-50.8458
  0
LINE
  8
0
 10
47.5418
 20
-50.8458
 11
47.5627
 21
-50.8259
  0
LINE
  8
0
 10
47.5627
 20
-50.8259
 11
47.5844
 21
-50.8062
  0
LINE
  8
0
 10
47.5844
 20
-50.8062
 11
47.6068
 21
-50.7869
  0
LINE
  8
0
 10
47.6068
 20
-50.7869
 11
47.6289
 21
-50.7687
  0
LINE
  8
0
 10
47.6289
 20
-50.7687
 11
47.6522
 21
-50.7506
  0
LINE
  8
0
 10
47.6522
 20
-50.7506
 11
47.6755
 21
-50.7333
  0
LINE
  8
0
 10
47.6755
 20
-50.7333
 11
47.6996
 21
-50.7163
  0
LINE
  8
0
 10
47.6996
 20
-50.7163
 11
47.7234
 21
-50.7004
  0
LINE
  8
0
 10
47.7234
 20
-50.7004
 11
47.7485
 21
-50.6845
  0
LINE
  8
0
 10
47.7485
 20
-50.6845
 11
47.7734
 21
-50.6696
  0
LINE
  8
0
 10
47.7734
 20
-50.6696
 11
47.7991
 21
-50.655
  0
LINE
  8
0
 10
47.7991
 20
-50.655
 11
47.8246
 21
-50.6414
  0
LINE
  8
0
 10
47.8246
 20
-50.6414
 11
47.8507
 21
-50.6283
  0
LINE
  8
0
 10
47.8507
 20
-50.6283
 11
47.8773
 21
-50.6157
  0
LINE
  8
0
 10
47.8773
 20
-50.6157
 11
47.9041
 21
-50.6038
  0
LINE
  8
0
 10
47.9041
 20
-50.6038
 11
47.9308
 21
-50.5928
  0
LINE
  8
0
 10
47.9308
 20
-50.5928
 11
47.9579
 21
-50.5823
  0
LINE
  8
0
 10
47.9579
 20
-50.5823
 11
47.9857
 21
-50.5723
  0
LINE
  8
0
 10
47.9857
 20
-50.5723
 11
48.0137
 21
-50.5631
  0
LINE
  8
0
 10
48.0137
 20
-50.5631
 11
48.0411
 21
-50.5548
  0
LINE
  8
0
 10
48.0411
 20
-50.5548
 11
48.0695
 21
-50.5469
  0
LINE
  8
0
 10
48.0695
 20
-50.5469
 11
48.0978
 21
-50.5398
  0
LINE
  8
0
 10
48.0978
 20
-50.5398
 11
48.1268
 21
-50.5333
  0
LINE
  8
0
 10
48.1268
 20
-50.5333
 11
48.1545
 21
-50.5278
  0
LINE
  8
0
 10
48.1545
 20
-50.5278
 11
48.1841
 21
-50.5227
  0
LINE
  8
0
 10
48.1841
 20
-50.5227
 11
48.2124
 21
-50.5185
  0
LINE
  8
0
 10
48.2124
 20
-50.5185
 11
48.2421
 21
-50.5148
  0
LINE
  8
0
 10
48.2421
 20
-50.5148
 11
48.2704
 21
-50.512
  0
LINE
  8
0
 10
48.2704
 20
-50.512
 11
48.2999
 21
-50.5099
  0
LINE
  8
0
 10
48.2999
 20
-50.5099
 11
48.3292
 21
-50.5084
  0
LINE
  8
0
 10
48.3292
 20
-50.5084
 11
48.3649
 21
-50.5075
  0
LINE
  8
0
 10
48.3649
 20
-50.5075
 11
48.3805
 21
-50.5073
  0
LINE
  8
0
 10
48.3805
 20
-50.5073
 11
55.4241
 21
-50.5073
  0
LINE
  8
0
 10
55.4241
 20
-50.5073
 11
55.4826
 21
-50.5059
  0
LINE
  8
0
 10
55.4826
 20
-50.5059
 11
55.5408
 21
-50.5016
  0
LINE
  8
0
 10
55.5408
 20
-50.5016
 11
55.5988
 21
-50.4944
  0
LINE
  8
0
 10
55.5988
 20
-50.4944
 11
55.6564
 21
-50.4845
  0
LINE
  8
0
 10
55.6564
 20
-50.4845
 11
55.7134
 21
-50.4716
  0
LINE
  8
0
 10
55.7134
 20
-50.4716
 11
55.7698
 21
-50.4561
  0
LINE
  8
0
 10
55.7698
 20
-50.4561
 11
55.8252
 21
-50.4377
  0
LINE
  8
0
 10
55.8252
 20
-50.4377
 11
55.8663
 21
-50.4222
  0
LINE
  8
0
 10
55.8663
 20
-50.4222
 11
74.1486
 21
-43.1089
  0
LINE
  8
0
 10
74.1486
 20
-43.1089
 11
74.1631
 21
-43.1033
  0
LINE
  8
0
 10
74.1631
 20
-43.1033
 11
74.1969
 21
-43.0907
  0
LINE
  8
0
 10
74.1969
 20
-43.0907
 11
74.2245
 21
-43.0812
  0
LINE
  8
0
 10
74.2245
 20
-43.0812
 11
74.2522
 21
-43.0724
  0
LINE
  8
0
 10
74.2522
 20
-43.0724
 11
74.2807
 21
-43.0642
  0
LINE
  8
0
 10
74.2807
 20
-43.0642
 11
74.3084
 21
-43.0569
  0
LINE
  8
0
 10
74.3084
 20
-43.0569
 11
74.3374
 21
-43.05
  0
LINE
  8
0
 10
74.3374
 20
-43.05
 11
74.3657
 21
-43.044
  0
LINE
  8
0
 10
74.3657
 20
-43.044
 11
74.3944
 21
-43.0387
  0
LINE
  8
0
 10
74.3944
 20
-43.0387
 11
74.4232
 21
-43.034
  0
LINE
  8
0
 10
74.4232
 20
-43.034
 11
74.4522
 21
-43.0301
  0
LINE
  8
0
 10
74.4522
 20
-43.0301
 11
74.4816
 21
-43.0268
  0
LINE
  8
0
 10
74.4816
 20
-43.0268
 11
74.5102
 21
-43.0244
  0
LINE
  8
0
 10
74.5102
 20
-43.0244
 11
74.5393
 21
-43.0226
  0
LINE
  8
0
 10
74.5393
 20
-43.0226
 11
74.5688
 21
-43.0215
  0
LINE
  8
0
 10
74.5688
 20
-43.0215
 11
74.5979
 21
-43.0211
  0
LINE
  8
0
 10
74.5979
 20
-43.0211
 11
74.6271
 21
-43.0215
  0
LINE
  8
0
 10
74.6271
 20
-43.0215
 11
74.6564
 21
-43.0225
  0
LINE
  8
0
 10
74.6564
 20
-43.0225
 11
74.6855
 21
-43.0243
  0
LINE
  8
0
 10
74.6855
 20
-43.0243
 11
74.7143
 21
-43.0268
  0
LINE
  8
0
 10
74.7143
 20
-43.0268
 11
74.7439
 21
-43.0301
  0
LINE
  8
0
 10
74.7439
 20
-43.0301
 11
74.7727
 21
-43.034
  0
LINE
  8
0
 10
74.7727
 20
-43.034
 11
74.8014
 21
-43.0386
  0
LINE
  8
0
 10
74.8014
 20
-43.0386
 11
74.8302
 21
-43.044
  0
LINE
  8
0
 10
74.8302
 20
-43.044
 11
74.8586
 21
-43.05
  0
LINE
  8
0
 10
74.8586
 20
-43.05
 11
74.8871
 21
-43.0567
  0
LINE
  8
0
 10
74.8871
 20
-43.0567
 11
74.9153
 21
-43.0641
  0
LINE
  8
0
 10
74.9153
 20
-43.0641
 11
74.9436
 21
-43.0724
  0
LINE
  8
0
 10
74.9436
 20
-43.0724
 11
74.9712
 21
-43.0811
  0
LINE
  8
0
 10
74.9712
 20
-43.0811
 11
74.9991
 21
-43.0907
  0
LINE
  8
0
 10
74.9991
 20
-43.0907
 11
75.0263
 21
-43.1008
  0
LINE
  8
0
 10
75.0263
 20
-43.1008
 11
75.0535
 21
-43.1117
  0
LINE
  8
0
 10
75.0535
 20
-43.1117
 11
75.0803
 21
-43.1232
  0
LINE
  8
0
 10
75.0803
 20
-43.1232
 11
75.1068
 21
-43.1353
  0
LINE
  8
0
 10
75.1068
 20
-43.1353
 11
75.1332
 21
-43.1482
  0
LINE
  8
0
 10
75.1332
 20
-43.1482
 11
75.1592
 21
-43.1617
  0
LINE
  8
0
 10
75.1592
 20
-43.1617
 11
75.1845
 21
-43.1756
  0
LINE
  8
0
 10
75.1845
 20
-43.1756
 11
75.2101
 21
-43.1905
  0
LINE
  8
0
 10
75.2101
 20
-43.1905
 11
75.2347
 21
-43.2057
  0
LINE
  8
0
 10
75.2347
 20
-43.2057
 11
75.2595
 21
-43.2218
  0
LINE
  8
0
 10
75.2595
 20
-43.2218
 11
75.2831
 21
-43.238
  0
LINE
  8
0
 10
75.2831
 20
-43.238
 11
75.307
 21
-43.2552
  0
LINE
  8
0
 10
75.307
 20
-43.2552
 11
75.3304
 21
-43.273
  0
LINE
  8
0
 10
75.3304
 20
-43.273
 11
75.3529
 21
-43.2911
  0
LINE
  8
0
 10
75.3529
 20
-43.2911
 11
75.3756
 21
-43.3102
  0
LINE
  8
0
 10
75.3756
 20
-43.3102
 11
75.3972
 21
-43.3293
  0
LINE
  8
0
 10
75.3972
 20
-43.3293
 11
75.4189
 21
-43.3494
  0
LINE
  8
0
 10
75.4189
 20
-43.3494
 11
75.4396
 21
-43.3696
  0
LINE
  8
0
 10
75.4396
 20
-43.3696
 11
75.4603
 21
-43.3908
  0
LINE
  8
0
 10
75.4603
 20
-43.3908
 11
75.4801
 21
-43.4121
  0
LINE
  8
0
 10
75.4801
 20
-43.4121
 11
75.499
 21
-43.4335
  0
LINE
  8
0
 10
75.499
 20
-43.4335
 11
75.5183
 21
-43.4564
  0
LINE
  8
0
 10
75.5183
 20
-43.4564
 11
75.5363
 21
-43.4789
  0
LINE
  8
0
 10
75.5363
 20
-43.4789
 11
75.5541
 21
-43.5023
  0
LINE
  8
0
 10
75.5541
 20
-43.5023
 11
75.5712
 21
-43.526
  0
LINE
  8
0
 10
75.5712
 20
-43.526
 11
75.5876
 21
-43.5499
  0
LINE
  8
0
 10
75.5876
 20
-43.5499
 11
75.6037
 21
-43.5746
  0
LINE
  8
0
 10
75.6037
 20
-43.5746
 11
75.6189
 21
-43.5993
  0
LINE
  8
0
 10
75.6189
 20
-43.5993
 11
75.6337
 21
-43.6247
  0
LINE
  8
0
 10
75.6337
 20
-43.6247
 11
75.6479
 21
-43.6505
  0
LINE
  8
0
 10
75.6479
 20
-43.6505
 11
75.6611
 21
-43.6759
  0
LINE
  8
0
 10
75.6611
 20
-43.6759
 11
75.674
 21
-43.7024
  0
LINE
  8
0
 10
75.674
 20
-43.7024
 11
75.6863
 21
-43.7291
  0
LINE
  8
0
 10
75.6863
 20
-43.7291
 11
75.7005
 21
-43.7623
  0
LINE
  8
0
 10
75.7005
 20
-43.7623
 11
75.7063
 21
-43.7761
  0
LINE
  8
0
 10
75.7063
 20
-43.7761
 11
77.4189
 21
-48.0576
  0
LINE
  8
0
 10
77.4189
 20
-48.0576
 11
77.442
 21
-48.1113
  0
LINE
  8
0
 10
77.442
 20
-48.1113
 11
77.4676
 21
-48.1639
  0
LINE
  8
0
 10
77.4676
 20
-48.1639
 11
77.4958
 21
-48.2151
  0
LINE
  8
0
 10
77.4958
 20
-48.2151
 11
77.5264
 21
-48.2648
  0
LINE
  8
0
 10
77.5264
 20
-48.2648
 11
77.5595
 21
-48.313
  0
LINE
  8
0
 10
77.5595
 20
-48.313
 11
77.5949
 21
-48.3595
  0
LINE
  8
0
 10
77.5949
 20
-48.3595
 11
77.6325
 21
-48.4042
  0
LINE
  8
0
 10
77.6325
 20
-48.4042
 11
77.6723
 21
-48.447
  0
LINE
  8
0
 10
77.6723
 20
-48.447
 11
77.7141
 21
-48.4878
  0
LINE
  8
0
 10
77.7141
 20
-48.4878
 11
77.7579
 21
-48.5265
  0
LINE
  8
0
 10
77.7579
 20
-48.5265
 11
77.8036
 21
-48.563
  0
LINE
  8
0
 10
77.8036
 20
-48.563
 11
77.8509
 21
-48.5973
  0
LINE
  8
0
 10
77.8509
 20
-48.5973
 11
77.8999
 21
-48.6291
  0
LINE
  8
0
 10
77.8999
 20
-48.6291
 11
77.9504
 21
-48.6586
  0
LINE
  8
0
 10
77.9504
 20
-48.6586
 11
78.0023
 21
-48.6855
  0
LINE
  8
0
 10
78.0023
 20
-48.6855
 11
78.0554
 21
-48.7098
  0
LINE
  8
0
 10
78.0554
 20
-48.7098
 11
78.1097
 21
-48.7315
  0
LINE
  8
0
 10
78.1097
 20
-48.7315
 11
78.1649
 21
-48.7505
  0
LINE
  8
0
 10
78.1649
 20
-48.7505
 11
78.2211
 21
-48.7668
  0
LINE
  8
0
 10
78.2211
 20
-48.7668
 11
78.2779
 21
-48.7803
  0
LINE
  8
0
 10
78.2779
 20
-48.7803
 11
78.3354
 21
-48.791
  0
LINE
  8
0
 10
78.3354
 20
-48.791
 11
78.3933
 21
-48.7988
  0
LINE
  8
0
 10
78.3933
 20
-48.7988
 11
78.4515
 21
-48.8038
  0
LINE
  8
0
 10
78.4515
 20
-48.8038
 11
78.5099
 21
-48.806
  0
LINE
  8
0
 10
78.5099
 20
-48.806
 11
78.5683
 21
-48.8053
  0
LINE
  8
0
 10
78.5683
 20
-48.8053
 11
78.6267
 21
-48.8017
  0
LINE
  8
0
 10
78.6267
 20
-48.8017
 11
78.6848
 21
-48.7952
  0
LINE
  8
0
 10
78.6848
 20
-48.7952
 11
78.7424
 21
-48.7859
  0
LINE
  8
0
 10
78.7424
 20
-48.7859
 11
78.7996
 21
-48.7738
  0
LINE
  8
0
 10
78.7996
 20
-48.7738
 11
78.8561
 21
-48.7589
  0
LINE
  8
0
 10
78.8561
 20
-48.7589
 11
78.9118
 21
-48.7413
  0
LINE
  8
0
 10
78.9118
 20
-48.7413
 11
78.9666
 21
-48.7209
  0
LINE
  8
0
 10
78.9666
 20
-48.7209
 11
112.966
 21
-35.1205
  0
LINE
  8
0
 10
112.966
 20
-35.1205
 11
113.02
 21
-35.0974
  0
LINE
  8
0
 10
113.02
 20
-35.0974
 11
113.072
 21
-35.0718
  0
LINE
  8
0
 10
113.072
 20
-35.0718
 11
113.123
 21
-35.0436
  0
LINE
  8
0
 10
113.123
 20
-35.0436
 11
113.173
 21
-35.013
  0
LINE
  8
0
 10
113.173
 20
-35.013
 11
113.221
 21
-34.9799
  0
LINE
  8
0
 10
113.221
 20
-34.9799
 11
113.268
 21
-34.9445
  0
LINE
  8
0
 10
113.268
 20
-34.9445
 11
113.313
 21
-34.9069
  0
LINE
  8
0
 10
113.313
 20
-34.9069
 11
113.355
 21
-34.8671
  0
LINE
  8
0
 10
113.355
 20
-34.8671
 11
113.396
 21
-34.8253
  0
LINE
  8
0
 10
113.396
 20
-34.8253
 11
113.435
 21
-34.7815
  0
LINE
  8
0
 10
113.435
 20
-34.7815
 11
113.471
 21
-34.7358
  0
LINE
  8
0
 10
113.471
 20
-34.7358
 11
113.506
 21
-34.6885
  0
LINE
  8
0
 10
113.506
 20
-34.6885
 11
113.538
 21
-34.6395
  0
LINE
  8
0
 10
113.538
 20
-34.6395
 11
113.567
 21
-34.589
  0
LINE
  8
0
 10
113.567
 20
-34.589
 11
113.594
 21
-34.5371
  0
LINE
  8
0
 10
113.594
 20
-34.5371
 11
113.618
 21
-34.484
  0
LINE
  8
0
 10
113.618
 20
-34.484
 11
113.64
 21
-34.4297
  0
LINE
  8
0
 10
113.64
 20
-34.4297
 11
113.659
 21
-34.3745
  0
LINE
  8
0
 10
113.659
 20
-34.3745
 11
113.675
 21
-34.3183
  0
LINE
  8
0
 10
113.675
 20
-34.3183
 11
113.689
 21
-34.2615
  0
LINE
  8
0
 10
113.689
 20
-34.2615
 11
113.699
 21
-34.204
  0
LINE
  8
0
 10
113.699
 20
-34.204
 11
113.707
 21
-34.1461
  0
LINE
  8
0
 10
113.707
 20
-34.1461
 11
113.712
 21
-34.0879
  0
LINE
  8
0
 10
113.712
 20
-34.0879
 11
113.714
 21
-34.0295
  0
LINE
  8
0
 10
113.714
 20
-34.0295
 11
113.714
 21
-33.9711
  0
LINE
  8
0
 10
113.714
 20
-33.9711
 11
113.71
 21
-33.9127
  0
LINE
  8
0
 10
113.71
 20
-33.9127
 11
113.704
 21
-33.8546
  0
LINE
  8
0
 10
113.704
 20
-33.8546
 11
113.694
 21
-33.797
  0
LINE
  8
0
 10
113.694
 20
-33.797
 11
113.682
 21
-33.7398
  0
LINE
  8
0
 10
113.682
 20
-33.7398
 11
113.667
 21
-33.6833
  0
LINE
  8
0
 10
113.667
 20
-33.6833
 11
113.65
 21
-33.6276
  0
LINE
  8
0
 10
113.65
 20
-33.6276
 11
113.629
 21
-33.5728
  0
LINE
  8
0
 10
113.629
 20
-33.5728
 11
111.917
 21
-29.2917
  0
LINE
  8
0
 10
111.917
 20
-29.2917
 11
111.911
 21
-29.2771
  0
LINE
  8
0
 10
111.911
 20
-29.2771
 11
111.899
 21
-29.2434
  0
LINE
  8
0
 10
111.899
 20
-29.2434
 11
111.889
 21
-29.2157
  0
LINE
  8
0
 10
111.889
 20
-29.2157
 11
111.88
 21
-29.1876
  0
LINE
  8
0
 10
111.88
 20
-29.1876
 11
111.872
 21
-29.1601
  0
LINE
  8
0
 10
111.872
 20
-29.1601
 11
111.865
 21
-29.1313
  0
LINE
  8
0
 10
111.865
 20
-29.1313
 11
111.858
 21
-29.1033
  0
LINE
  8
0
 10
111.858
 20
-29.1033
 11
111.852
 21
-29.0745
  0
LINE
  8
0
 10
111.852
 20
-29.0745
 11
111.846
 21
-29.0458
  0
LINE
  8
0
 10
111.846
 20
-29.0458
 11
111.842
 21
-29.017
  0
LINE
  8
0
 10
111.842
 20
-29.017
 11
111.838
 21
-28.988
  0
LINE
  8
0
 10
111.838
 20
-28.988
 11
111.835
 21
-28.9586
  0
LINE
  8
0
 10
111.835
 20
-28.9586
 11
111.832
 21
-28.93
  0
LINE
  8
0
 10
111.832
 20
-28.93
 11
111.83
 21
-28.901
  0
LINE
  8
0
 10
111.83
 20
-28.901
 11
111.829
 21
-28.8714
  0
LINE
  8
0
 10
111.829
 20
-28.8714
 11
111.829
 21
-28.8423
  0
LINE
  8
0
 10
111.829
 20
-28.8423
 11
111.829
 21
-28.8131
  0
LINE
  8
0
 10
111.829
 20
-28.8131
 11
111.83
 21
-28.7838
  0
LINE
  8
0
 10
111.83
 20
-28.7838
 11
111.832
 21
-28.7547
  0
LINE
  8
0
 10
111.832
 20
-28.7547
 11
111.835
 21
-28.7259
  0
LINE
  8
0
 10
111.835
 20
-28.7259
 11
111.838
 21
-28.6964
  0
LINE
  8
0
 10
111.838
 20
-28.6964
 11
111.842
 21
-28.6675
  0
LINE
  8
0
 10
111.842
 20
-28.6675
 11
111.846
 21
-28.6388
  0
LINE
  8
0
 10
111.846
 20
-28.6388
 11
111.852
 21
-28.61
  0
LINE
  8
0
 10
111.852
 20
-28.61
 11
111.858
 21
-28.5816
  0
LINE
  8
0
 10
111.858
 20
-28.5816
 11
111.865
 21
-28.5531
  0
LINE
  8
0
 10
111.865
 20
-28.5531
 11
111.872
 21
-28.525
  0
LINE
  8
0
 10
111.872
 20
-28.525
 11
111.88
 21
-28.4966
  0
LINE
  8
0
 10
111.88
 20
-28.4966
 11
111.889
 21
-28.469
  0
LINE
  8
0
 10
111.889
 20
-28.469
 11
111.899
 21
-28.4411
  0
LINE
  8
0
 10
111.899
 20
-28.4411
 11
111.909
 21
-28.414
  0
LINE
  8
0
 10
111.909
 20
-28.414
 11
111.919
 21
-28.3867
  0
LINE
  8
0
 10
111.919
 20
-28.3867
 11
111.931
 21
-28.3599
  0
LINE
  8
0
 10
111.931
 20
-28.3599
 11
111.943
 21
-28.3335
  0
LINE
  8
0
 10
111.943
 20
-28.3335
 11
111.956
 21
-28.307
  0
LINE
  8
0
 10
111.956
 20
-28.307
 11
111.97
 21
-28.281
  0
LINE
  8
0
 10
111.97
 20
-28.281
 11
111.983
 21
-28.2557
  0
LINE
  8
0
 10
111.983
 20
-28.2557
 11
111.998
 21
-28.2302
  0
LINE
  8
0
 10
111.998
 20
-28.2302
 11
112.013
 21
-28.2055
  0
LINE
  8
0
 10
112.013
 20
-28.2055
 11
112.03
 21
-28.1807
  0
LINE
  8
0
 10
112.03
 20
-28.1807
 11
112.046
 21
-28.1571
  0
LINE
  8
0
 10
112.046
 20
-28.1571
 11
112.063
 21
-28.1332
  0
LINE
  8
0
 10
112.063
 20
-28.1332
 11
112.081
 21
-28.1098
  0
LINE
  8
0
 10
112.081
 20
-28.1098
 11
112.099
 21
-28.0873
  0
LINE
  8
0
 10
112.099
 20
-28.0873
 11
112.118
 21
-28.0646
  0
LINE
  8
0
 10
112.118
 20
-28.0646
 11
112.137
 21
-28.043
  0
LINE
  8
0
 10
112.137
 20
-28.043
 11
112.157
 21
-28.0213
  0
LINE
  8
0
 10
112.157
 20
-28.0213
 11
112.177
 21
-28.0006
  0
LINE
  8
0
 10
112.177
 20
-28.0006
 11
112.199
 21
-27.9799
  0
LINE
  8
0
 10
112.199
 20
-27.9799
 11
112.22
 21
-27.9602
  0
LINE
  8
0
 10
112.22
 20
-27.9602
 11
112.241
 21
-27.9412
  0
LINE
  8
0
 10
112.241
 20
-27.9412
 11
112.264
 21
-27.9219
  0
LINE
  8
0
 10
112.264
 20
-27.9219
 11
112.287
 21
-27.9039
  0
LINE
  8
0
 10
112.287
 20
-27.9039
 11
112.31
 21
-27.8861
  0
LINE
  8
0
 10
112.31
 20
-27.8861
 11
112.334
 21
-27.869
  0
LINE
  8
0
 10
112.334
 20
-27.869
 11
112.358
 21
-27.8526
  0
LINE
  8
0
 10
112.358
 20
-27.8526
 11
112.382
 21
-27.8365
  0
LINE
  8
0
 10
112.382
 20
-27.8365
 11
112.407
 21
-27.8213
  0
LINE
  8
0
 10
112.407
 20
-27.8213
 11
112.433
 21
-27.8065
  0
LINE
  8
0
 10
112.433
 20
-27.8065
 11
112.458
 21
-27.7923
  0
LINE
  8
0
 10
112.458
 20
-27.7923
 11
112.484
 21
-27.7791
  0
LINE
  8
0
 10
112.484
 20
-27.7791
 11
112.51
 21
-27.7661
  0
LINE
  8
0
 10
112.51
 20
-27.7661
 11
112.537
 21
-27.7541
  0
LINE
  8
0
 10
112.537
 20
-27.7541
 11
112.57
 21
-27.7397
  0
LINE
  8
0
 10
112.57
 20
-27.7397
 11
112.584
 21
-27.7338
  0
LINE
  8
0
 10
112.584
 20
-27.7338
 11
130.323
 21
-20.6381
  0
LINE
  8
0
 10
130.323
 20
-20.6381
 11
130.337
 21
-20.6325
  0
LINE
  8
0
 10
130.337
 20
-20.6325
 11
130.371
 21
-20.6199
  0
LINE
  8
0
 10
130.371
 20
-20.6199
 11
130.399
 21
-20.6104
  0
LINE
  8
0
 10
130.399
 20
-20.6104
 11
130.426
 21
-20.6016
  0
LINE
  8
0
 10
130.426
 20
-20.6016
 11
130.455
 21
-20.5934
  0
LINE
  8
0
 10
130.455
 20
-20.5934
 11
130.483
 21
-20.586
  0
LINE
  8
0
 10
130.483
 20
-20.586
 11
130.512
 21
-20.5791
  0
LINE
  8
0
 10
130.512
 20
-20.5791
 11
130.54
 21
-20.5732
  0
LINE
  8
0
 10
130.54
 20
-20.5732
 11
130.569
 21
-20.5678
  0
LINE
  8
0
 10
130.569
 20
-20.5678
 11
130.597
 21
-20.5632
  0
LINE
  8
0
 10
130.597
 20
-20.5632
 11
130.626
 21
-20.5592
  0
LINE
  8
0
 10
130.626
 20
-20.5592
 11
130.656
 21
-20.556
  0
LINE
  8
0
 10
130.656
 20
-20.556
 11
130.684
 21
-20.5535
  0
LINE
  8
0
 10
130.684
 20
-20.5535
 11
130.716
 21
-20.5516
  0
LINE
  8
0
 10
130.716
 20
-20.5516
 11
130.741
 21
-20.5506
  0
LINE
  8
0
 10
130.741
 20
-20.5506
 11
130.767
 21
-20.5501
  0
LINE
  8
0
 10
130.767
 20
-20.5501
 11
130.778
 21
-20.55
  0
LINE
  8
0
 10
130.778
 20
-20.55
 11
141.762
 21
-20.55
  0
LINE
  8
0
 10
141.762
 20
-20.55
 11
141.778
 21
-20.5502
  0
LINE
  8
0
 10
141.778
 20
-20.5502
 11
141.814
 21
-20.5511
  0
LINE
  8
0
 10
141.814
 20
-20.5511
 11
141.843
 21
-20.5525
  0
LINE
  8
0
 10
141.843
 20
-20.5525
 11
141.872
 21
-20.5547
  0
LINE
  8
0
 10
141.872
 20
-20.5547
 11
141.901
 21
-20.5575
  0
LINE
  8
0
 10
141.901
 20
-20.5575
 11
141.93
 21
-20.5611
  0
LINE
  8
0
 10
141.93
 20
-20.5611
 11
141.959
 21
-20.5653
  0
LINE
  8
0
 10
141.959
 20
-20.5653
 11
141.988
 21
-20.5705
  0
LINE
  8
0
 10
141.988
 20
-20.5705
 11
142.016
 21
-20.576
  0
LINE
  8
0
 10
142.016
 20
-20.576
 11
142.045
 21
-20.5825
  0
LINE
  8
0
 10
142.045
 20
-20.5825
 11
142.073
 21
-20.5896
  0
LINE
  8
0
 10
142.073
 20
-20.5896
 11
142.102
 21
-20.5974
  0
LINE
  8
0
 10
142.102
 20
-20.5974
 11
142.129
 21
-20.6057
  0
LINE
  8
0
 10
142.129
 20
-20.6057
 11
142.157
 21
-20.615
  0
LINE
  8
0
 10
142.157
 20
-20.615
 11
142.185
 21
-20.625
  0
LINE
  8
0
 10
142.185
 20
-20.625
 11
142.212
 21
-20.6354
  0
LINE
  8
0
 10
142.212
 20
-20.6354
 11
142.239
 21
-20.6465
  0
LINE
  8
0
 10
142.239
 20
-20.6465
 11
142.266
 21
-20.6583
  0
LINE
  8
0
 10
142.266
 20
-20.6583
 11
142.292
 21
-20.6709
  0
LINE
  8
0
 10
142.292
 20
-20.6709
 11
142.318
 21
-20.684
  0
LINE
  8
0
 10
142.318
 20
-20.684
 11
142.344
 21
-20.6977
  0
LINE
  8
0
 10
142.344
 20
-20.6977
 11
142.37
 21
-20.7122
  0
LINE
  8
0
 10
142.37
 20
-20.7122
 11
142.394
 21
-20.7272
  0
LINE
  8
0
 10
142.394
 20
-20.7272
 11
142.419
 21
-20.743
  0
LINE
  8
0
 10
142.419
 20
-20.743
 11
142.443
 21
-20.759
  0
LINE
  8
0
 10
142.443
 20
-20.759
 11
142.467
 21
-20.7759
  0
LINE
  8
0
 10
142.467
 20
-20.7759
 11
142.491
 21
-20.7932
  0
LINE
  8
0
 10
142.491
 20
-20.7932
 11
142.514
 21
-20.8114
  0
LINE
  8
0
 10
142.514
 20
-20.8114
 11
142.536
 21
-20.8295
  0
LINE
  8
0
 10
142.536
 20
-20.8295
 11
142.559
 21
-20.8489
  0
LINE
  8
0
 10
142.559
 20
-20.8489
 11
142.58
 21
-20.8686
  0
LINE
  8
0
 10
142.58
 20
-20.8686
 11
142.601
 21
-20.8884
  0
LINE
  8
0
 10
142.601
 20
-20.8884
 11
142.622
 21
-20.9095
  0
LINE
  8
0
 10
142.622
 20
-20.9095
 11
142.642
 21
-20.9304
  0
LINE
  8
0
 10
142.642
 20
-20.9304
 11
142.662
 21
-20.9521
  0
LINE
  8
0
 10
142.662
 20
-20.9521
 11
142.681
 21
-20.9745
  0
LINE
  8
0
 10
142.681
 20
-20.9745
 11
142.699
 21
-20.9966
  0
LINE
  8
0
 10
142.699
 20
-20.9966
 11
142.717
 21
-21.0199
  0
LINE
  8
0
 10
142.717
 20
-21.0199
 11
142.735
 21
-21.0432
  0
LINE
  8
0
 10
142.735
 20
-21.0432
 11
142.752
 21
-21.0673
  0
LINE
  8
0
 10
142.752
 20
-21.0673
 11
142.768
 21
-21.0912
  0
LINE
  8
0
 10
142.768
 20
-21.0912
 11
142.783
 21
-21.1162
  0
LINE
  8
0
 10
142.783
 20
-21.1162
 11
142.798
 21
-21.1411
  0
LINE
  8
0
 10
142.798
 20
-21.1411
 11
142.813
 21
-21.1668
  0
LINE
  8
0
 10
142.813
 20
-21.1668
 11
142.827
 21
-21.1924
  0
LINE
  8
0
 10
142.827
 20
-21.1924
 11
142.84
 21
-21.2184
  0
LINE
  8
0
 10
142.84
 20
-21.2184
 11
142.852
 21
-21.245
  0
LINE
  8
0
 10
142.852
 20
-21.245
 11
142.864
 21
-21.2718
  0
LINE
  8
0
 10
142.864
 20
-21.2718
 11
142.875
 21
-21.2985
  0
LINE
  8
0
 10
142.875
 20
-21.2985
 11
142.886
 21
-21.3256
  0
LINE
  8
0
 10
142.886
 20
-21.3256
 11
142.896
 21
-21.3534
  0
LINE
  8
0
 10
142.896
 20
-21.3534
 11
142.905
 21
-21.3814
  0
LINE
  8
0
 10
142.905
 20
-21.3814
 11
142.913
 21
-21.4088
  0
LINE
  8
0
 10
142.913
 20
-21.4088
 11
142.921
 21
-21.4372
  0
LINE
  8
0
 10
142.921
 20
-21.4372
 11
142.928
 21
-21.4655
  0
LINE
  8
0
 10
142.928
 20
-21.4655
 11
142.935
 21
-21.4946
  0
LINE
  8
0
 10
142.935
 20
-21.4946
 11
142.94
 21
-21.5222
  0
LINE
  8
0
 10
142.94
 20
-21.5222
 11
142.945
 21
-21.5518
  0
LINE
  8
0
 10
142.945
 20
-21.5518
 11
142.95
 21
-21.5802
  0
LINE
  8
0
 10
142.95
 20
-21.5802
 11
142.953
 21
-21.6099
  0
LINE
  8
0
 10
142.953
 20
-21.6099
 11
142.956
 21
-21.6382
  0
LINE
  8
0
 10
142.956
 20
-21.6382
 11
142.958
 21
-21.6676
  0
LINE
  8
0
 10
142.958
 20
-21.6676
 11
142.96
 21
-21.697
  0
LINE
  8
0
 10
142.96
 20
-21.697
 11
142.96
 21
-21.7327
  0
LINE
  8
0
 10
142.96
 20
-21.7327
 11
142.961
 21
-21.7482
  0
LINE
  8
0
 10
142.961
 20
-21.7482
 11
142.961
 21
-26.3594
  0
LINE
  8
0
 10
142.961
 20
-26.3594
 11
142.962
 21
-26.4178
  0
LINE
  8
0
 10
142.962
 20
-26.4178
 11
142.966
 21
-26.4761
  0
LINE
  8
0
 10
142.966
 20
-26.4761
 11
142.974
 21
-26.5341
  0
LINE
  8
0
 10
142.974
 20
-26.5341
 11
142.984
 21
-26.5916
  0
LINE
  8
0
 10
142.984
 20
-26.5916
 11
142.996
 21
-26.6487
  0
LINE
  8
0
 10
142.996
 20
-26.6487
 11
143.012
 21
-26.705
  0
LINE
  8
0
 10
143.012
 20
-26.705
 11
143.03
 21
-26.7605
  0
LINE
  8
0
 10
143.03
 20
-26.7605
 11
143.051
 21
-26.815
  0
LINE
  8
0
 10
143.051
 20
-26.815
 11
143.075
 21
-26.8684
  0
LINE
  8
0
 10
143.075
 20
-26.8684
 11
143.101
 21
-26.9206
  0
LINE
  8
0
 10
143.101
 20
-26.9206
 11
143.13
 21
-26.9715
  0
LINE
  8
0
 10
143.13
 20
-26.9715
 11
143.161
 21
-27.0208
  0
LINE
  8
0
 10
143.161
 20
-27.0208
 11
143.195
 21
-27.0686
  0
LINE
  8
0
 10
143.195
 20
-27.0686
 11
143.231
 21
-27.1147
  0
LINE
  8
0
 10
143.231
 20
-27.1147
 11
143.269
 21
-27.1589
  0
LINE
  8
0
 10
143.269
 20
-27.1589
 11
143.309
 21
-27.2013
  0
LINE
  8
0
 10
143.309
 20
-27.2013
 11
143.352
 21
-27.2416
  0
LINE
  8
0
 10
143.352
 20
-27.2416
 11
143.396
 21
-27.2797
  0
LINE
  8
0
 10
143.396
 20
-27.2797
 11
143.442
 21
-27.3157
  0
LINE
  8
0
 10
143.442
 20
-27.3157
 11
143.49
 21
-27.3493
  0
LINE
  8
0
 10
143.49
 20
-27.3493
 11
143.539
 21
-27.3806
  0
LINE
  8
0
 10
143.539
 20
-27.3806
 11
143.59
 21
-27.4094
  0
LINE
  8
0
 10
143.59
 20
-27.4094
 11
143.642
 21
-27.4357
  0
LINE
  8
0
 10
143.642
 20
-27.4357
 11
143.696
 21
-27.4594
  0
LINE
  8
0
 10
143.696
 20
-27.4594
 11
143.75
 21
-27.4804
  0
LINE
  8
0
 10
143.75
 20
-27.4804
 11
143.806
 21
-27.4987
  0
LINE
  8
0
 10
143.806
 20
-27.4987
 11
143.862
 21
-27.5143
  0
LINE
  8
0
 10
143.862
 20
-27.5143
 11
143.919
 21
-27.5271
  0
LINE
  8
0
 10
143.919
 20
-27.5271
 11
143.977
 21
-27.5371
  0
LINE
  8
0
 10
143.977
 20
-27.5371
 11
144.035
 21
-27.5443
  0
LINE
  8
0
 10
144.035
 20
-27.5443
 11
144.093
 21
-27.5486
  0
LINE
  8
0
 10
144.093
 20
-27.5486
 11
144.151
 21
-27.55
  0
LINE
  8
0
 10
144.151
 20
-27.55
 11
180.77
 21
-27.55
  0
LINE
  8
0
 10
180.77
 20
-27.55
 11
180.828
 21
-27.5486
  0
LINE
  8
0
 10
180.828
 20
-27.5486
 11
180.887
 21
-27.5443
  0
LINE
  8
0
 10
180.887
 20
-27.5443
 11
180.945
 21
-27.5371
  0
LINE
  8
0
 10
180.945
 20
-27.5371
 11
181.002
 21
-27.5271
  0
LINE
  8
0
 10
181.002
 20
-27.5271
 11
181.059
 21
-27.5143
  0
LINE
  8
0
 10
181.059
 20
-27.5143
 11
181.116
 21
-27.4987
  0
LINE
  8
0
 10
181.116
 20
-27.4987
 11
181.171
 21
-27.4804
  0
LINE
  8
0
 10
181.171
 20
-27.4804
 11
181.226
 21
-27.4594
  0
LINE
  8
0
 10
181.226
 20
-27.4594
 11
181.279
 21
-27.4357
  0
LINE
  8
0
 10
181.279
 20
-27.4357
 11
181.331
 21
-27.4094
  0
LINE
  8
0
 10
181.331
 20
-27.4094
 11
181.382
 21
-27.3806
  0
LINE
  8
0
 10
181.382
 20
-27.3806
 11
181.432
 21
-27.3493
  0
LINE
  8
0
 10
181.432
 20
-27.3493
 11
181.479
 21
-27.3157
  0
LINE
  8
0
 10
181.479
 20
-27.3157
 11
181.525
 21
-27.2797
  0
LINE
  8
0
 10
181.525
 20
-27.2797
 11
181.57
 21
-27.2416
  0
LINE
  8
0
 10
181.57
 20
-27.2416
 11
181.612
 21
-27.2013
  0
LINE
  8
0
 10
181.612
 20
-27.2013
 11
181.652
 21
-27.1589
  0
LINE
  8
0
 10
181.652
 20
-27.1589
 11
181.69
 21
-27.1147
  0
LINE
  8
0
 10
181.69
 20
-27.1147
 11
181.726
 21
-27.0686
  0
LINE
  8
0
 10
181.726
 20
-27.0686
 11
181.76
 21
-27.0208
  0
LINE
  8
0
 10
181.76
 20
-27.0208
 11
181.791
 21
-26.9715
  0
LINE
  8
0
 10
181.791
 20
-26.9715
 11
181.82
 21
-26.9206
  0
LINE
  8
0
 10
181.82
 20
-26.9206
 11
181.846
 21
-26.8684
  0
LINE
  8
0
 10
181.846
 20
-26.8684
 11
181.87
 21
-26.815
  0
LINE
  8
0
 10
181.87
 20
-26.815
 11
181.891
 21
-26.7605
  0
LINE
  8
0
 10
181.891
 20
-26.7605
 11
181.909
 21
-26.705
  0
LINE
  8
0
 10
181.909
 20
-26.705
 11
181.925
 21
-26.6487
  0
LINE
  8
0
 10
181.925
 20
-26.6487
 11
181.938
 21
-26.5916
  0
LINE
  8
0
 10
181.938
 20
-26.5916
 11
181.948
 21
-26.5341
  0
LINE
  8
0
 10
181.948
 20
-26.5341
 11
181.955
 21
-26.4761
  0
LINE
  8
0
 10
181.955
 20
-26.4761
 11
181.959
 21
-26.4178
  0
LINE
  8
0
 10
181.959
 20
-26.4178
 11
181.961
 21
-26.3594
  0
LINE
  8
0
 10
181.961
 20
-26.3594
 11
181.961
 21
-21.7482
  0
LINE
  8
0
 10
181.961
 20
-21.7482
 11
181.961
 21
-21.7327
  0
LINE
  8
0
 10
181.961
 20
-21.7327
 11
181.962
 21
-21.697
  0
LINE
  8
0
 10
181.962
 20
-21.697
 11
181.963
 21
-21.6676
  0
LINE
  8
0
 10
181.963
 20
-21.6676
 11
181.965
 21
-21.6382
  0
LINE
  8
0
 10
181.965
 20
-21.6382
 11
181.968
 21
-21.6099
  0
LINE
  8
0
 10
181.968
 20
-21.6099
 11
181.972
 21
-21.5802
  0
LINE
  8
0
 10
181.972
 20
-21.5802
 11
181.976
 21
-21.5518
  0
LINE
  8
0
 10
181.976
 20
-21.5518
 11
181.981
 21
-21.5222
  0
LINE
  8
0
 10
181.981
 20
-21.5222
 11
181.987
 21
-21.4946
  0
LINE
  8
0
 10
181.987
 20
-21.4946
 11
181.993
 21
-21.4655
  0
LINE
  8
0
 10
181.993
 20
-21.4655
 11
182
 21
-21.4372
  0
LINE
  8
0
 10
182
 20
-21.4372
 11
182.008
 21
-21.4088
  0
LINE
  8
0
 10
182.008
 20
-21.4088
 11
182.016
 21
-21.3814
  0
LINE
  8
0
 10
182.016
 20
-21.3814
 11
182.026
 21
-21.3534
  0
LINE
  8
0
 10
182.026
 20
-21.3534
 11
182.036
 21
-21.3256
  0
LINE
  8
0
 10
182.036
 20
-21.3256
 11
182.046
 21
-21.2985
  0
LINE
  8
0
 10
182.046
 20
-21.2985
 11
182.057
 21
-21.2718
  0
LINE
  8
0
 10
182.057
 20
-21.2718
 11
182.069
 21
-21.245
  0
LINE
  8
0
 10
182.069
 20
-21.245
 11
182.082
 21
-21.2184
  0
LINE
  8
0
 10
182.082
 20
-21.2184
 11
182.095
 21
-21.1924
  0
LINE
  8
0
 10
182.095
 20
-21.1924
 11
182.108
 21
-21.1668
  0
LINE
  8
0
 10
182.108
 20
-21.1668
 11
182.123
 21
-21.1411
  0
LINE
  8
0
 10
182.123
 20
-21.1411
 11
182.138
 21
-21.1162
  0
LINE
  8
0
 10
182.138
 20
-21.1162
 11
182.154
 21
-21.0912
  0
LINE
  8
0
 10
182.154
 20
-21.0912
 11
182.17
 21
-21.0673
  0
LINE
  8
0
 10
182.17
 20
-21.0673
 11
182.187
 21
-21.0432
  0
LINE
  8
0
 10
182.187
 20
-21.0432
 11
182.204
 21
-21.0199
  0
LINE
  8
0
 10
182.204
 20
-21.0199
 11
182.222
 21
-20.9966
  0
LINE
  8
0
 10
182.222
 20
-20.9966
 11
182.24
 21
-20.9745
  0
LINE
  8
0
 10
182.24
 20
-20.9745
 11
182.26
 21
-20.9521
  0
LINE
  8
0
 10
182.26
 20
-20.9521
 11
182.279
 21
-20.9304
  0
LINE
  8
0
 10
182.279
 20
-20.9304
 11
182.299
 21
-20.9095
  0
LINE
  8
0
 10
182.299
 20
-20.9095
 11
182.32
 21
-20.8884
  0
LINE
  8
0
 10
182.32
 20
-20.8884
 11
182.341
 21
-20.8686
  0
LINE
  8
0
 10
182.341
 20
-20.8686
 11
182.363
 21
-20.8489
  0
LINE
  8
0
 10
182.363
 20
-20.8489
 11
182.385
 21
-20.8295
  0
LINE
  8
0
 10
182.385
 20
-20.8295
 11
182.407
 21
-20.8114
  0
LINE
  8
0
 10
182.407
 20
-20.8114
 11
182.431
 21
-20.7932
  0
LINE
  8
0
 10
182.431
 20
-20.7932
 11
182.454
 21
-20.7759
  0
LINE
  8
0
 10
182.454
 20
-20.7759
 11
182.478
 21
-20.759
  0
LINE
  8
0
 10
182.478
 20
-20.759
 11
182.502
 21
-20.743
  0
LINE
  8
0
 10
182.502
 20
-20.743
 11
182.527
 21
-20.7272
  0
LINE
  8
0
 10
182.527
 20
-20.7272
 11
182.552
 21
-20.7122
  0
LINE
  8
0
 10
182.552
 20
-20.7122
 11
182.577
 21
-20.6977
  0
LINE
  8
0
 10
182.577
 20
-20.6977
 11
182.603
 21
-20.684
  0
LINE
  8
0
 10
182.603
 20
-20.684
 11
182.629
 21
-20.6709
  0
LINE
  8
0
 10
182.629
 20
-20.6709
 11
182.656
 21
-20.6583
  0
LINE
  8
0
 10
182.656
 20
-20.6583
 11
182.682
 21
-20.6465
  0
LINE
  8
0
 10
182.682
 20
-20.6465
 11
182.709
 21
-20.6354
  0
LINE
  8
0
 10
182.709
 20
-20.6354
 11
182.736
 21
-20.625
  0
LINE
  8
0
 10
182.736
 20
-20.625
 11
182.764
 21
-20.615
  0
LINE
  8
0
 10
182.764
 20
-20.615
 11
182.792
 21
-20.6057
  0
LINE
  8
0
 10
182.792
 20
-20.6057
 11
182.82
 21
-20.5974
  0
LINE
  8
0
 10
182.82
 20
-20.5974
 11
182.848
 21
-20.5896
  0
LINE
  8
0
 10
182.848
 20
-20.5896
 11
182.876
 21
-20.5825
  0
LINE
  8
0
 10
182.876
 20
-20.5825
 11
182.905
 21
-20.576
  0
LINE
  8
0
 10
182.905
 20
-20.576
 11
182.933
 21
-20.5705
  0
LINE
  8
0
 10
182.933
 20
-20.5705
 11
182.962
 21
-20.5653
  0
LINE
  8
0
 10
182.962
 20
-20.5653
 11
182.991
 21
-20.5611
  0
LINE
  8
0
 10
182.991
 20
-20.5611
 11
183.021
 21
-20.5575
  0
LINE
  8
0
 10
183.021
 20
-20.5575
 11
183.049
 21
-20.5547
  0
LINE
  8
0
 10
183.049
 20
-20.5547
 11
183.078
 21
-20.5525
  0
LINE
  8
0
 10
183.078
 20
-20.5525
 11
183.108
 21
-20.5511
  0
LINE
  8
0
 10
183.108
 20
-20.5511
 11
183.143
 21
-20.5502
  0
LINE
  8
0
 10
183.143
 20
-20.5502
 11
183.159
 21
-20.55
  0
LINE
  8
0
 10
183.159
 20
-20.55
 11
194.977
 21
-20.55
  0
LINE
  8
0
 10
194.977
 20
-20.55
 11
195.035
 21
-20.5486
  0
LINE
  8
0
 10
195.035
 20
-20.5486
 11
195.093
 21
-20.5443
  0
LINE
  8
0
 10
195.093
 20
-20.5443
 11
195.151
 21
-20.5371
  0
LINE
  8
0
 10
195.151
 20
-20.5371
 11
195.209
 21
-20.5271
  0
LINE
  8
0
 10
195.209
 20
-20.5271
 11
195.266
 21
-20.5143
  0
LINE
  8
0
 10
195.266
 20
-20.5143
 11
195.322
 21
-20.4987
  0
LINE
  8
0
 10
195.322
 20
-20.4987
 11
195.378
 21
-20.4804
  0
LINE
  8
0
 10
195.378
 20
-20.4804
 11
195.432
 21
-20.4594
  0
LINE
  8
0
 10
195.432
 20
-20.4594
 11
195.486
 21
-20.4357
  0
LINE
  8
0
 10
195.486
 20
-20.4357
 11
195.538
 21
-20.4094
  0
LINE
  8
0
 10
195.538
 20
-20.4094
 11
195.589
 21
-20.3806
  0
LINE
  8
0
 10
195.589
 20
-20.3806
 11
195.638
 21
-20.3493
  0
LINE
  8
0
 10
195.638
 20
-20.3493
 11
195.686
 21
-20.3157
  0
LINE
  8
0
 10
195.686
 20
-20.3157
 11
195.732
 21
-20.2797
  0
LINE
  8
0
 10
195.732
 20
-20.2797
 11
195.776
 21
-20.2416
  0
LINE
  8
0
 10
195.776
 20
-20.2416
 11
195.818
 21
-20.2013
  0
LINE
  8
0
 10
195.818
 20
-20.2013
 11
195.859
 21
-20.1589
  0
LINE
  8
0
 10
195.859
 20
-20.1589
 11
195.897
 21
-20.1147
  0
LINE
  8
0
 10
195.897
 20
-20.1147
 11
195.933
 21
-20.0686
  0
LINE
  8
0
 10
195.933
 20
-20.0686
 11
195.967
 21
-20.0208
  0
LINE
  8
0
 10
195.967
 20
-20.0208
 11
195.998
 21
-19.9715
  0
LINE
  8
0
 10
195.998
 20
-19.9715
 11
196.027
 21
-19.9206
  0
LINE
  8
0
 10
196.027
 20
-19.9206
 11
196.053
 21
-19.8684
  0
LINE
  8
0
 10
196.053
 20
-19.8684
 11
196.077
 21
-19.815
  0
LINE
  8
0
 10
196.077
 20
-19.815
 11
196.098
 21
-19.7605
  0
LINE
  8
0
 10
196.098
 20
-19.7605
 11
196.116
 21
-19.705
  0
LINE
  8
0
 10
196.116
 20
-19.705
 11
196.131
 21
-19.6487
  0
LINE
  8
0
 10
196.131
 20
-19.6487
 11
196.144
 21
-19.5916
  0
LINE
  8
0
 10
196.144
 20
-19.5916
 11
196.154
 21
-19.5341
  0
LINE
  8
0
 10
196.154
 20
-19.5341
 11
196.161
 21
-19.4761
  0
LINE
  8
0
 10
196.161
 20
-19.4761
 11
196.166
 21
-19.4178
  0
LINE
  8
0
 10
196.166
 20
-19.4178
 11
196.167
 21
-19.3594
  0
LINE
  8
0
 10
196.167
 20
-19.3594
 11
196.167
 21
77.4023
  0
LINE
  8
0
 10
196.167
 20
77.4023
 11
196.166
 21
77.4608
  0
LINE
  8
0
 10
196.166
 20
77.4608
 11
196.161
 21
77.519
  0
LINE
  8
0
 10
196.161
 20
77.519
 11
196.154
 21
77.577
  0
LINE
  8
0
 10
196.154
 20
77.577
 11
196.144
 21
77.6346
  0
LINE
  8
0
 10
196.144
 20
77.6346
 11
196.131
 21
77.6916
  0
LINE
  8
0
 10
196.131
 20
77.6916
 11
196.116
 21
77.748
  0
LINE
  8
0
 10
196.116
 20
77.748
 11
196.098
 21
77.8034
  0
LINE
  8
0
 10
196.098
 20
77.8034
 11
196.077
 21
77.858
  0
LINE
  8
0
 10
196.077
 20
77.858
 11
196.053
 21
77.9114
  0
LINE
  8
0
 10
196.053
 20
77.9114
 11
196.027
 21
77.9636
  0
LINE
  8
0
 10
196.027
 20
77.9636
 11
195.998
 21
78.0144
  0
LINE
  8
0
 10
195.998
 20
78.0144
 11
195.967
 21
78.0638
  0
LINE
  8
0
 10
195.967
 20
78.0638
 11
195.933
 21
78.1116
  0
LINE
  8
0
 10
195.933
 20
78.1116
 11
195.897
 21
78.1577
  0
LINE
  8
0
 10
195.897
 20
78.1577
 11
195.859
 21
78.2019
  0
LINE
  8
0
 10
195.859
 20
78.2019
 11
195.818
 21
78.2442
  0
LINE
  8
0
 10
195.818
 20
78.2442
 11
195.776
 21
78.2845
  0
LINE
  8
0
 10
195.776
 20
78.2845
 11
195.732
 21
78.3227
  0
LINE
  8
0
 10
195.732
 20
78.3227
 11
195.686
 21
78.3586
  0
LINE
  8
0
 10
195.686
 20
78.3586
 11
195.638
 21
78.3923
  0
LINE
  8
0
 10
195.638
 20
78.3923
 11
195.589
 21
78.4236
  0
LINE
  8
0
 10
195.589
 20
78.4236
 11
195.538
 21
78.4524
  0
LINE
  8
0
 10
195.538
 20
78.4524
 11
195.486
 21
78.4786
  0
LINE
  8
0
 10
195.486
 20
78.4786
 11
195.432
 21
78.5023
  0
LINE
  8
0
 10
195.432
 20
78.5023
 11
195.378
 21
78.5234
  0
LINE
  8
0
 10
195.378
 20
78.5234
 11
195.322
 21
78.5417
  0
LINE
  8
0
 10
195.322
 20
78.5417
 11
195.266
 21
78.5573
  0
LINE
  8
0
 10
195.266
 20
78.5573
 11
195.209
 21
78.5701
  0
LINE
  8
0
 10
195.209
 20
78.5701
 11
195.151
 21
78.5801
  0
LINE
  8
0
 10
195.151
 20
78.5801
 11
195.093
 21
78.5872
  0
LINE
  8
0
 10
195.093
 20
78.5872
 11
195.035
 21
78.5915
  0
LINE
  8
0
 10
195.035
 20
78.5915
 11
194.977
 21
78.593
  0
LINE
  8
0
 10
194.977
 20
78.593
 11
174.2
 21
78.593
  0
LINE
  8
0
 10
174.2
 20
78.593
 11
174.184
 21
78.5932
  0
LINE
  8
0
 10
174.184
 20
78.5932
 11
174.148
 21
78.594
  0
LINE
  8
0
 10
174.148
 20
78.594
 11
174.119
 21
78.5955
  0
LINE
  8
0
 10
174.119
 20
78.5955
 11
174.089
 21
78.5976
  0
LINE
  8
0
 10
174.089
 20
78.5976
 11
174.061
 21
78.6004
  0
LINE
  8
0
 10
174.061
 20
78.6004
 11
174.031
 21
78.6041
  0
LINE
  8
0
 10
174.031
 20
78.6041
 11
174.003
 21
78.6083
  0
LINE
  8
0
 10
174.003
 20
78.6083
 11
173.974
 21
78.6134
  0
LINE
  8
0
 10
173.974
 20
78.6134
 11
173.946
 21
78.6189
  0
LINE
  8
0
 10
173.946
 20
78.6189
 11
173.917
 21
78.6255
  0
LINE
  8
0
 10
173.917
 20
78.6255
 11
173.889
 21
78.6326
  0
LINE
  8
0
 10
173.889
 20
78.6326
 11
173.86
 21
78.6404
  0
LINE
  8
0
 10
173.86
 20
78.6404
 11
173.833
 21
78.6487
  0
LINE
  8
0
 10
173.833
 20
78.6487
 11
173.805
 21
78.6579
  0
LINE
  8
0
 10
173.805
 20
78.6579
 11
173.777
 21
78.6679
  0
LINE
  8
0
 10
173.777
 20
78.6679
 11
173.75
 21
78.6784
  0
LINE
  8
0
 10
173.75
 20
78.6784
 11
173.723
 21
78.6895
  0
LINE
  8
0
 10
173.723
 20
78.6895
 11
173.696
 21
78.7013
  0
LINE
  8
0
 10
173.696
 20
78.7013
 11
173.67
 21
78.7139
  0
LINE
  8
0
 10
173.67
 20
78.7139
 11
173.644
 21
78.727
  0
LINE
  8
0
 10
173.644
 20
78.727
 11
173.618
 21
78.7406
  0
LINE
  8
0
 10
173.618
 20
78.7406
 11
173.592
 21
78.7552
  0
LINE
  8
0
 10
173.592
 20
78.7552
 11
173.568
 21
78.7701
  0
LINE
  8
0
 10
173.568
 20
78.7701
 11
173.543
 21
78.786
  0
LINE
  8
0
 10
173.543
 20
78.786
 11
173.519
 21
78.8019
  0
LINE
  8
0
 10
173.519
 20
78.8019
 11
173.495
 21
78.8189
  0
LINE
  8
0
 10
173.495
 20
78.8189
 11
173.471
 21
78.8362
  0
LINE
  8
0
 10
173.471
 20
78.8362
 11
173.448
 21
78.8544
  0
LINE
  8
0
 10
173.448
 20
78.8544
 11
173.426
 21
78.8725
  0
LINE
  8
0
 10
173.426
 20
78.8725
 11
173.403
 21
78.8918
  0
LINE
  8
0
 10
173.403
 20
78.8918
 11
173.382
 21
78.9115
  0
LINE
  8
0
 10
173.382
 20
78.9115
 11
173.361
 21
78.9314
  0
LINE
  8
0
 10
173.361
 20
78.9314
 11
173.34
 21
78.9525
  0
LINE
  8
0
 10
173.34
 20
78.9525
 11
173.32
 21
78.9733
  0
LINE
  8
0
 10
173.32
 20
78.9733
 11
173.3
 21
78.9951
  0
LINE
  8
0
 10
173.3
 20
78.9951
 11
173.281
 21
79.0175
  0
LINE
  8
0
 10
173.281
 20
79.0175
 11
173.263
 21
79.0396
  0
LINE
  8
0
 10
173.263
 20
79.0396
 11
173.245
 21
79.0629
  0
LINE
  8
0
 10
173.245
 20
79.0629
 11
173.227
 21
79.0862
  0
LINE
  8
0
 10
173.227
 20
79.0862
 11
173.21
 21
79.1103
  0
LINE
  8
0
 10
173.21
 20
79.1103
 11
173.194
 21
79.1341
  0
LINE
  8
0
 10
173.194
 20
79.1341
 11
173.178
 21
79.1592
  0
LINE
  8
0
 10
173.178
 20
79.1592
 11
173.164
 21
79.1841
  0
LINE
  8
0
 10
173.164
 20
79.1841
 11
173.149
 21
79.2098
  0
LINE
  8
0
 10
173.149
 20
79.2098
 11
173.135
 21
79.2353
  0
LINE
  8
0
 10
173.135
 20
79.2353
 11
173.122
 21
79.2614
  0
LINE
  8
0
 10
173.122
 20
79.2614
 11
173.11
 21
79.288
  0
LINE
  8
0
 10
173.11
 20
79.288
 11
173.098
 21
79.3148
  0
LINE
  8
0
 10
173.098
 20
79.3148
 11
173.087
 21
79.3415
  0
LINE
  8
0
 10
173.087
 20
79.3415
 11
173.076
 21
79.3686
  0
LINE
  8
0
 10
173.076
 20
79.3686
 11
173.066
 21
79.3964
  0
LINE
  8
0
 10
173.066
 20
79.3964
 11
173.057
 21
79.4244
  0
LINE
  8
0
 10
173.057
 20
79.4244
 11
173.049
 21
79.4518
  0
LINE
  8
0
 10
173.049
 20
79.4518
 11
173.041
 21
79.4802
  0
LINE
  8
0
 10
173.041
 20
79.4802
 11
173.034
 21
79.5085
  0
LINE
  8
0
 10
173.034
 20
79.5085
 11
173.027
 21
79.5375
  0
LINE
  8
0
 10
173.027
 20
79.5375
 11
173.022
 21
79.5652
  0
LINE
  8
0
 10
173.022
 20
79.5652
 11
173.017
 21
79.5948
  0
LINE
  8
0
 10
173.017
 20
79.5948
 11
173.012
 21
79.6231
  0
LINE
  8
0
 10
173.012
 20
79.6231
 11
173.009
 21
79.6528
  0
LINE
  8
0
 10
173.009
 20
79.6528
 11
173.006
 21
79.6811
  0
LINE
  8
0
 10
173.006
 20
79.6811
 11
173.004
 21
79.7105
  0
LINE
  8
0
 10
173.004
 20
79.7105
 11
173.002
 21
79.7399
  0
LINE
  8
0
 10
173.002
 20
79.7399
 11
173.002
 21
79.7756
  0
LINE
  8
0
 10
173.002
 20
79.7756
 11
173.001
 21
79.7912
  0
LINE
  8
0
 10
173.001
 20
79.7912
 11
173.001
 21
84.4023
  0
LINE
  8
0
 10
173.001
 20
84.4023
 11
173
 21
84.4608
  0
LINE
  8
0
 10
173
 20
84.4608
 11
172.996
 21
84.519
  0
LINE
  8
0
 10
172.996
 20
84.519
 11
172.988
 21
84.577
  0
LINE
  8
0
 10
172.988
 20
84.577
 11
172.978
 21
84.6346
  0
LINE
  8
0
 10
172.978
 20
84.6346
 11
172.966
 21
84.6916
  0
LINE
  8
0
 10
172.966
 20
84.6916
 11
172.95
 21
84.748
  0
LINE
  8
0
 10
172.95
 20
84.748
 11
172.932
 21
84.8034
  0
LINE
  8
0
 10
172.932
 20
84.8034
 11
172.911
 21
84.858
  0
LINE
  8
0
 10
172.911
 20
84.858
 11
172.887
 21
84.9114
  0
LINE
  8
0
 10
172.887
 20
84.9114
 11
172.861
 21
84.9636
  0
LINE
  8
0
 10
172.861
 20
84.9636
 11
172.832
 21
85.0144
  0
LINE
  8
0
 10
172.832
 20
85.0144
 11
172.801
 21
85.0638
  0
LINE
  8
0
 10
172.801
 20
85.0638
 11
172.767
 21
85.1116
  0
LINE
  8
0
 10
172.767
 20
85.1116
 11
172.731
 21
85.1577
  0
LINE
  8
0
 10
172.731
 20
85.1577
 11
172.693
 21
85.2019
  0
LINE
  8
0
 10
172.693
 20
85.2019
 11
172.653
 21
85.2442
  0
LINE
  8
0
 10
172.653
 20
85.2442
 11
172.61
 21
85.2845
  0
LINE
  8
0
 10
172.61
 20
85.2845
 11
172.566
 21
85.3227
  0
LINE
  8
0
 10
172.566
 20
85.3227
 11
172.52
 21
85.3586
  0
LINE
  8
0
 10
172.52
 20
85.3586
 11
172.472
 21
85.3923
  0
LINE
  8
0
 10
172.472
 20
85.3923
 11
172.423
 21
85.4236
  0
LINE
  8
0
 10
172.423
 20
85.4236
 11
172.372
 21
85.4524
  0
LINE
  8
0
 10
172.372
 20
85.4524
 11
172.32
 21
85.4786
  0
LINE
  8
0
 10
172.32
 20
85.4786
 11
172.266
 21
85.5023
  0
LINE
  8
0
 10
172.266
 20
85.5023
 11
172.212
 21
85.5234
  0
LINE
  8
0
 10
172.212
 20
85.5234
 11
172.156
 21
85.5417
  0
LINE
  8
0
 10
172.156
 20
85.5417
 11
172.1
 21
85.5573
  0
LINE
  8
0
 10
172.1
 20
85.5573
 11
172.043
 21
85.5701
  0
LINE
  8
0
 10
172.043
 20
85.5701
 11
171.985
 21
85.5801
  0
LINE
  8
0
 10
171.985
 20
85.5801
 11
171.927
 21
85.5872
  0
LINE
  8
0
 10
171.927
 20
85.5872
 11
171.869
 21
85.5915
  0
LINE
  8
0
 10
171.869
 20
85.5915
 11
171.811
 21
85.593
  0
LINE
  8
0
 10
171.811
 20
85.593
 11
135.192
 21
85.593
  0
LINE
  8
0
 10
135.192
 20
85.593
 11
135.134
 21
85.5915
  0
LINE
  8
0
 10
135.134
 20
85.5915
 11
135.075
 21
85.5872
  0
LINE
  8
0
 10
135.075
 20
85.5872
 11
135.017
 21
85.5801
  0
LINE
  8
0
 10
135.017
 20
85.5801
 11
134.96
 21
85.5701
  0
LINE
  8
0
 10
134.96
 20
85.5701
 11
134.903
 21
85.5573
  0
LINE
  8
0
 10
134.903
 20
85.5573
 11
134.846
 21
85.5417
  0
LINE
  8
0
 10
134.846
 20
85.5417
 11
134.791
 21
85.5234
  0
LINE
  8
0
 10
134.791
 20
85.5234
 11
134.736
 21
85.5023
  0
LINE
  8
0
 10
134.736
 20
85.5023
 11
134.683
 21
85.4786
  0
LINE
  8
0
 10
134.683
 20
85.4786
 11
134.631
 21
85.4524
  0
LINE
  8
0
 10
134.631
 20
85.4524
 11
134.58
 21
85.4236
  0
LINE
  8
0
 10
134.58
 20
85.4236
 11
134.53
 21
85.3923
  0
LINE
  8
0
 10
134.53
 20
85.3923
 11
134.483
 21
85.3586
  0
LINE
  8
0
 10
134.483
 20
85.3586
 11
134.437
 21
85.3227
  0
LINE
  8
0
 10
134.437
 20
85.3227
 11
134.392
 21
85.2845
  0
LINE
  8
0
 10
134.392
 20
85.2845
 11
134.35
 21
85.2442
  0
LINE
  8
0
 10
134.35
 20
85.2442
 11
134.31
 21
85.2019
  0
LINE
  8
0
 10
134.31
 20
85.2019
 11
134.272
 21
85.1577
  0
LINE
  8
0
 10
134.272
 20
85.1577
 11
134.236
 21
85.1116
  0
LINE
  8
0
 10
134.236
 20
85.1116
 11
134.202
 21
85.0638
  0
LINE
  8
0
 10
134.202
 20
85.0638
 11
134.171
 21
85.0144
  0
LINE
  8
0
 10
134.171
 20
85.0144
 11
134.142
 21
84.9636
  0
LINE
  8
0
 10
134.142
 20
84.9636
 11
134.116
 21
84.9114
  0
LINE
  8
0
 10
134.116
 20
84.9114
 11
134.092
 21
84.858
  0
LINE
  8
0
 10
134.092
 20
84.858
 11
134.071
 21
84.8034
  0
LINE
  8
0
 10
134.071
 20
84.8034
 11
134.053
 21
84.748
  0
LINE
  8
0
 10
134.053
 20
84.748
 11
134.037
 21
84.6916
  0
LINE
  8
0
 10
134.037
 20
84.6916
 11
134.024
 21
84.6346
  0
LINE
  8
0
 10
134.024
 20
84.6346
 11
134.014
 21
84.577
  0
LINE
  8
0
 10
134.014
 20
84.577
 11
134.007
 21
84.519
  0
LINE
  8
0
 10
134.007
 20
84.519
 11
134.003
 21
84.4608
  0
LINE
  8
0
 10
134.003
 20
84.4608
 11
134.001
 21
84.4023
  0
LINE
  8
0
 10
134.001
 20
84.4023
 11
134.001
 21
79.7912
  0
LINE
  8
0
 10
134.001
 20
79.7912
 11
134.001
 21
79.7756
  0
LINE
  8
0
 10
134.001
 20
79.7756
 11
134
 21
79.7399
  0
LINE
  8
0
 10
134
 20
79.7399
 11
133.999
 21
79.7105
  0
LINE
  8
0
 10
133.999
 20
79.7105
 11
133.997
 21
79.6811
  0
LINE
  8
0
 10
133.997
 20
79.6811
 11
133.994
 21
79.6528
  0
LINE
  8
0
 10
133.994
 20
79.6528
 11
133.99
 21
79.6231
  0
LINE
  8
0
 10
133.99
 20
79.6231
 11
133.986
 21
79.5948
  0
LINE
  8
0
 10
133.986
 20
79.5948
 11
133.981
 21
79.5652
  0
LINE
  8
0
 10
133.981
 20
79.5652
 11
133.975
 21
79.5375
  0
LINE
  8
0
 10
133.975
 20
79.5375
 11
133.969
 21
79.5085
  0
LINE
  8
0
 10
133.969
 20
79.5085
 11
133.962
 21
79.4802
  0
LINE
  8
0
 10
133.962
 20
79.4802
 11
133.954
 21
79.4518
  0
LINE
  8
0
 10
133.954
 20
79.4518
 11
133.946
 21
79.4244
  0
LINE
  8
0
 10
133.946
 20
79.4244
 11
133.936
 21
79.3964
  0
LINE
  8
0
 10
133.936
 20
79.3964
 11
133.926
 21
79.3686
  0
LINE
  8
0
 10
133.926
 20
79.3686
 11
133.916
 21
79.3415
  0
LINE
  8
0
 10
133.916
 20
79.3415
 11
133.905
 21
79.3148
  0
LINE
  8
0
 10
133.905
 20
79.3148
 11
133.893
 21
79.288
  0
LINE
  8
0
 10
133.893
 20
79.288
 11
133.88
 21
79.2614
  0
LINE
  8
0
 10
133.88
 20
79.2614
 11
133.867
 21
79.2353
  0
LINE
  8
0
 10
133.867
 20
79.2353
 11
133.854
 21
79.2098
  0
LINE
  8
0
 10
133.854
 20
79.2098
 11
133.839
 21
79.1841
  0
LINE
  8
0
 10
133.839
 20
79.1841
 11
133.824
 21
79.1592
  0
LINE
  8
0
 10
133.824
 20
79.1592
 11
133.808
 21
79.1341
  0
LINE
  8
0
 10
133.808
 20
79.1341
 11
133.792
 21
79.1103
  0
LINE
  8
0
 10
133.792
 20
79.1103
 11
133.775
 21
79.0862
  0
LINE
  8
0
 10
133.775
 20
79.0862
 11
133.758
 21
79.0629
  0
LINE
  8
0
 10
133.758
 20
79.0629
 11
133.74
 21
79.0396
  0
LINE
  8
0
 10
133.74
 20
79.0396
 11
133.722
 21
79.0175
  0
LINE
  8
0
 10
133.722
 20
79.0175
 11
133.702
 21
78.9951
  0
LINE
  8
0
 10
133.702
 20
78.9951
 11
133.683
 21
78.9733
  0
LINE
  8
0
 10
133.683
 20
78.9733
 11
133.663
 21
78.9525
  0
LINE
  8
0
 10
133.663
 20
78.9525
 11
133.642
 21
78.9314
  0
LINE
  8
0
 10
133.642
 20
78.9314
 11
133.621
 21
78.9115
  0
LINE
  8
0
 10
133.621
 20
78.9115
 11
133.599
 21
78.8918
  0
LINE
  8
0
 10
133.599
 20
78.8918
 11
133.577
 21
78.8725
  0
LINE
  8
0
 10
133.577
 20
78.8725
 11
133.555
 21
78.8544
  0
LINE
  8
0
 10
133.555
 20
78.8544
 11
133.531
 21
78.8362
  0
LINE
  8
0
 10
133.531
 20
78.8362
 11
133.508
 21
78.8189
  0
LINE
  8
0
 10
133.508
 20
78.8189
 11
133.484
 21
78.8019
  0
LINE
  8
0
 10
133.484
 20
78.8019
 11
133.46
 21
78.786
  0
LINE
  8
0
 10
133.46
 20
78.786
 11
133.435
 21
78.7701
  0
LINE
  8
0
 10
133.435
 20
78.7701
 11
133.41
 21
78.7552
  0
LINE
  8
0
 10
133.41
 20
78.7552
 11
133.385
 21
78.7406
  0
LINE
  8
0
 10
133.385
 20
78.7406
 11
133.359
 21
78.727
  0
LINE
  8
0
 10
133.359
 20
78.727
 11
133.333
 21
78.7139
  0
LINE
  8
0
 10
133.333
 20
78.7139
 11
133.306
 21
78.7013
  0
LINE
  8
0
 10
133.306
 20
78.7013
 11
133.28
 21
78.6895
  0
LINE
  8
0
 10
133.28
 20
78.6895
 11
133.253
 21
78.6784
  0
LINE
  8
0
 10
133.253
 20
78.6784
 11
133.226
 21
78.6679
  0
LINE
  8
0
 10
133.226
 20
78.6679
 11
133.198
 21
78.6579
  0
LINE
  8
0
 10
133.198
 20
78.6579
 11
133.17
 21
78.6487
  0
LINE
  8
0
 10
133.17
 20
78.6487
 11
133.142
 21
78.6404
  0
LINE
  8
0
 10
133.142
 20
78.6404
 11
133.114
 21
78.6326
  0
LINE
  8
0
 10
133.114
 20
78.6326
 11
133.086
 21
78.6255
  0
LINE
  8
0
 10
133.086
 20
78.6255
 11
133.057
 21
78.6189
  0
LINE
  8
0
 10
133.057
 20
78.6189
 11
133.029
 21
78.6134
  0
LINE
  8
0
 10
133.029
 20
78.6134
 11
133
 21
78.6083
  0
LINE
  8
0
 10
133
 20
78.6083
 11
132.971
 21
78.6041
  0
LINE
  8
0
 10
132.971
 20
78.6041
 11
132.941
 21
78.6004
  0
LINE
  8
0
 10
132.941
 20
78.6004
 11
132.913
 21
78.5976
  0
LINE
  8
0
 10
132.913
 20
78.5976
 11
132.884
 21
78.5955
  0
LINE
  8
0
 10
132.884
 20
78.5955
 11
132.854
 21
78.594
  0
LINE
  8
0
 10
132.854
 20
78.594
 11
132.819
 21
78.5932
  0
LINE
  8
0
 10
132.819
 20
78.5932
 11
132.803
 21
78.593
  0
LINE
  8
0
 10
132.803
 20
78.593
 11
95.5885
 21
78.593
  0
LINE
  8
0
 10
95.5885
 20
78.593
 11
95.573
 21
78.5932
  0
LINE
  8
0
 10
95.573
 20
78.5932
 11
95.5373
 21
78.594
  0
LINE
  8
0
 10
95.5373
 20
78.594
 11
95.5079
 21
78.5955
  0
LINE
  8
0
 10
95.5079
 20
78.5955
 11
95.4785
 21
78.5976
  0
LINE
  8
0
 10
95.4785
 20
78.5976
 11
95.4502
 21
78.6004
  0
LINE
  8
0
 10
95.4502
 20
78.6004
 11
95.4205
 21
78.6041
  0
LINE
  8
0
 10
95.4205
 20
78.6041
 11
95.3921
 21
78.6083
  0
LINE
  8
0
 10
95.3921
 20
78.6083
 11
95.3625
 21
78.6134
  0
LINE
  8
0
 10
95.3625
 20
78.6134
 11
95.3349
 21
78.6189
  0
LINE
  8
0
 10
95.3349
 20
78.6189
 11
95.3059
 21
78.6255
  0
LINE
  8
0
 10
95.3059
 20
78.6255
 11
95.2775
 21
78.6326
  0
LINE
  8
0
 10
95.2775
 20
78.6326
 11
95.2492
 21
78.6404
  0
LINE
  8
0
 10
95.2492
 20
78.6404
 11
95.2217
 21
78.6487
  0
LINE
  8
0
 10
95.2217
 20
78.6487
 11
95.1938
 21
78.6579
  0
LINE
  8
0
 10
95.1938
 20
78.6579
 11
95.1659
 21
78.6679
  0
LINE
  8
0
 10
95.1659
 20
78.6679
 11
95.1388
 21
78.6784
  0
LINE
  8
0
 10
95.1388
 20
78.6784
 11
95.1121
 21
78.6895
  0
LINE
  8
0
 10
95.1121
 20
78.6895
 11
95.0853
 21
78.7013
  0
LINE
  8
0
 10
95.0853
 20
78.7013
 11
95.0587
 21
78.7139
  0
LINE
  8
0
 10
95.0587
 20
78.7139
 11
95.0327
 21
78.727
  0
LINE
  8
0
 10
95.0327
 20
78.727
 11
95.0071
 21
78.7406
  0
LINE
  8
0
 10
95.0071
 20
78.7406
 11
94.9815
 21
78.7552
  0
LINE
  8
0
 10
94.9815
 20
78.7552
 11
94.9565
 21
78.7701
  0
LINE
  8
0
 10
94.9565
 20
78.7701
 11
94.9315
 21
78.786
  0
LINE
  8
0
 10
94.9315
 20
78.786
 11
94.9077
 21
78.8019
  0
LINE
  8
0
 10
94.9077
 20
78.8019
 11
94.8836
 21
78.8189
  0
LINE
  8
0
 10
94.8836
 20
78.8189
 11
94.8602
 21
78.8362
  0
LINE
  8
0
 10
94.8602
 20
78.8362
 11
94.837
 21
78.8544
  0
LINE
  8
0
 10
94.837
 20
78.8544
 11
94.8148
 21
78.8725
  0
LINE
  8
0
 10
94.8148
 20
78.8725
 11
94.7924
 21
78.8918
  0
LINE
  8
0
 10
94.7924
 20
78.8918
 11
94.7707
 21
78.9115
  0
LINE
  8
0
 10
94.7707
 20
78.9115
 11
94.7498
 21
78.9314
  0
LINE
  8
0
 10
94.7498
 20
78.9314
 11
94.7287
 21
78.9525
  0
LINE
  8
0
 10
94.7287
 20
78.9525
 11
94.7089
 21
78.9733
  0
LINE
  8
0
 10
94.7089
 20
78.9733
 11
94.6892
 21
78.9951
  0
LINE
  8
0
 10
94.6892
 20
78.9951
 11
94.6698
 21
79.0175
  0
LINE
  8
0
 10
94.6698
 20
79.0175
 11
94.6517
 21
79.0396
  0
LINE
  8
0
 10
94.6517
 20
79.0396
 11
94.6335
 21
79.0629
  0
LINE
  8
0
 10
94.6335
 20
79.0629
 11
94.6163
 21
79.0862
  0
LINE
  8
0
 10
94.6163
 20
79.0862
 11
94.5993
 21
79.1103
  0
LINE
  8
0
 10
94.5993
 20
79.1103
 11
94.5833
 21
79.1341
  0
LINE
  8
0
 10
94.5833
 20
79.1341
 11
94.5675
 21
79.1592
  0
LINE
  8
0
 10
94.5675
 20
79.1592
 11
94.5525
 21
79.1841
  0
LINE
  8
0
 10
94.5525
 20
79.1841
 11
94.538
 21
79.2098
  0
LINE
  8
0
 10
94.538
 20
79.2098
 11
94.5244
 21
79.2353
  0
LINE
  8
0
 10
94.5244
 20
79.2353
 11
94.5112
 21
79.2614
  0
LINE
  8
0
 10
94.5112
 20
79.2614
 11
94.4986
 21
79.288
  0
LINE
  8
0
 10
94.4986
 20
79.288
 11
94.4868
 21
79.3148
  0
LINE
  8
0
 10
94.4868
 20
79.3148
 11
94.4757
 21
79.3415
  0
LINE
  8
0
 10
94.4757
 20
79.3415
 11
94.4653
 21
79.3686
  0
LINE
  8
0
 10
94.4653
 20
79.3686
 11
94.4553
 21
79.3964
  0
LINE
  8
0
 10
94.4553
 20
79.3964
 11
94.4461
 21
79.4244
  0
LINE
  8
0
 10
94.4461
 20
79.4244
 11
94.4377
 21
79.4518
  0
LINE
  8
0
 10
94.4377
 20
79.4518
 11
94.4299
 21
79.4802
  0
LINE
  8
0
 10
94.4299
 20
79.4802
 11
94.4228
 21
79.5085
  0
LINE
  8
0
 10
94.4228
 20
79.5085
 11
94.4163
 21
79.5375
  0
LINE
  8
0
 10
94.4163
 20
79.5375
 11
94.4108
 21
79.5652
  0
LINE
  8
0
 10
94.4108
 20
79.5652
 11
94.4056
 21
79.5948
  0
LINE
  8
0
 10
94.4056
 20
79.5948
 11
94.4014
 21
79.6231
  0
LINE
  8
0
 10
94.4014
 20
79.6231
 11
94.3978
 21
79.6528
  0
LINE
  8
0
 10
94.3978
 20
79.6528
 11
94.395
 21
79.6811
  0
LINE
  8
0
 10
94.395
 20
79.6811
 11
94.3928
 21
79.7105
  0
LINE
  8
0
 10
94.3928
 20
79.7105
 11
94.3914
 21
79.7399
  0
LINE
  8
0
 10
94.3914
 20
79.7399
 11
94.3905
 21
79.7756
  0
LINE
  8
0
 10
94.3905
 20
79.7756
 11
94.3903
 21
79.7912
  0
LINE
  8
0
 10
94.3903
 20
79.7912
 11
94.3903
 21
84.4023
  0
LINE
  8
0
 10
94.3903
 20
84.4023
 11
94.3889
 21
84.4608
  0
LINE
  8
0
 10
94.3889
 20
84.4608
 11
94.3846
 21
84.519
  0
LINE
  8
0
 10
94.3846
 20
84.519
 11
94.3774
 21
84.577
  0
LINE
  8
0
 10
94.3774
 20
84.577
 11
94.3674
 21
84.6346
  0
LINE
  8
0
 10
94.3674
 20
84.6346
 11
94.3546
 21
84.6916
  0
LINE
  8
0
 10
94.3546
 20
84.6916
 11
94.339
 21
84.748
  0
LINE
  8
0
 10
94.339
 20
84.748
 11
94.3207
 21
84.8034
  0
LINE
  8
0
 10
94.3207
 20
84.8034
 11
94.2997
 21
84.858
  0
LINE
  8
0
 10
94.2997
 20
84.858
 11
94.276
 21
84.9114
  0
LINE
  8
0
 10
94.276
 20
84.9114
 11
94.2497
 21
84.9636
  0
LINE
  8
0
 10
94.2497
 20
84.9636
 11
94.2209
 21
85.0144
  0
LINE
  8
0
 10
94.2209
 20
85.0144
 11
94.1897
 21
85.0638
  0
LINE
  8
0
 10
94.1897
 20
85.0638
 11
94.156
 21
85.1116
  0
LINE
  8
0
 10
94.156
 20
85.1116
 11
94.12
 21
85.1577
  0
LINE
  8
0
 10
94.12
 20
85.1577
 11
94.0819
 21
85.2019
  0
LINE
  8
0
 10
94.0819
 20
85.2019
 11
94.0416
 21
85.2442
  0
LINE
  8
0
 10
94.0416
 20
85.2442
 11
93.9993
 21
85.2845
  0
LINE
  8
0
 10
93.9993
 20
85.2845
 11
93.955
 21
85.3227
  0
LINE
  8
0
 10
93.955
 20
85.3227
 11
93.9089
 21
85.3586
  0
LINE
  8
0
 10
93.9089
 20
85.3586
 11
93.8611
 21
85.3923
  0
LINE
  8
0
 10
93.8611
 20
85.3923
 11
93.8118
 21
85.4236
  0
LINE
  8
0
 10
93.8118
 20
85.4236
 11
93.7609
 21
85.4524
  0
LINE
  8
0
 10
93.7609
 20
85.4524
 11
93.7087
 21
85.4786
  0
LINE
  8
0
 10
93.7087
 20
85.4786
 11
93.6553
 21
85.5023
  0
LINE
  8
0
 10
93.6553
 20
85.5023
 11
93.6008
 21
85.5234
  0
LINE
  8
0
 10
93.6008
 20
85.5234
 11
93.5453
 21
85.5417
  0
LINE
  8
0
 10
93.5453
 20
85.5417
 11
93.489
 21
85.5573
  0
LINE
  8
0
 10
93.489
 20
85.5573
 11
93.432
 21
85.5701
  0
LINE
  8
0
 10
93.432
 20
85.5701
 11
93.3744
 21
85.5801
  0
LINE
  8
0
 10
93.3744
 20
85.5801
 11
93.3164
 21
85.5872
  0
LINE
  8
0
 10
93.3164
 20
85.5872
 11
93.2581
 21
85.5915
  0
LINE
  8
0
 10
93.2581
 20
85.5915
 11
93.1997
 21
85.593
  0
LINE
  8
0
 10
93.1997
 20
85.593
 11
56.5809
 21
85.593
  0
LINE
  8
0
 10
56.5809
 20
85.593
 11
56.5225
 21
85.5915
  0
LINE
  8
0
 10
56.5225
 20
85.5915
 11
56.4642
 21
85.5872
  0
LINE
  8
0
 10
56.4642
 20
85.5872
 11
56.4062
 21
85.5801
  0
LINE
  8
0
 10
56.4062
 20
85.5801
 11
56.3486
 21
85.5701
  0
LINE
  8
0
 10
56.3486
 20
85.5701
 11
56.2916
 21
85.5573
  0
LINE
  8
0
 10
56.2916
 20
85.5573
 11
56.2353
 21
85.5417
  0
LINE
  8
0
 10
56.2353
 20
85.5417
 11
56.1798
 21
85.5234
  0
LINE
  8
0
 10
56.1798
 20
85.5234
 11
56.1253
 21
85.5023
  0
LINE
  8
0
 10
56.1253
 20
85.5023
 11
56.0719
 21
85.4786
  0
LINE
  8
0
 10
56.0719
 20
85.4786
 11
56.0197
 21
85.4524
  0
LINE
  8
0
 10
56.0197
 20
85.4524
 11
55.9688
 21
85.4236
  0
LINE
  8
0
 10
55.9688
 20
85.4236
 11
55.9195
 21
85.3923
  0
LINE
  8
0
 10
55.9195
 20
85.3923
 11
55.8717
 21
85.3586
  0
LINE
  8
0
 10
55.8717
 20
85.3586
 11
55.8256
 21
85.3227
  0
LINE
  8
0
 10
55.8256
 20
85.3227
 11
55.7814
 21
85.2845
  0
LINE
  8
0
 10
55.7814
 20
85.2845
 11
55.739
 21
85.2442
  0
LINE
  8
0
 10
55.739
 20
85.2442
 11
55.6987
 21
85.2019
  0
LINE
  8
0
 10
55.6987
 20
85.2019
 11
55.6606
 21
85.1577
  0
LINE
  8
0
 10
55.6606
 20
85.1577
 11
55.6246
 21
85.1116
  0
LINE
  8
0
 10
55.6246
 20
85.1116
 11
55.591
 21
85.0638
  0
LINE
  8
0
 10
55.591
 20
85.0638
 11
55.5597
 21
85.0144
  0
LINE
  8
0
 10
55.5597
 20
85.0144
 11
55.5309
 21
84.9636
  0
LINE
  8
0
 10
55.5309
 20
84.9636
 11
55.5046
 21
84.9114
  0
LINE
  8
0
 10
55.5046
 20
84.9114
 11
55.4809
 21
84.858
  0
LINE
  8
0
 10
55.4809
 20
84.858
 11
55.4599
 21
84.8034
  0
LINE
  8
0
 10
55.4599
 20
84.8034
 11
55.4416
 21
84.748
  0
LINE
  8
0
 10
55.4416
 20
84.748
 11
55.426
 21
84.6916
  0
LINE
  8
0
 10
55.426
 20
84.6916
 11
55.4132
 21
84.6346
  0
LINE
  8
0
 10
55.4132
 20
84.6346
 11
55.4032
 21
84.577
  0
LINE
  8
0
 10
55.4032
 20
84.577
 11
55.396
 21
84.519
  0
LINE
  8
0
 10
55.396
 20
84.519
 11
55.3917
 21
84.4608
  0
LINE
  8
0
 10
55.3917
 20
84.4608
 11
55.3903
 21
84.4023
  0
LINE
  8
0
 10
55.3903
 20
84.4023
 11
55.3903
 21
79.7912
  0
LINE
  8
0
 10
55.3903
 20
79.7912
 11
55.3901
 21
79.7756
  0
LINE
  8
0
 10
55.3901
 20
79.7756
 11
55.3892
 21
79.7399
  0
LINE
  8
0
 10
55.3892
 20
79.7399
 11
55.3878
 21
79.7105
  0
LINE
  8
0
 10
55.3878
 20
79.7105
 11
55.3856
 21
79.6811
  0
LINE
  8
0
 10
55.3856
 20
79.6811
 11
55.3828
 21
79.6528
  0
LINE
  8
0
 10
55.3828
 20
79.6528
 11
55.3792
 21
79.6231
  0
LINE
  8
0
 10
55.3792
 20
79.6231
 11
55.375
 21
79.5948
  0
LINE
  8
0
 10
55.375
 20
79.5948
 11
55.3698
 21
79.5652
  0
LINE
  8
0
 10
55.3698
 20
79.5652
 11
55.3643
 21
79.5375
  0
LINE
  8
0
 10
55.3643
 20
79.5375
 11
55.3578
 21
79.5085
  0
LINE
  8
0
 10
55.3578
 20
79.5085
 11
55.3507
 21
79.4802
  0
LINE
  8
0
 10
55.3507
 20
79.4802
 11
55.3429
 21
79.4518
  0
LINE
  8
0
 10
55.3429
 20
79.4518
 11
55.3345
 21
79.4244
  0
LINE
  8
0
 10
55.3345
 20
79.4244
 11
55.3253
 21
79.3964
  0
LINE
  8
0
 10
55.3253
 20
79.3964
 11
55.3153
 21
79.3686
  0
LINE
  8
0
 10
55.3153
 20
79.3686
 11
55.3049
 21
79.3415
  0
LINE
  8
0
 10
55.3049
 20
79.3415
 11
55.2938
 21
79.3148
  0
LINE
  8
0
 10
55.2938
 20
79.3148
 11
55.282
 21
79.288
  0
LINE
  8
0
 10
55.282
 20
79.288
 11
55.2694
 21
79.2614
  0
LINE
  8
0
 10
55.2694
 20
79.2614
 11
55.2563
 21
79.2353
  0
LINE
  8
0
 10
55.2563
 20
79.2353
 11
55.2426
 21
79.2098
  0
LINE
  8
0
 10
55.2426
 20
79.2098
 11
55.2281
 21
79.1841
  0
LINE
  8
0
 10
55.2281
 20
79.1841
 11
55.2131
 21
79.1592
  0
LINE
  8
0
 10
55.2131
 20
79.1592
 11
55.1973
 21
79.1341
  0
LINE
  8
0
 10
55.1973
 20
79.1341
 11
55.1813
 21
79.1103
  0
LINE
  8
0
 10
55.1813
 20
79.1103
 11
55.1644
 21
79.0862
  0
LINE
  8
0
 10
55.1644
 20
79.0862
 11
55.1471
 21
79.0629
  0
LINE
  8
0
 10
55.1471
 20
79.0629
 11
55.1289
 21
79.0396
  0
LINE
  8
0
 10
55.1289
 20
79.0396
 11
55.1108
 21
79.0175
  0
LINE
  8
0
 10
55.1108
 20
79.0175
 11
55.0914
 21
78.9951
  0
LINE
  8
0
 10
55.0914
 20
78.9951
 11
55.0717
 21
78.9733
  0
LINE
  8
0
 10
55.0717
 20
78.9733
 11
55.0519
 21
78.9525
  0
LINE
  8
0
 10
55.0519
 20
78.9525
 11
55.0308
 21
78.9314
  0
LINE
  8
0
 10
55.0308
 20
78.9314
 11
55.0099
 21
78.9115
  0
LINE
  8
0
 10
55.0099
 20
78.9115
 11
54.9882
 21
78.8918
  0
LINE
  8
0
 10
54.9882
 20
78.8918
 11
54.9658
 21
78.8725
  0
LINE
  8
0
 10
54.9658
 20
78.8725
 11
54.9436
 21
78.8544
  0
LINE
  8
0
 10
54.9436
 20
78.8544
 11
54.9204
 21
78.8362
  0
LINE
  8
0
 10
54.9204
 20
78.8362
 11
54.897
 21
78.8189
  0
LINE
  8
0
 10
54.897
 20
78.8189
 11
54.873
 21
78.8019
  0
LINE
  8
0
 10
54.873
 20
78.8019
 11
54.8491
 21
78.786
  0
LINE
  8
0
 10
54.8491
 20
78.786
 11
54.8241
 21
78.7701
  0
LINE
  8
0
 10
54.8241
 20
78.7701
 11
54.7991
 21
78.7552
  0
LINE
  8
0
 10
54.7991
 20
78.7552
 11
54.7735
 21
78.7406
  0
LINE
  8
0
 10
54.7735
 20
78.7406
 11
54.7479
 21
78.727
  0
LINE
  8
0
 10
54.7479
 20
78.727
 11
54.7219
 21
78.7139
  0
LINE
  8
0
 10
54.7219
 20
78.7139
 11
54.6953
 21
78.7013
  0
LINE
  8
0
 10
54.6953
 20
78.7013
 11
54.6685
 21
78.6895
  0
LINE
  8
0
 10
54.6685
 20
78.6895
 11
54.6418
 21
78.6784
  0
LINE
  8
0
 10
54.6418
 20
78.6784
 11
54.6147
 21
78.6679
  0
LINE
  8
0
 10
54.6147
 20
78.6679
 11
54.5869
 21
78.6579
  0
LINE
  8
0
 10
54.5869
 20
78.6579
 11
54.5589
 21
78.6487
  0
LINE
  8
0
 10
54.5589
 20
78.6487
 11
54.5314
 21
78.6404
  0
LINE
  8
0
 10
54.5314
 20
78.6404
 11
54.5031
 21
78.6326
  0
LINE
  8
0
 10
54.5031
 20
78.6326
 11
54.4747
 21
78.6255
  0
LINE
  8
0
 10
54.4747
 20
78.6255
 11
54.4457
 21
78.6189
  0
LINE
  8
0
 10
54.4457
 20
78.6189
 11
54.4181
 21
78.6134
  0
LINE
  8
0
 10
54.4181
 20
78.6134
 11
54.3885
 21
78.6083
  0
LINE
  8
0
 10
54.3885
 20
78.6083
 11
54.3601
 21
78.6041
  0
LINE
  8
0
 10
54.3601
 20
78.6041
 11
54.3304
 21
78.6004
  0
LINE
  8
0
 10
54.3304
 20
78.6004
 11
54.3021
 21
78.5976
  0
LINE
  8
0
 10
54.3021
 20
78.5976
 11
54.2727
 21
78.5955
  0
LINE
  8
0
 10
54.2727
 20
78.5955
 11
54.2433
 21
78.594
  0
LINE
  8
0
 10
54.2433
 20
78.594
 11
54.2076
 21
78.5932
  0
LINE
  8
0
 10
54.2076
 20
78.5932
 11
54.1921
 21
78.593
  0
LINE
  8
0
 10
54.1921
 20
78.593
 11
-54.1921
 21
78.593
  0
LINE
  8
0
 10
-54.1921
 20
78.593
 11
-54.2076
 21
78.5932
  0
LINE
  8
0
 10
-54.2076
 20
78.5932
 11
-54.2433
 21
78.594
  0
LINE
  8
0
 10
-54.2433
 20
78.594
 11
-54.2727
 21
78.5955
  0
LINE
  8
0
 10
-54.2727
 20
78.5955
 11
-54.3021
 21
78.5976
  0
LINE
  8
0
 10
-54.3021
 20
78.5976
 11
-54.3304
 21
78.6004
  0
LINE
  8
0
 10
-54.3304
 20
78.6004
 11
-54.3601
 21
78.6041
  0
LINE
  8
0
 10
-54.3601
 20
78.6041
 11
-54.3885
 21
78.6083
  0
LINE
  8
0
 10
-54.3885
 20
78.6083
 11
-54.4181
 21
78.6134
  0
LINE
  8
0
 10
-54.4181
 20
78.6134
 11
-54.4457
 21
78.6189
  0
LINE
  8
0
 10
-54.4457
 20
78.6189
 11
-54.4747
 21
78.6255
  0
LINE
  8
0
 10
-54.4747
 20
78.6255
 11
-54.5031
 21
78.6326
  0
LINE
  8
0
 10
-54.5031
 20
78.6326
 11
-54.5314
 21
78.6404
  0
LINE
  8
0
 10
-54.5314
 20
78.6404
 11
-54.5589
 21
78.6487
  0
LINE
  8
0
 10
-54.5589
 20
78.6487
 11
-54.5869
 21
78.6579
  0
LINE
  8
0
 10
-54.5869
 20
78.6579
 11
-54.6147
 21
78.6679
  0
LINE
  8
0
 10
-54.6147
 20
78.6679
 11
-54.6418
 21
78.6784
  0
LINE
  8
0
 10
-54.6418
 20
78.6784
 11
-54.6685
 21
78.6895
  0
LINE
  8
0
 10
-54.6685
 20
78.6895
 11
-54.6953
 21
78.7013
  0
LINE
  8
0
 10
-54.6953
 20
78.7013
 11
-54.7219
 21
78.7139
  0
LINE
  8
0
 10
-54.7219
 20
78.7139
 11
-54.7479
 21
78.727
  0
LINE
  8
0
 10
-54.7479
 20
78.727
 11
-54.7735
 21
78.7406
  0
LINE
  8
0
 10
-54.7735
 20
78.7406
 11
-54.7991
 21
78.7552
  0
LINE
  8
0
 10
-54.7991
 20
78.7552
 11
-54.8241
 21
78.7701
  0
LINE
  8
0
 10
-54.8241
 20
78.7701
 11
-54.8491
 21
78.786
  0
LINE
  8
0
 10
-54.8491
 20
78.786
 11
-54.873
 21
78.8019
  0
LINE
  8
0
 10
-54.873
 20
78.8019
 11
-54.897
 21
78.8189
  0
LINE
  8
0
 10
-54.897
 20
78.8189
 11
-54.9204
 21
78.8362
  0
LINE
  8
0
 10
-54.9204
 20
78.8362
 11
-54.9436
 21
78.8544
  0
LINE
  8
0
 10
-54.9436
 20
78.8544
 11
-54.9658
 21
78.8725
  0
LINE
  8
0
 10
-54.9658
 20
78.8725
 11
-54.9882
 21
78.8918
  0
LINE
  8
0
 10
-54.9882
 20
78.8918
 11
-55.0099
 21
78.9115
  0
LINE
  8
0
 10
-55.0099
 20
78.9115
 11
-55.0308
 21
78.9314
  0
LINE
  8
0
 10
-55.0308
 20
78.9314
 11
-55.0519
 21
78.9525
  0
LINE
  8
0
 10
-55.0519
 20
78.9525
 11
-55.0717
 21
78.9733
  0
LINE
  8
0
 10
-55.0717
 20
78.9733
 11
-55.0914
 21
78.9951
  0
LINE
  8
0
 10
-55.0914
 20
78.9951
 11
-55.1108
 21
79.0175
  0
LINE
  8
0
 10
-55.1108
 20
79.0175
 11
-55.1289
 21
79.0396
  0
LINE
  8
0
 10
-55.1289
 20
79.0396
 11
-55.1471
 21
79.0629
  0
LINE
  8
0
 10
-55.1471
 20
79.0629
 11
-55.1644
 21
79.0862
  0
LINE
  8
0
 10
-55.1644
 20
79.0862
 11
-55.1813
 21
79.1103
  0
LINE
  8
0
 10
-55.1813
 20
79.1103
 11
-55.1973
 21
79.1341
  0
LINE
  8
0
 10
-55.1973
 20
79.1341
 11
-55.2131
 21
79.1592
  0
LINE
  8
0
 10
-55.2131
 20
79.1592
 11
-55.2281
 21
79.1841
  0
LINE
  8
0
 10
-55.2281
 20
79.1841
 11
-55.2426
 21
79.2098
  0
LINE
  8
0
 10
-55.2426
 20
79.2098
 11
-55.2563
 21
79.2353
  0
LINE
  8
0
 10
-55.2563
 20
79.2353
 11
-55.2694
 21
79.2614
  0
LINE
  8
0
 10
-55.2694
 20
79.2614
 11
-55.282
 21
79.288
  0
LINE
  8
0
 10
-55.282
 20
79.288
 11
-55.2938
 21
79.3148
  0
LINE
  8
0
 10
-55.2938
 20
79.3148
 11
-55.3049
 21
79.3415
  0
LINE
  8
0
 10
-55.3049
 20
79.3415
 11
-55.3153
 21
79.3686
  0
LINE
  8
0
 10
-55.3153
 20
79.3686
 11
-55.3253
 21
79.3964
  0
LINE
  8
0
 10
-55.3253
 20
79.3964
 11
-55.3345
 21
79.4244
  0
LINE
  8
0
 10
-55.3345
 20
79.4244
 11
-55.3429
 21
79.4518
  0
LINE
  8
0
 10
-55.3429
 20
79.4518
 11
-55.3507
 21
79.4802
  0
LINE
  8
0
 10
-55.3507
 20
79.4802
 11
-55.3578
 21
79.5085
  0
LINE
  8
0
 10
-55.3578
 20
79.5085
 11
-55.3643
 21
79.5375
  0
LINE
  8
0
 10
-55.3643
 20
79.5375
 11
-55.3698
 21
79.5652
  0
LINE
  8
0
 10
-55.3698
 20
79.5652
 11
-55.375
 21
79.5948
  0
LINE
  8
0
 10
-55.375
 20
79.5948
 11
-55.3792
 21
79.6231
  0
LINE
  8
0
 10
-55.3792
 20
79.6231
 11
-55.3828
 21
79.6528
  0
LINE
  8
0
 10
-55.3828
 20
79.6528
 11
-55.3856
 21
79.6811
  0
LINE
  8
0
 10
-55.3856
 20
79.6811
 11
-55.3878
 21
79.7105
  0
LINE
  8
0
 10
-55.3878
 20
79.7105
 11
-55.3892
 21
79.7399
  0
LINE
  8
0
 10
-55.3892
 20
79.7399
 11
-55.3901
 21
79.7756
  0
LINE
  8
0
 10
-55.3901
 20
79.7756
 11
-55.3903
 21
79.7912
  0
LINE
  8
0
 10
-55.3903
 20
79.7912
 11
-55.3903
 21
84.4023
  0
LINE
  8
0
 10
-55.3903
 20
84.4023
 11
-55.3917
 21
84.4608
  0
LINE
  8
0
 10
-55.3917
 20
84.4608
 11
-55.396
 21
84.519
  0
LINE
  8
0
 10
-55.396
 20
84.519
 11
-55.4032
 21
84.577
  0
LINE
  8
0
 10
-55.4032
 20
84.577
 11
-55.4132
 21
84.6346
  0
LINE
  8
0
 10
-55.4132
 20
84.6346
 11
-55.426
 21
84.6916
  0
LINE
  8
0
 10
-55.426
 20
84.6916
 11
-55.4416
 21
84.748
  0
LINE
  8
0
 10
-55.4416
 20
84.748
 11
-55.4599
 21
84.8034
  0
LINE
  8
0
 10
-55.4599
 20
84.8034
 11
-55.4809
 21
84.858
  0
LINE
  8
0
 10
-55.4809
 20
84.858
 11
-55.5046
 21
84.9114
  0
LINE
  8
0
 10
-55.5046
 20
84.9114
 11
-55.5309
 21
84.9636
  0
LINE
  8
0
 10
-55.5309
 20
84.9636
 11
-55.5597
 21
85.0144
  0
LINE
  8
0
 10
-55.5597
 20
85.0144
 11
-55.591
 21
85.0638
  0
LINE
  8
0
 10
-55.591
 20
85.0638
 11
-55.6246
 21
85.1116
  0
LINE
  8
0
 10
-55.6246
 20
85.1116
 11
-55.6606
 21
85.1577
  0
LINE
  8
0
 10
-55.6606
 20
85.1577
 11
-55.6987
 21
85.2019
  0
LINE
  8
0
 10
-55.6987
 20
85.2019
 11
-55.739
 21
85.2442
  0
LINE
  8
0
 10
-55.739
 20
85.2442
 11
-55.7814
 21
85.2845
  0
LINE
  8
0
 10
-55.7814
 20
85.2845
 11
-55.8256
 21
85.3227
  0
LINE
  8
0
 10
-55.8256
 20
85.3227
 11
-55.8717
 21
85.3586
  0
LINE
  8
0
 10
-55.8717
 20
85.3586
 11
-55.9195
 21
85.3923
  0
LINE
  8
0
 10
-55.9195
 20
85.3923
 11
-55.9688
 21
85.4236
  0
LINE
  8
0
 10
-55.9688
 20
85.4236
 11
-56.0197
 21
85.4524
  0
LINE
  8
0
 10
-56.0197
 20
85.4524
 11
-56.0719
 21
85.4786
  0
LINE
  8
0
 10
-56.0719
 20
85.4786
 11
-56.1253
 21
85.5023
  0
LINE
  8
0
 10
-56.1253
 20
85.5023
 11
-56.1798
 21
85.5234
  0
LINE
  8
0
 10
-56.1798
 20
85.5234
 11
-56.2353
 21
85.5417
  0
LINE
  8
0
 10
-56.2353
 20
85.5417
 11
-56.2916
 21
85.5573
  0
LINE
  8
0
 10
-56.2916
 20
85.5573
 11
-56.3486
 21
85.5701
  0
LINE
  8
0
 10
-56.3486
 20
85.5701
 11
-56.4062
 21
85.5801
  0
LINE
  8
0
 10
-56.4062
 20
85.5801
 11
-56.4642
 21
85.5872
  0
LINE
  8
0
 10
-56.4642
 20
85.5872
 11
-56.5225
 21
85.5915
  0
LINE
  8
0
 10
-56.5225
 20
85.5915
 11
-56.5809
 21
85.593
  0
LINE
  8
0
 10
-56.5809
 20
85.593
 11
-93.1997
 21
85.593
  0
LINE
  8
0
 10
-93.1997
 20
85.593
 11
-93.2581
 21
85.5915
  0
LINE
  8
0
 10
-93.2581
 20
85.5915
 11
-93.3164
 21
85.5872
  0
LINE
  8
0
 10
-93.3164
 20
85.5872
 11
-93.3744
 21
85.5801
  0
LINE
  8
0
 10
-93.3744
 20
85.5801
 11
-93.432
 21
85.5701
  0
LINE
  8
0
 10
-93.432
 20
85.5701
 11
-93.489
 21
85.5573
  0
LINE
  8
0
 10
-93.489
 20
85.5573
 11
-93.5453
 21
85.5417
  0
LINE
  8
0
 10
-93.5453
 20
85.5417
 11
-93.6008
 21
85.5234
  0
LINE
  8
0
 10
-93.6008
 20
85.5234
 11
-93.6553
 21
85.5023
  0
LINE
  8
0
 10
-93.6553
 20
85.5023
 11
-93.7087
 21
85.4786
  0
LINE
  8
0
 10
-93.7087
 20
85.4786
 11
-93.7609
 21
85.4524
  0
LINE
  8
0
 10
-93.7609
 20
85.4524
 11
-93.8118
 21
85.4236
  0
LINE
  8
0
 10
-93.8118
 20
85.4236
 11
-93.8611
 21
85.3923
  0
LINE
  8
0
 10
-93.8611
 20
85.3923
 11
-93.9089
 21
85.3586
  0
LINE
  8
0
 10
-93.9089
 20
85.3586
 11
-93.955
 21
85.3227
  0
LINE
  8
0
 10
-93.955
 20
85.3227
 11
-93.9993
 21
85.2845
  0
LINE
  8
0
 10
-93.9993
 20
85.2845
 11
-94.0416
 21
85.2442
  0
LINE
  8
0
 10
-94.0416
 20
85.2442
 11
-94.0819
 21
85.2019
  0
LINE
  8
0
 10
-94.0819
 20
85.2019
 11
-94.12
 21
85.1577
  0
LINE
  8
0
 10
-94.12
 20
85.1577
 11
-94.156
 21
85.1116
  0
LINE
  8
0
 10
-94.156
 20
85.1116
 11
-94.1897
 21
85.0638
  0
LINE
  8
0
 10
-94.1897
 20
85.0638
 11
-94.2209
 21
85.0144
  0
LINE
  8
0
 10
-94.2209
 20
85.0144
 11
-94.2497
 21
84.9636
  0
LINE
  8
0
 10
-94.2497
 20
84.9636
 11
-94.276
 21
84.9114
  0
LINE
  8
0
 10
-94.276
 20
84.9114
 11
-94.2997
 21
84.858
  0
LINE
  8
0
 10
-94.2997
 20
84.858
 11
-94.3207
 21
84.8034
  0
LINE
  8
0
 10
-94.3207
 20
84.8034
 11
-94.339
 21
84.748
  0
LINE
  8
0
 10
-94.339
 20
84.748
 11
-94.3546
 21
84.6916
  0
LINE
  8
0
 10
-94.3546
 20
84.6916
 11
-94.3674
 21
84.6346
  0
LINE
  8
0
 10
-94.3674
 20
84.6346
 11
-94.3774
 21
84.577
  0
LINE
  8
0
 10
-94.3774
 20
84.577
 11
-94.3846
 21
84.519
  0
LINE
  8
0
 10
-94.3846
 20
84.519
 11
-94.3889
 21
84.4608
  0
LINE
  8
0
 10
-94.3889
 20
84.4608
 11
-94.3903
 21
84.4023
  0
LINE
  8
0
 10
-94.3903
 20
84.4023
 11
-94.3903
 21
79.7912
  0
LINE
  8
0
 10
-94.3903
 20
79.7912
 11
-94.3905
 21
79.7756
  0
LINE
  8
0
 10
-94.3905
 20
79.7756
 11
-94.3914
 21
79.7399
  0
LINE
  8
0
 10
-94.3914
 20
79.7399
 11
-94.3928
 21
79.7105
  0
LINE
  8
0
 10
-94.3928
 20
79.7105
 11
-94.395
 21
79.6811
  0
LINE
  8
0
 10
-94.395
 20
79.6811
 11
-94.3978
 21
79.6528
  0
LINE
  8
0
 10
-94.3978
 20
79.6528
 11
-94.4014
 21
79.6231
  0
LINE
  8
0
 10
-94.4014
 20
79.6231
 11
-94.4056
 21
79.5948
  0
LINE
  8
0
 10
-94.4056
 20
79.5948
 11
-94.4108
 21
79.5652
  0
LINE
  8
0
 10
-94.4108
 20
79.5652
 11
-94.4163
 21
79.5375
  0
LINE
  8
0
 10
-94.4163
 20
79.5375
 11
-94.4228
 21
79.5085
  0
LINE
  8
0
 10
-94.4228
 20
79.5085
 11
-94.4299
 21
79.4802
  0
LINE
  8
0
 10
-94.4299
 20
79.4802
 11
-94.4377
 21
79.4518
  0
LINE
  8
0
 10
-94.4377
 20
79.4518
 11
-94.4461
 21
79.4244
  0
LINE
  8
0
 10
-94.4461
 20
79.4244
 11
-94.4553
 21
79.3964
  0
LINE
  8
0
 10
-94.4553
 20
79.3964
 11
-94.4653
 21
79.3686
  0
LINE
  8
0
 10
-94.4653
 20
79.3686
 11
-94.4757
 21
79.3415
  0
LINE
  8
0
 10
-94.4757
 20
79.3415
 11
-94.4868
 21
79.3148
  0
LINE
  8
0
 10
-94.4868
 20
79.3148
 11
-94.4986
 21
79.288
  0
LINE
  8
0
 10
-94.4986
 20
79.288
 11
-94.5112
 21
79.2614
  0
LINE
  8
0
 10
-94.5112
 20
79.2614
 11
-94.5244
 21
79.2353
  0
LINE
  8
0
 10
-94.5244
 20
79.2353
 11
-94.538
 21
79.2098
  0
LINE
  8
0
 10
-94.538
 20
79.2098
 11
-94.5525
 21
79.1841
  0
LINE
  8
0
 10
-94.5525
 20
79.1841
 11
-94.5675
 21
79.1592
  0
LINE
  8
0
 10
-94.5675
 20
79.1592
 11
-94.5833
 21
79.1341
  0
LINE
  8
0
 10
-94.5833
 20
79.1341
 11
-94.5993
 21
79.1103
  0
LINE
  8
0
 10
-94.5993
 20
79.1103
 11
-94.6163
 21
79.0862
  0
LINE
  8
0
 10
-94.6163
 20
79.0862
 11
-94.6335
 21
79.0629
  0
LINE
  8
0
 10
-94.6335
 20
79.0629
 11
-94.6517
 21
79.0396
  0
LINE
  8
0
 10
-94.6517
 20
79.0396
 11
-94.6698
 21
79.0175
  0
LINE
  8
0
 10
-94.6698
 20
79.0175
 11
-94.6892
 21
78.9951
  0
LINE
  8
0
 10
-94.6892
 20
78.9951
 11
-94.7089
 21
78.9733
  0
LINE
  8
0
 10
-94.7089
 20
78.9733
 11
-94.7287
 21
78.9525
  0
LINE
  8
0
 10
-94.7287
 20
78.9525
 11
-94.7498
 21
78.9314
  0
LINE
  8
0
 10
-94.7498
 20
78.9314
 11
-94.7707
 21
78.9115
  0
LINE
  8
0
 10
-94.7707
 20
78.9115
 11
-94.7924
 21
78.8918
  0
LINE
  8
0
 10
-94.7924
 20
78.8918
 11
-94.8148
 21
78.8725
  0
LINE
  8
0
 10
-94.8148
 20
78.8725
 11
-94.837
 21
78.8544
  0
LINE
  8
0
 10
-94.837
 20
78.8544
 11
-94.8602
 21
78.8362
  0
LINE
  8
0
 10
-94.8602
 20
78.8362
 11
-94.8836
 21
78.8189
  0
LINE
  8
0
 10
-94.8836
 20
78.8189
 11
-94.9077
 21
78.8019
  0
LINE
  8
0
 10
-94.9077
 20
78.8019
 11
-94.9315
 21
78.786
  0
LINE
  8
0
 10
-94.9315
 20
78.786
 11
-94.9565
 21
78.7701
  0
LINE
  8
0
 10
-94.9565
 20
78.7701
 11
-94.9815
 21
78.7552
  0
LINE
  8
0
 10
-94.9815
 20
78.7552
 11
-95.0071
 21
78.7406
  0
LINE
  8
0
 10
-95.0071
 20
78.7406
 11
-95.0327
 21
78.727
  0
LINE
  8
0
 10
-95.0327
 20
78.727
 11
-95.0587
 21
78.7139
  0
LINE
  8
0
 10
-95.0587
 20
78.7139
 11
-95.0853
 21
78.7013
  0
LINE
  8
0
 10
-95.0853
 20
78.7013
 11
-95.1121
 21
78.6895
  0
LINE
  8
0
 10
-95.1121
 20
78.6895
 11
-95.1388
 21
78.6784
  0
LINE
  8
0
 10
-95.1388
 20
78.6784
 11
-95.1659
 21
78.6679
  0
LINE
  8
0
 10
-95.1659
 20
78.6679
 11
-95.1938
 21
78.6579
  0
LINE
  8
0
 10
-95.1938
 20
78.6579
 11
-95.2217
 21
78.6487
  0
LINE
  8
0
 10
-95.2217
 20
78.6487
 11
-95.2492
 21
78.6404
  0
LINE
  8
0
 10
-95.2492
 20
78.6404
 11
-95.2775
 21
78.6326
  0
LINE
  8
0
 10
-95.2775
 20
78.6326
 11
-95.3059
 21
78.6255
  0
LINE
  8
0
 10
-95.3059
 20
78.6255
 11
-95.3349
 21
78.6189
  0
LINE
  8
0
 10
-95.3349
 20
78.6189
 11
-95.3625
 21
78.6134
  0
LINE
  8
0
 10
-95.3625
 20
78.6134
 11
-95.3921
 21
78.6083
  0
LINE
  8
0
 10
-95.3921
 20
78.6083
 11
-95.4205
 21
78.6041
  0
LINE
  8
0
 10
-95.4205
 20
78.6041
 11
-95.4502
 21
78.6004
  0
LINE
  8
0
 10
-95.4502
 20
78.6004
 11
-95.4785
 21
78.5976
  0
LINE
  8
0
 10
-95.4785
 20
78.5976
 11
-95.5079
 21
78.5955
  0
LINE
  8
0
 10
-95.5079
 20
78.5955
 11
-95.5373
 21
78.594
  0
LINE
  8
0
 10
-95.5373
 20
78.594
 11
-95.573
 21
78.5932
  0
LINE
  8
0
 10
-95.573
 20
78.5932
 11
-95.5885
 21
78.593
  0
LINE
  8
0
 10
-95.5885
 20
78.593
 11
-129.082
 21
78.593
  0
LINE
  8
0
 10
-129.082
 20
78.593
 11
-129.098
 21
78.5932
  0
LINE
  8
0
 10
-129.098
 20
78.5932
 11
-129.134
 21
78.594
  0
LINE
  8
0
 10
-129.134
 20
78.594
 11
-129.163
 21
78.5955
  0
LINE
  8
0
 10
-129.163
 20
78.5955
 11
-129.192
 21
78.5976
  0
LINE
  8
0
 10
-129.192
 20
78.5976
 11
-129.221
 21
78.6004
  0
LINE
  8
0
 10
-129.221
 20
78.6004
 11
-129.25
 21
78.6041
  0
LINE
  8
0
 10
-129.25
 20
78.6041
 11
-129.279
 21
78.6083
  0
LINE
  8
0
 10
-129.279
 20
78.6083
 11
-129.308
 21
78.6134
  0
LINE
  8
0
 10
-129.308
 20
78.6134
 11
-129.336
 21
78.6189
  0
LINE
  8
0
 10
-129.336
 20
78.6189
 11
-129.365
 21
78.6255
  0
LINE
  8
0
 10
-129.365
 20
78.6255
 11
-129.393
 21
78.6326
  0
LINE
  8
0
 10
-129.393
 20
78.6326
 11
-129.422
 21
78.6404
  0
LINE
  8
0
 10
-129.422
 20
78.6404
 11
-129.449
 21
78.6487
  0
LINE
  8
0
 10
-129.449
 20
78.6487
 11
-129.477
 21
78.6579
  0
LINE
  8
0
 10
-129.477
 20
78.6579
 11
-129.505
 21
78.6679
  0
LINE
  8
0
 10
-129.505
 20
78.6679
 11
-129.532
 21
78.6784
  0
LINE
  8
0
 10
-129.532
 20
78.6784
 11
-129.559
 21
78.6895
  0
LINE
  8
0
 10
-129.559
 20
78.6895
 11
-129.586
 21
78.7013
  0
LINE
  8
0
 10
-129.586
 20
78.7013
 11
-129.612
 21
78.7139
  0
LINE
  8
0
 10
-129.612
 20
78.7139
 11
-129.638
 21
78.727
  0
LINE
  8
0
 10
-129.638
 20
78.727
 11
-129.664
 21
78.7406
  0
LINE
  8
0
 10
-129.664
 20
78.7406
 11
-129.689
 21
78.7552
  0
LINE
  8
0
 10
-129.689
 20
78.7552
 11
-129.714
 21
78.7701
  0
LINE
  8
0
 10
-129.714
 20
78.7701
 11
-129.739
 21
78.786
  0
LINE
  8
0
 10
-129.739
 20
78.786
 11
-129.763
 21
78.8019
  0
LINE
  8
0
 10
-129.763
 20
78.8019
 11
-129.787
 21
78.8189
  0
LINE
  8
0
 10
-129.787
 20
78.8189
 11
-129.811
 21
78.8362
  0
LINE
  8
0
 10
-129.811
 20
78.8362
 11
-129.834
 21
78.8544
  0
LINE
  8
0
 10
-129.834
 20
78.8544
 11
-129.856
 21
78.8725
  0
LINE
  8
0
 10
-129.856
 20
78.8725
 11
-129.879
 21
78.8918
  0
LINE
  8
0
 10
-129.879
 20
78.8918
 11
-129.9
 21
78.9115
  0
LINE
  8
0
 10
-129.9
 20
78.9115
 11
-129.921
 21
78.9314
  0
LINE
  8
0
 10
-129.921
 20
78.9314
 11
-129.942
 21
78.9525
  0
LINE
  8
0
 10
-129.942
 20
78.9525
 11
-129.962
 21
78.9733
  0
LINE
  8
0
 10
-129.962
 20
78.9733
 11
-129.982
 21
78.9951
  0
LINE
  8
0
 10
-129.982
 20
78.9951
 11
-130.001
 21
79.0175
  0
LINE
  8
0
 10
-130.001
 20
79.0175
 11
-130.019
 21
79.0396
  0
LINE
  8
0
 10
-130.019
 20
79.0396
 11
-130.037
 21
79.0629
  0
LINE
  8
0
 10
-130.037
 20
79.0629
 11
-130.055
 21
79.0862
  0
LINE
  8
0
 10
-130.055
 20
79.0862
 11
-130.072
 21
79.1103
  0
LINE
  8
0
 10
-130.072
 20
79.1103
 11
-130.088
 21
79.1341
  0
LINE
  8
0
 10
-130.088
 20
79.1341
 11
-130.103
 21
79.1592
  0
LINE
  8
0
 10
-130.103
 20
79.1592
 11
-130.118
 21
79.1841
  0
LINE
  8
0
 10
-130.118
 20
79.1841
 11
-130.133
 21
79.2098
  0
LINE
  8
0
 10
-130.133
 20
79.2098
 11
-130.147
 21
79.2353
  0
LINE
  8
0
 10
-130.147
 20
79.2353
 11
-130.16
 21
79.2614
  0
LINE
  8
0
 10
-130.16
 20
79.2614
 11
-130.172
 21
79.288
  0
LINE
  8
0
 10
-130.172
 20
79.288
 11
-130.184
 21
79.3148
  0
LINE
  8
0
 10
-130.184
 20
79.3148
 11
-130.195
 21
79.3415
  0
LINE
  8
0
 10
-130.195
 20
79.3415
 11
-130.206
 21
79.3686
  0
LINE
  8
0
 10
-130.206
 20
79.3686
 11
-130.216
 21
79.3964
  0
LINE
  8
0
 10
-130.216
 20
79.3964
 11
-130.225
 21
79.4244
  0
LINE
  8
0
 10
-130.225
 20
79.4244
 11
-130.233
 21
79.4518
  0
LINE
  8
0
 10
-130.233
 20
79.4518
 11
-130.241
 21
79.4802
  0
LINE
  8
0
 10
-130.241
 20
79.4802
 11
-130.248
 21
79.5085
  0
LINE
  8
0
 10
-130.248
 20
79.5085
 11
-130.255
 21
79.5375
  0
LINE
  8
0
 10
-130.255
 20
79.5375
 11
-130.26
 21
79.5652
  0
LINE
  8
0
 10
-130.26
 20
79.5652
 11
-130.265
 21
79.5948
  0
LINE
  8
0
 10
-130.265
 20
79.5948
 11
-130.269
 21
79.6231
  0
LINE
  8
0
 10
-130.269
 20
79.6231
 11
-130.273
 21
79.6528
  0
LINE
  8
0
 10
-130.273
 20
79.6528
 11
-130.276
 21
79.6811
  0
LINE
  8
0
 10
-130.276
 20
79.6811
 11
-130.278
 21
79.7105
  0
LINE
  8
0
 10
-130.278
 20
79.7105
 11
-130.28
 21
79.7399
  0
LINE
  8
0
 10
-130.28
 20
79.7399
 11
-130.28
 21
79.7756
  0
LINE
  8
0
 10
-130.28
 20
79.7756
 11
-130.281
 21
79.7912
  0
LINE
  8
0
 10
-130.281
 20
79.7912
 11
-130.281
 21
84.4023
  0
LINE
  8
0
 10
-130.281
 20
84.4023
 11
-130.282
 21
84.4608
  0
LINE
  8
0
 10
-130.282
 20
84.4608
 11
-130.286
 21
84.519
  0
LINE
  8
0
 10
-130.286
 20
84.519
 11
-130.294
 21
84.577
  0
LINE
  8
0
 10
-130.294
 20
84.577
 11
-130.304
 21
84.6346
  0
LINE
  8
0
 10
-130.304
 20
84.6346
 11
-130.316
 21
84.6916
  0
LINE
  8
0
 10
-130.316
 20
84.6916
 11
-130.332
 21
84.748
  0
LINE
  8
0
 10
-130.332
 20
84.748
 11
-130.35
 21
84.8034
  0
LINE
  8
0
 10
-130.35
 20
84.8034
 11
-130.371
 21
84.858
  0
LINE
  8
0
 10
-130.371
 20
84.858
 11
-130.395
 21
84.9114
  0
LINE
  8
0
 10
-130.395
 20
84.9114
 11
-130.421
 21
84.9636
  0
LINE
  8
0
 10
-130.421
 20
84.9636
 11
-130.45
 21
85.0144
  0
LINE
  8
0
 10
-130.45
 20
85.0144
 11
-130.481
 21
85.0638
  0
LINE
  8
0
 10
-130.481
 20
85.0638
 11
-130.515
 21
85.1116
  0
LINE
  8
0
 10
-130.515
 20
85.1116
 11
-130.551
 21
85.1577
  0
LINE
  8
0
 10
-130.551
 20
85.1577
 11
-130.589
 21
85.2019
  0
LINE
  8
0
 10
-130.589
 20
85.2019
 11
-130.629
 21
85.2442
  0
LINE
  8
0
 10
-130.629
 20
85.2442
 11
-130.672
 21
85.2845
  0
LINE
  8
0
 10
-130.672
 20
85.2845
 11
-130.716
 21
85.3227
  0
LINE
  8
0
 10
-130.716
 20
85.3227
 11
-130.762
 21
85.3586
  0
LINE
  8
0
 10
-130.762
 20
85.3586
 11
-130.81
 21
85.3923
  0
LINE
  8
0
 10
-130.81
 20
85.3923
 11
-130.859
 21
85.4236
  0
LINE
  8
0
 10
-130.859
 20
85.4236
 11
-130.91
 21
85.4524
  0
LINE
  8
0
 10
-130.91
 20
85.4524
 11
-130.962
 21
85.4786
  0
LINE
  8
0
 10
-130.962
 20
85.4786
 11
-131.016
 21
85.5023
  0
LINE
  8
0
 10
-131.016
 20
85.5023
 11
-131.07
 21
85.5234
  0
LINE
  8
0
 10
-131.07
 20
85.5234
 11
-131.126
 21
85.5417
  0
LINE
  8
0
 10
-131.126
 20
85.5417
 11
-131.182
 21
85.5573
  0
LINE
  8
0
 10
-131.182
 20
85.5573
 11
-131.239
 21
85.5701
  0
LINE
  8
0
 10
-131.239
 20
85.5701
 11
-131.297
 21
85.5801
  0
LINE
  8
0
 10
-131.297
 20
85.5801
 11
-131.355
 21
85.5872
  0
LINE
  8
0
 10
-131.355
 20
85.5872
 11
-131.413
 21
85.5915
  0
LINE
  8
0
 10
-131.413
 20
85.5915
 11
-131.471
 21
85.593
  0
LINE
  8
0
 10
-131.471
 20
85.593
 11
-168.09
 21
85.593
  0
LINE
  8
0
 10
-168.09
 20
85.593
 11
-168.148
 21
85.5915
  0
LINE
  8
0
 10
-168.148
 20
85.5915
 11
-168.207
 21
85.5872
  0
LINE
  8
0
 10
-168.207
 20
85.5872
 11
-168.265
 21
85.5801
  0
LINE
  8
0
 10
-168.265
 20
85.5801
 11
-168.322
 21
85.5701
  0
LINE
  8
0
 10
-168.322
 20
85.5701
 11
-168.379
 21
85.5573
  0
LINE
  8
0
 10
-168.379
 20
85.5573
 11
-168.436
 21
85.5417
  0
LINE
  8
0
 10
-168.436
 20
85.5417
 11
-168.491
 21
85.5234
  0
LINE
  8
0
 10
-168.491
 20
85.5234
 11
-168.546
 21
85.5023
  0
LINE
  8
0
 10
-168.546
 20
85.5023
 11
-168.599
 21
85.4786
  0
LINE
  8
0
 10
-168.599
 20
85.4786
 11
-168.651
 21
85.4524
  0
LINE
  8
0
 10
-168.651
 20
85.4524
 11
-168.702
 21
85.4236
  0
LINE
  8
0
 10
-168.702
 20
85.4236
 11
-168.751
 21
85.3923
  0
LINE
  8
0
 10
-168.751
 20
85.3923
 11
-168.799
 21
85.3586
  0
LINE
  8
0
 10
-168.799
 20
85.3586
 11
-168.845
 21
85.3227
  0
LINE
  8
0
 10
-168.845
 20
85.3227
 11
-168.89
 21
85.2845
  0
LINE
  8
0
 10
-168.89
 20
85.2845
 11
-168.932
 21
85.2442
  0
LINE
  8
0
 10
-168.932
 20
85.2442
 11
-168.972
 21
85.2019
  0
LINE
  8
0
 10
-168.972
 20
85.2019
 11
-169.01
 21
85.1577
  0
LINE
  8
0
 10
-169.01
 20
85.1577
 11
-169.046
 21
85.1116
  0
LINE
  8
0
 10
-169.046
 20
85.1116
 11
-169.08
 21
85.0638
  0
LINE
  8
0
 10
-169.08
 20
85.0638
 11
-169.111
 21
85.0144
  0
LINE
  8
0
 10
-169.111
 20
85.0144
 11
-169.14
 21
84.9636
  0
LINE
  8
0
 10
-169.14
 20
84.9636
 11
-169.166
 21
84.9114
  0
LINE
  8
0
 10
-169.166
 20
84.9114
 11
-169.19
 21
84.858
  0
LINE
  8
0
 10
-169.19
 20
84.858
 11
-169.211
 21
84.8034
  0
LINE
  8
0
 10
-169.211
 20
84.8034
 11
-169.229
 21
84.748
  0
LINE
  8
0
 10
-169.229
 20
84.748
 11
-169.245
 21
84.6916
  0
LINE
  8
0
 10
-169.245
 20
84.6916
 11
-169.258
 21
84.6346
  0
LINE
  8
0
 10
-169.258
 20
84.6346
 11
-169.268
 21
84.577
  0
LINE
  8
0
 10
-169.268
 20
84.577
 11
-169.275
 21
84.519
  0
LINE
  8
0
 10
-169.275
 20
84.519
 11
-169.279
 21
84.4608
  0
LINE
  8
0
 10
-169.279
 20
84.4608
 11
-169.281
 21
84.4023
  0
LINE
  8
0
 10
-169.281
 20
84.4023
 11
-169.281
 21
79.7912
  0
LINE
  8
0
 10
-169.281
 20
79.7912
 11
-169.281
 21
79.7756
  0
LINE
  8
0
 10
-169.281
 20
79.7756
 11
-169.282
 21
79.7399
  0
LINE
  8
0
 10
-169.282
 20
79.7399
 11
-169.283
 21
79.7105
  0
LINE
  8
0
 10
-169.283
 20
79.7105
 11
-169.285
 21
79.6811
  0
LINE
  8
0
 10
-169.285
 20
79.6811
 11
-169.288
 21
79.6528
  0
LINE
  8
0
 10
-169.288
 20
79.6528
 11
-169.292
 21
79.6231
  0
LINE
  8
0
 10
-169.292
 20
79.6231
 11
-169.296
 21
79.5948
  0
LINE
  8
0
 10
-169.296
 20
79.5948
 11
-169.301
 21
79.5652
  0
LINE
  8
0
 10
-169.301
 20
79.5652
 11
-169.307
 21
79.5375
  0
LINE
  8
0
 10
-169.307
 20
79.5375
 11
-169.313
 21
79.5085
  0
LINE
  8
0
 10
-169.313
 20
79.5085
 11
-169.32
 21
79.4802
  0
LINE
  8
0
 10
-169.32
 20
79.4802
 11
-169.328
 21
79.4518
  0
LINE
  8
0
 10
-169.328
 20
79.4518
 11
-169.336
 21
79.4244
  0
LINE
  8
0
 10
-169.336
 20
79.4244
 11
-169.346
 21
79.3964
  0
LINE
  8
0
 10
-169.346
 20
79.3964
 11
-169.356
 21
79.3686
  0
LINE
  8
0
 10
-169.356
 20
79.3686
 11
-169.366
 21
79.3415
  0
LINE
  8
0
 10
-169.366
 20
79.3415
 11
-169.377
 21
79.3148
  0
LINE
  8
0
 10
-169.377
 20
79.3148
 11
-169.389
 21
79.288
  0
LINE
  8
0
 10
-169.389
 20
79.288
 11
-169.402
 21
79.2614
  0
LINE
  8
0
 10
-169.402
 20
79.2614
 11
-169.415
 21
79.2353
  0
LINE
  8
0
 10
-169.415
 20
79.2353
 11
-169.428
 21
79.2098
  0
LINE
  8
0
 10
-169.428
 20
79.2098
 11
-169.443
 21
79.1841
  0
LINE
  8
0
 10
-169.443
 20
79.1841
 11
-169.458
 21
79.1592
  0
LINE
  8
0
 10
-169.458
 20
79.1592
 11
-169.474
 21
79.1341
  0
LINE
  8
0
 10
-169.474
 20
79.1341
 11
-169.49
 21
79.1103
  0
LINE
  8
0
 10
-169.49
 20
79.1103
 11
-169.507
 21
79.0862
  0
LINE
  8
0
 10
-169.507
 20
79.0862
 11
-169.524
 21
79.0629
  0
LINE
  8
0
 10
-169.524
 20
79.0629
 11
-169.542
 21
79.0396
  0
LINE
  8
0
 10
-169.542
 20
79.0396
 11
-169.56
 21
79.0175
  0
LINE
  8
0
 10
-169.56
 20
79.0175
 11
-169.58
 21
78.9951
  0
LINE
  8
0
 10
-169.58
 20
78.9951
 11
-169.599
 21
78.9733
  0
LINE
  8
0
 10
-169.599
 20
78.9733
 11
-169.619
 21
78.9525
  0
LINE
  8
0
 10
-169.619
 20
78.9525
 11
-169.64
 21
78.9314
  0
LINE
  8
0
 10
-169.64
 20
78.9314
 11
-169.661
 21
78.9115
  0
LINE
  8
0
 10
-169.661
 20
78.9115
 11
-169.683
 21
78.8918
  0
LINE
  8
0
 10
-169.683
 20
78.8918
 11
-169.705
 21
78.8725
  0
LINE
  8
0
 10
-169.705
 20
78.8725
 11
-169.727
 21
78.8544
  0
LINE
  8
0
 10
-169.727
 20
78.8544
 11
-169.751
 21
78.8362
  0
LINE
  8
0
 10
-169.751
 20
78.8362
 11
-169.774
 21
78.8189
  0
LINE
  8
0
 10
-169.774
 20
78.8189
 11
-169.798
 21
78.8019
  0
LINE
  8
0
 10
-169.798
 20
78.8019
 11
-169.822
 21
78.786
  0
LINE
  8
0
 10
-169.822
 20
78.786
 11
-169.847
 21
78.7701
  0
LINE
  8
0
 10
-169.847
 20
78.7701
 11
-169.872
 21
78.7552
  0
LINE
  8
0
 10
-169.872
 20
78.7552
 11
-169.897
 21
78.7406
  0
LINE
  8
0
 10
-169.897
 20
78.7406
 11
-169.923
 21
78.727
  0
LINE
  8
0
 10
-169.923
 20
78.727
 11
-169.949
 21
78.7139
  0
LINE
  8
0
 10
-169.949
 20
78.7139
 11
-169.976
 21
78.7013
  0
LINE
  8
0
 10
-169.976
 20
78.7013
 11
-170.002
 21
78.6895
  0
LINE
  8
0
 10
-170.002
 20
78.6895
 11
-170.029
 21
78.6784
  0
LINE
  8
0
 10
-170.029
 20
78.6784
 11
-170.056
 21
78.6679
  0
LINE
  8
0
 10
-170.056
 20
78.6679
 11
-170.084
 21
78.6579
  0
LINE
  8
0
 10
-170.084
 20
78.6579
 11
-170.112
 21
78.6487
  0
LINE
  8
0
 10
-170.112
 20
78.6487
 11
-170.139
 21
78.6404
  0
LINE
  8
0
 10
-170.139
 20
78.6404
 11
-170.168
 21
78.6326
  0
LINE
  8
0
 10
-170.168
 20
78.6326
 11
-170.196
 21
78.6255
  0
LINE
  8
0
 10
-170.196
 20
78.6255
 11
-170.225
 21
78.6189
  0
LINE
  8
0
 10
-170.225
 20
78.6189
 11
-170.253
 21
78.6134
  0
LINE
  8
0
 10
-170.253
 20
78.6134
 11
-170.282
 21
78.6083
  0
LINE
  8
0
 10
-170.282
 20
78.6083
 11
-170.311
 21
78.6041
  0
LINE
  8
0
 10
-170.311
 20
78.6041
 11
-170.34
 21
78.6004
  0
LINE
  8
0
 10
-170.34
 20
78.6004
 11
-170.369
 21
78.5976
  0
LINE
  8
0
 10
-170.369
 20
78.5976
 11
-170.398
 21
78.5955
  0
LINE
  8
0
 10
-170.398
 20
78.5955
 11
-170.428
 21
78.594
  0
LINE
  8
0
 10
-170.428
 20
78.594
 11
-170.463
 21
78.5932
  0
LINE
  8
0
 10
-170.463
 20
78.5932
 11
-170.479
 21
78.593
  0
LINE
  8
0
 10
-170.479
 20
78.593
 11
-187.535
 21
78.593
  0
LINE
  8
0
 10
-187.535
 20
78.593
 11
-187.594
 21
78.5915
  0
LINE
  8
0
 10
-187.594
 20
78.5915
 11
-187.652
 21
78.5872
  0
LINE
  8
0
 10
-187.652
 20
78.5872
 11
-187.71
 21
78.5801
  0
LINE
  8
0
 10
-187.71
 20
78.5801
 11
-187.767
 21
78.5701
  0
LINE
  8
0
 10
-187.767
 20
78.5701
 11
-187.824
 21
78.5573
  0
LINE
  8
0
 10
-187.824
 20
78.5573
 11
-187.881
 21
78.5417
  0
LINE
  8
0
 10
-187.881
 20
78.5417
 11
-187.936
 21
78.5234
  0
LINE
  8
0
 10
-187.936
 20
78.5234
 11
-187.991
 21
78.5023
  0
LINE
  8
0
 10
-187.991
 20
78.5023
 11
-188.044
 21
78.4786
  0
LINE
  8
0
 10
-188.044
 20
78.4786
 11
-188.096
 21
78.4524
  0
LINE
  8
0
 10
-188.096
 20
78.4524
 11
-188.147
 21
78.4236
  0
LINE
  8
0
 10
-188.147
 20
78.4236
 11
-188.197
 21
78.3923
  0
LINE
  8
0
 10
-188.197
 20
78.3923
 11
-188.244
 21
78.3586
  0
LINE
  8
0
 10
-188.244
 20
78.3586
 11
-188.29
 21
78.3227
  0
LINE
  8
0
 10
-188.29
 20
78.3227
 11
-188.335
 21
78.2845
  0
LINE
  8
0
 10
-188.335
 20
78.2845
 11
-188.377
 21
78.2442
  0
LINE
  8
0
 10
-188.377
 20
78.2442
 11
-188.417
 21
78.2019
  0
LINE
  8
0
 10
-188.417
 20
78.2019
 11
-188.456
 21
78.1577
  0
LINE
  8
0
 10
-188.456
 20
78.1577
 11
-188.491
 21
78.1116
  0
LINE
  8
0
 10
-188.491
 20
78.1116
 11
-188.525
 21
78.0638
  0
LINE
  8
0
 10
-188.525
 20
78.0638
 11
-188.556
 21
78.0144
  0
LINE
  8
0
 10
-188.556
 20
78.0144
 11
-188.585
 21
77.9636
  0
LINE
  8
0
 10
-188.585
 20
77.9636
 11
-188.611
 21
77.9114
  0
LINE
  8
0
 10
-188.611
 20
77.9114
 11
-188.635
 21
77.858
  0
LINE
  8
0
 10
-188.635
 20
77.858
 11
-188.656
 21
77.8034
  0
LINE
  8
0
 10
-188.656
 20
77.8034
 11
-188.674
 21
77.748
  0
LINE
  8
0
 10
-188.674
 20
77.748
 11
-188.69
 21
77.6916
  0
LINE
  8
0
 10
-188.69
 20
77.6916
 11
-188.703
 21
77.6346
  0
LINE
  8
0
 10
-188.703
 20
77.6346
 11
-188.713
 21
77.577
  0
LINE
  8
0
 10
-188.713
 20
77.577
 11
-188.72
 21
77.519
  0
LINE
  8
0
 10
-188.72
 20
77.519
 11
-188.724
 21
77.4608
  0
LINE
  8
0
 10
-188.724
 20
77.4608
 11
-188.726
 21
77.4023
  0
LINE
  8
0
 10
-188.726
 20
77.4023
 11
-188.726
 21
-19.3594
  0
LINE
  8
0
 10
-188.726
 20
-19.3594
 11
-188.724
 21
-19.4178
  0
LINE
  8
0
 10
-188.724
 20
-19.4178
 11
-188.72
 21
-19.4761
  0
LINE
  8
0
 10
-188.72
 20
-19.4761
 11
-188.713
 21
-19.5341
  0
LINE
  8
0
 10
-188.713
 20
-19.5341
 11
-188.703
 21
-19.5916
  0
LINE
  8
0
 10
-188.703
 20
-19.5916
 11
-188.69
 21
-19.6487
  0
LINE
  8
0
 10
-188.69
 20
-19.6487
 11
-188.674
 21
-19.705
  0
LINE
  8
0
 10
-188.674
 20
-19.705
 11
-188.656
 21
-19.7605
  0
LINE
  8
0
 10
-188.656
 20
-19.7605
 11
-188.635
 21
-19.815
  0
LINE
  8
0
 10
-188.635
 20
-19.815
 11
-188.611
 21
-19.8684
  0
LINE
  8
0
 10
-188.611
 20
-19.8684
 11
-188.585
 21
-19.9206
  0
LINE
  8
0
 10
-188.585
 20
-19.9206
 11
-188.556
 21
-19.9715
  0
LINE
  8
0
 10
-188.556
 20
-19.9715
 11
-188.525
 21
-20.0208
  0
LINE
  8
0
 10
-188.525
 20
-20.0208
 11
-188.491
 21
-20.0686
  0
LINE
  8
0
 10
-188.491
 20
-20.0686
 11
-188.456
 21
-20.1147
  0
LINE
  8
0
 10
-188.456
 20
-20.1147
 11
-188.417
 21
-20.1589
  0
LINE
  8
0
 10
-188.417
 20
-20.1589
 11
-188.377
 21
-20.2013
  0
LINE
  8
0
 10
-188.377
 20
-20.2013
 11
-188.335
 21
-20.2416
  0
LINE
  8
0
 10
-188.335
 20
-20.2416
 11
-188.29
 21
-20.2797
  0
LINE
  8
0
 10
-188.29
 20
-20.2797
 11
-188.244
 21
-20.3157
  0
LINE
  8
0
 10
-188.244
 20
-20.3157
 11
-188.197
 21
-20.3493
  0
LINE
  8
0
 10
-188.197
 20
-20.3493
 11
-188.147
 21
-20.3806
  0
LINE
  8
0
 10
-188.147
 20
-20.3806
 11
-188.096
 21
-20.4094
  0
LINE
  8
0
 10
-188.096
 20
-20.4094
 11
-188.044
 21
-20.4357
  0
LINE
  8
0
 10
-188.044
 20
-20.4357
 11
-187.991
 21
-20.4594
  0
LINE
  8
0
 10
-187.991
 20
-20.4594
 11
-187.936
 21
-20.4804
  0
LINE
  8
0
 10
-187.936
 20
-20.4804
 11
-187.881
 21
-20.4987
  0
LINE
  8
0
 10
-187.881
 20
-20.4987
 11
-187.824
 21
-20.5143
  0
LINE
  8
0
 10
-187.824
 20
-20.5143
 11
-187.767
 21
-20.5271
  0
LINE
  8
0
 10
-187.767
 20
-20.5271
 11
-187.71
 21
-20.5371
  0
LINE
  8
0
 10
-187.71
 20
-20.5371
 11
-187.652
 21
-20.5443
  0
LINE
  8
0
 10
-187.652
 20
-20.5443
 11
-187.594
 21
-20.5486
  0
LINE
  8
0
 10
-187.594
 20
-20.5486
 11
-187.535
 21
-20.55
  0
LINE
  8
0
 10
-187.535
 20
-20.55
 11
-179.438
 21
-20.55
  0
LINE
  8
0
 10
-179.438
 20
-20.55
 11
-179.423
 21
-20.5502
  0
LINE
  8
0
 10
-179.423
 20
-20.5502
 11
-179.387
 21
-20.5511
  0
LINE
  8
0
 10
-179.387
 20
-20.5511
 11
-179.358
 21
-20.5525
  0
LINE
  8
0
 10
-179.358
 20
-20.5525
 11
-179.328
 21
-20.5547
  0
LINE
  8
0
 10
-179.328
 20
-20.5547
 11
-179.3
 21
-20.5575
  0
LINE
  8
0
 10
-179.3
 20
-20.5575
 11
-179.27
 21
-20.5611
  0
LINE
  8
0
 10
-179.27
 20
-20.5611
 11
-179.242
 21
-20.5653
  0
LINE
  8
0
 10
-179.242
 20
-20.5653
 11
-179.212
 21
-20.5705
  0
LINE
  8
0
 10
-179.212
 20
-20.5705
 11
-179.185
 21
-20.576
  0
LINE
  8
0
 10
-179.185
 20
-20.576
 11
-179.156
 21
-20.5825
  0
LINE
  8
0
 10
-179.156
 20
-20.5825
 11
-179.127
 21
-20.5896
  0
LINE
  8
0
 10
-179.127
 20
-20.5896
 11
-179.099
 21
-20.5974
  0
LINE
  8
0
 10
-179.099
 20
-20.5974
 11
-179.071
 21
-20.6057
  0
LINE
  8
0
 10
-179.071
 20
-20.6057
 11
-179.043
 21
-20.615
  0
LINE
  8
0
 10
-179.043
 20
-20.615
 11
-179.016
 21
-20.625
  0
LINE
  8
0
 10
-179.016
 20
-20.625
 11
-178.988
 21
-20.6354
  0
LINE
  8
0
 10
-178.988
 20
-20.6354
 11
-178.962
 21
-20.6465
  0
LINE
  8
0
 10
-178.962
 20
-20.6465
 11
-178.935
 21
-20.6583
  0
LINE
  8
0
 10
-178.935
 20
-20.6583
 11
-178.908
 21
-20.6709
  0
LINE
  8
0
 10
-178.908
 20
-20.6709
 11
-178.882
 21
-20.684
  0
LINE
  8
0
 10
-178.882
 20
-20.684
 11
-178.857
 21
-20.6977
  0
LINE
  8
0
 10
-178.857
 20
-20.6977
 11
-178.831
 21
-20.7122
  0
LINE
  8
0
 10
-178.831
 20
-20.7122
 11
-178.806
 21
-20.7272
  0
LINE
  8
0
 10
-178.806
 20
-20.7272
 11
-178.781
 21
-20.743
  0
LINE
  8
0
 10
-178.781
 20
-20.743
 11
-178.757
 21
-20.759
  0
LINE
  8
0
 10
-178.757
 20
-20.759
 11
-178.733
 21
-20.7759
  0
LINE
  8
0
 10
-178.733
 20
-20.7759
 11
-178.71
 21
-20.7932
  0
LINE
  8
0
 10
-178.71
 20
-20.7932
 11
-178.687
 21
-20.8114
  0
LINE
  8
0
 10
-178.687
 20
-20.8114
 11
-178.665
 21
-20.8295
  0
LINE
  8
0
 10
-178.665
 20
-20.8295
 11
-178.642
 21
-20.8489
  0
LINE
  8
0
 10
-178.642
 20
-20.8489
 11
-178.62
 21
-20.8686
  0
LINE
  8
0
 10
-178.62
 20
-20.8686
 11
-178.6
 21
-20.8884
  0
LINE
  8
0
 10
-178.6
 20
-20.8884
 11
-178.578
 21
-20.9095
  0
LINE
  8
0
 10
-178.578
 20
-20.9095
 11
-178.559
 21
-20.9304
  0
LINE
  8
0
 10
-178.559
 20
-20.9304
 11
-178.539
 21
-20.9521
  0
LINE
  8
0
 10
-178.539
 20
-20.9521
 11
-178.52
 21
-20.9745
  0
LINE
  8
0
 10
-178.52
 20
-20.9745
 11
-178.501
 21
-20.9966
  0
LINE
  8
0
 10
-178.501
 20
-20.9966
 11
-178.483
 21
-21.0199
  0
LINE
  8
0
 10
-178.483
 20
-21.0199
 11
-178.466
 21
-21.0432
  0
LINE
  8
0
 10
-178.466
 20
-21.0432
 11
-178.449
 21
-21.0673
  0
LINE
  8
0
 10
-178.449
 20
-21.0673
 11
-178.433
 21
-21.0912
  0
LINE
  8
0
 10
-178.433
 20
-21.0912
 11
-178.417
 21
-21.1162
  0
LINE
  8
0
 10
-178.417
 20
-21.1162
 11
-178.402
 21
-21.1411
  0
LINE
  8
0
 10
-178.402
 20
-21.1411
 11
-178.388
 21
-21.1668
  0
LINE
  8
0
 10
-178.388
 20
-21.1668
 11
-178.374
 21
-21.1924
  0
LINE
  8
0
 10
-178.374
 20
-21.1924
 11
-178.361
 21
-21.2184
  0
LINE
  8
0
 10
-178.361
 20
-21.2184
 11
-178.348
 21
-21.245
  0
LINE
  8
0
 10
-178.348
 20
-21.245
 11
-178.336
 21
-21.2718
  0
LINE
  8
0
 10
-178.336
 20
-21.2718
 11
-178.325
 21
-21.2985
  0
LINE
  8
0
 10
-178.325
 20
-21.2985
 11
-178.315
 21
-21.3256
  0
LINE
  8
0
 10
-178.315
 20
-21.3256
 11
-178.305
 21
-21.3534
  0
LINE
  8
0
 10
-178.305
 20
-21.3534
 11
-178.296
 21
-21.3814
  0
LINE
  8
0
 10
-178.296
 20
-21.3814
 11
-178.287
 21
-21.4088
  0
LINE
  8
0
 10
-178.287
 20
-21.4088
 11
-178.28
 21
-21.4372
  0
LINE
  8
0
 10
-178.28
 20
-21.4372
 11
-178.272
 21
-21.4655
  0
LINE
  8
0
 10
-178.272
 20
-21.4655
 11
-178.266
 21
-21.4946
  0
LINE
  8
0
 10
-178.266
 20
-21.4946
 11
-178.26
 21
-21.5222
  0
LINE
  8
0
 10
-178.26
 20
-21.5222
 11
-178.255
 21
-21.5518
  0
LINE
  8
0
 10
-178.255
 20
-21.5518
 11
-178.251
 21
-21.5802
  0
LINE
  8
0
 10
-178.251
 20
-21.5802
 11
-178.247
 21
-21.6099
  0
LINE
  8
0
 10
-178.247
 20
-21.6099
 11
-178.245
 21
-21.6382
  0
LINE
  8
0
 10
-178.245
 20
-21.6382
 11
-178.242
 21
-21.6676
  0
LINE
  8
0
 10
-178.242
 20
-21.6676
 11
-178.241
 21
-21.697
  0
LINE
  8
0
 10
-178.241
 20
-21.697
 11
-178.24
 21
-21.7327
  0
LINE
  8
0
 10
-178.24
 20
-21.7327
 11
-178.24
 21
-21.7482
  0
LINE
  8
0
 10
-178.24
 20
-21.7482
 11
-178.24
 21
-26.3594
  0
LINE
  8
0
 10
-178.24
 20
-26.3594
 11
-178.239
 21
-26.4178
  0
LINE
  8
0
 10
-178.239
 20
-26.4178
 11
-178.234
 21
-26.4761
  0
LINE
  8
0
 10
-178.234
 20
-26.4761
 11
-178.227
 21
-26.5341
  0
LINE
  8
0
 10
-178.227
 20
-26.5341
 11
-178.217
 21
-26.5916
  0
LINE
  8
0
 10
-178.217
 20
-26.5916
 11
-178.204
 21
-26.6487
  0
LINE
  8
0
 10
-178.204
 20
-26.6487
 11
-178.189
 21
-26.705
  0
LINE
  8
0
 10
-178.189
 20
-26.705
 11
-178.17
 21
-26.7605
  0
LINE
  8
0
 10
-178.17
 20
-26.7605
 11
-178.149
 21
-26.815
  0
LINE
  8
0
 10
-178.149
 20
-26.815
 11
-178.126
 21
-26.8684
  0
LINE
  8
0
 10
-178.126
 20
-26.8684
 11
-178.099
 21
-26.9206
  0
LINE
  8
0
 10
-178.099
 20
-26.9206
 11
-178.071
 21
-26.9715
  0
LINE
  8
0
 10
-178.071
 20
-26.9715
 11
-178.039
 21
-27.0208
  0
LINE
  8
0
 10
-178.039
 20
-27.0208
 11
-178.006
 21
-27.0686
  0
LINE
  8
0
 10
-178.006
 20
-27.0686
 11
-177.97
 21
-27.1147
  0
LINE
  8
0
 10
-177.97
 20
-27.1147
 11
-177.932
 21
-27.1589
  0
LINE
  8
0
 10
-177.932
 20
-27.1589
 11
-177.891
 21
-27.2013
  0
LINE
  8
0
 10
-177.891
 20
-27.2013
 11
-177.849
 21
-27.2416
  0
LINE
  8
0
 10
-177.849
 20
-27.2416
 11
-177.805
 21
-27.2797
  0
LINE
  8
0
 10
-177.805
 20
-27.2797
 11
-177.759
 21
-27.3157
  0
LINE
  8
0
 10
-177.759
 20
-27.3157
 11
-177.711
 21
-27.3493
  0
LINE
  8
0
 10
-177.711
 20
-27.3493
 11
-177.661
 21
-27.3806
  0
LINE
  8
0
 10
-177.661
 20
-27.3806
 11
-177.611
 21
-27.4094
  0
LINE
  8
0
 10
-177.611
 20
-27.4094
 11
-177.558
 21
-27.4357
  0
LINE
  8
0
 10
-177.558
 20
-27.4357
 11
-177.505
 21
-27.4594
  0
LINE
  8
0
 10
-177.505
 20
-27.4594
 11
-177.45
 21
-27.4804
  0
LINE
  8
0
 10
-177.45
 20
-27.4804
 11
-177.395
 21
-27.4987
  0
LINE
  8
0
 10
-177.395
 20
-27.4987
 11
-177.339
 21
-27.5143
  0
LINE
  8
0
 10
-177.339
 20
-27.5143
 11
-177.282
 21
-27.5271
  0
LINE
  8
0
 10
-177.282
 20
-27.5271
 11
-177.224
 21
-27.5371
  0
LINE
  8
0
 10
-177.224
 20
-27.5371
 11
-177.166
 21
-27.5443
  0
LINE
  8
0
 10
-177.166
 20
-27.5443
 11
-177.108
 21
-27.5486
  0
LINE
  8
0
 10
-177.108
 20
-27.5486
 11
-177.049
 21
-27.55
  0
LINE
  8
0
 10
-177.049
 20
-27.55
 11
-140.431
 21
-27.55
  0
LINE
  8
0
 10
-140.431
 20
-27.55
 11
-140.372
 21
-27.5486
  0
LINE
  8
0
 10
-140.372
 20
-27.5486
 11
-140.314
 21
-27.5443
  0
LINE
  8
0
 10
-140.314
 20
-27.5443
 11
-140.256
 21
-27.5371
  0
LINE
  8
0
 10
-140.256
 20
-27.5371
 11
-140.198
 21
-27.5271
  0
LINE
  8
0
 10
-140.198
 20
-27.5271
 11
-140.141
 21
-27.5143
  0
LINE
  8
0
 10
-140.141
 20
-27.5143
 11
-140.085
 21
-27.4987
  0
LINE
  8
0
 10
-140.085
 20
-27.4987
 11
-140.029
 21
-27.4804
  0
LINE
  8
0
 10
-140.029
 20
-27.4804
 11
-139.975
 21
-27.4594
  0
LINE
  8
0
 10
-139.975
 20
-27.4594
 11
-139.922
 21
-27.4357
  0
LINE
  8
0
 10
-139.922
 20
-27.4357
 11
-139.869
 21
-27.4094
  0
LINE
  8
0
 10
-139.869
 20
-27.4094
 11
-139.818
 21
-27.3806
  0
LINE
  8
0
 10
-139.818
 20
-27.3806
 11
-139.769
 21
-27.3493
  0
LINE
  8
0
 10
-139.769
 20
-27.3493
 11
-139.721
 21
-27.3157
  0
LINE
  8
0
 10
-139.721
 20
-27.3157
 11
-139.675
 21
-27.2797
  0
LINE
  8
0
 10
-139.675
 20
-27.2797
 11
-139.631
 21
-27.2416
  0
LINE
  8
0
 10
-139.631
 20
-27.2416
 11
-139.589
 21
-27.2013
  0
LINE
  8
0
 10
-139.589
 20
-27.2013
 11
-139.548
 21
-27.1589
  0
LINE
  8
0
 10
-139.548
 20
-27.1589
 11
-139.51
 21
-27.1147
  0
LINE
  8
0
 10
-139.51
 20
-27.1147
 11
-139.474
 21
-27.0686
  0
LINE
  8
0
 10
-139.474
 20
-27.0686
 11
-139.441
 21
-27.0208
  0
LINE
  8
0
 10
-139.441
 20
-27.0208
 11
-139.409
 21
-26.9715
  0
LINE
  8
0
 10
-139.409
 20
-26.9715
 11
-139.381
 21
-26.9206
  0
LINE
  8
0
 10
-139.381
 20
-26.9206
 11
-139.354
 21
-26.8684
  0
LINE
  8
0
 10
-139.354
 20
-26.8684
 11
-139.331
 21
-26.815
  0
LINE
  8
0
 10
-139.331
 20
-26.815
 11
-139.31
 21
-26.7605
  0
LINE
  8
0
 10
-139.31
 20
-26.7605
 11
-139.291
 21
-26.705
  0
LINE
  8
0
 10
-139.291
 20
-26.705
 11
-139.276
 21
-26.6487
  0
LINE
  8
0
 10
-139.276
 20
-26.6487
 11
-139.263
 21
-26.5916
  0
LINE
  8
0
 10
-139.263
 20
-26.5916
 11
-139.253
 21
-26.5341
  0
LINE
  8
0
 10
-139.253
 20
-26.5341
 11
-139.246
 21
-26.4761
  0
LINE
  8
0
 10
-139.246
 20
-26.4761
 11
-139.241
 21
-26.4178
  0
LINE
  8
0
 10
-139.241
 20
-26.4178
 11
-139.24
 21
-26.3594
  0
LINE
  8
0
 10
-139.24
 20
-26.3594
 11
-139.24
 21
-21.7482
  0
LINE
  8
0
 10
-139.24
 20
-21.7482
 11
-139.24
 21
-21.7327
  0
LINE
  8
0
 10
-139.24
 20
-21.7327
 11
-139.239
 21
-21.697
  0
LINE
  8
0
 10
-139.239
 20
-21.697
 11
-139.237
 21
-21.6676
  0
LINE
  8
0
 10
-139.237
 20
-21.6676
 11
-139.235
 21
-21.6382
  0
LINE
  8
0
 10
-139.235
 20
-21.6382
 11
-139.232
 21
-21.6099
  0
LINE
  8
0
 10
-139.232
 20
-21.6099
 11
-139.229
 21
-21.5802
  0
LINE
  8
0
 10
-139.229
 20
-21.5802
 11
-139.225
 21
-21.5518
  0
LINE
  8
0
 10
-139.225
 20
-21.5518
 11
-139.219
 21
-21.5222
  0
LINE
  8
0
 10
-139.219
 20
-21.5222
 11
-139.214
 21
-21.4946
  0
LINE
  8
0
 10
-139.214
 20
-21.4946
 11
-139.207
 21
-21.4655
  0
LINE
  8
0
 10
-139.207
 20
-21.4655
 11
-139.2
 21
-21.4372
  0
LINE
  8
0
 10
-139.2
 20
-21.4372
 11
-139.193
 21
-21.4088
  0
LINE
  8
0
 10
-139.193
 20
-21.4088
 11
-139.184
 21
-21.3814
  0
LINE
  8
0
 10
-139.184
 20
-21.3814
 11
-139.175
 21
-21.3534
  0
LINE
  8
0
 10
-139.175
 20
-21.3534
 11
-139.165
 21
-21.3256
  0
LINE
  8
0
 10
-139.165
 20
-21.3256
 11
-139.155
 21
-21.2985
  0
LINE
  8
0
 10
-139.155
 20
-21.2985
 11
-139.143
 21
-21.2718
  0
LINE
  8
0
 10
-139.143
 20
-21.2718
 11
-139.132
 21
-21.245
  0
LINE
  8
0
 10
-139.132
 20
-21.245
 11
-139.119
 21
-21.2184
  0
LINE
  8
0
 10
-139.119
 20
-21.2184
 11
-139.106
 21
-21.1924
  0
LINE
  8
0
 10
-139.106
 20
-21.1924
 11
-139.092
 21
-21.1668
  0
LINE
  8
0
 10
-139.092
 20
-21.1668
 11
-139.078
 21
-21.1411
  0
LINE
  8
0
 10
-139.078
 20
-21.1411
 11
-139.063
 21
-21.1162
  0
LINE
  8
0
 10
-139.063
 20
-21.1162
 11
-139.047
 21
-21.0912
  0
LINE
  8
0
 10
-139.047
 20
-21.0912
 11
-139.031
 21
-21.0673
  0
LINE
  8
0
 10
-139.031
 20
-21.0673
 11
-139.014
 21
-21.0432
  0
LINE
  8
0
 10
-139.014
 20
-21.0432
 11
-138.997
 21
-21.0199
  0
LINE
  8
0
 10
-138.997
 20
-21.0199
 11
-138.979
 21
-20.9966
  0
LINE
  8
0
 10
-138.979
 20
-20.9966
 11
-138.96
 21
-20.9745
  0
LINE
  8
0
 10
-138.96
 20
-20.9745
 11
-138.941
 21
-20.9521
  0
LINE
  8
0
 10
-138.941
 20
-20.9521
 11
-138.921
 21
-20.9304
  0
LINE
  8
0
 10
-138.921
 20
-20.9304
 11
-138.902
 21
-20.9095
  0
LINE
  8
0
 10
-138.902
 20
-20.9095
 11
-138.88
 21
-20.8884
  0
LINE
  8
0
 10
-138.88
 20
-20.8884
 11
-138.86
 21
-20.8686
  0
LINE
  8
0
 10
-138.86
 20
-20.8686
 11
-138.838
 21
-20.8489
  0
LINE
  8
0
 10
-138.838
 20
-20.8489
 11
-138.815
 21
-20.8295
  0
LINE
  8
0
 10
-138.815
 20
-20.8295
 11
-138.793
 21
-20.8114
  0
LINE
  8
0
 10
-138.793
 20
-20.8114
 11
-138.77
 21
-20.7932
  0
LINE
  8
0
 10
-138.77
 20
-20.7932
 11
-138.747
 21
-20.7759
  0
LINE
  8
0
 10
-138.747
 20
-20.7759
 11
-138.723
 21
-20.759
  0
LINE
  8
0
 10
-138.723
 20
-20.759
 11
-138.699
 21
-20.743
  0
LINE
  8
0
 10
-138.699
 20
-20.743
 11
-138.674
 21
-20.7272
  0
LINE
  8
0
 10
-138.674
 20
-20.7272
 11
-138.649
 21
-20.7122
  0
LINE
  8
0
 10
-138.649
 20
-20.7122
 11
-138.623
 21
-20.6977
  0
LINE
  8
0
 10
-138.623
 20
-20.6977
 11
-138.598
 21
-20.684
  0
LINE
  8
0
 10
-138.598
 20
-20.684
 11
-138.572
 21
-20.6709
  0
LINE
  8
0
 10
-138.572
 20
-20.6709
 11
-138.545
 21
-20.6583
  0
LINE
  8
0
 10
-138.545
 20
-20.6583
 11
-138.518
 21
-20.6465
  0
LINE
  8
0
 10
-138.518
 20
-20.6465
 11
-138.491
 21
-20.6354
  0
LINE
  8
0
 10
-138.491
 20
-20.6354
 11
-138.464
 21
-20.625
  0
LINE
  8
0
 10
-138.464
 20
-20.625
 11
-138.437
 21
-20.615
  0
LINE
  8
0
 10
-138.437
 20
-20.615
 11
-138.409
 21
-20.6057
  0
LINE
  8
0
 10
-138.409
 20
-20.6057
 11
-138.381
 21
-20.5974
  0
LINE
  8
0
 10
-138.381
 20
-20.5974
 11
-138.353
 21
-20.5896
  0
LINE
  8
0
 10
-138.353
 20
-20.5896
 11
-138.324
 21
-20.5825
  0
LINE
  8
0
 10
-138.324
 20
-20.5825
 11
-138.295
 21
-20.576
  0
LINE
  8
0
 10
-138.295
 20
-20.576
 11
-138.268
 21
-20.5705
  0
LINE
  8
0
 10
-138.268
 20
-20.5705
 11
-138.238
 21
-20.5653
  0
LINE
  8
0
 10
-138.238
 20
-20.5653
 11
-138.21
 21
-20.5611
  0
LINE
  8
0
 10
-138.21
 20
-20.5611
 11
-138.18
 21
-20.5575
  0
LINE
  8
0
 10
-138.18
 20
-20.5575
 11
-138.152
 21
-20.5547
  0
LINE
  8
0
 10
-138.152
 20
-20.5547
 11
-138.122
 21
-20.5525
  0
LINE
  8
0
 10
-138.122
 20
-20.5525
 11
-138.093
 21
-20.5511
  0
LINE
  8
0
 10
-138.093
 20
-20.5511
 11
-138.057
 21
-20.5502
  0
LINE
  8
0
 10
-138.057
 20
-20.5502
 11
-138.042
 21
-20.55
  0
LINE
  8
0
 10
-138.042
 20
-20.55
 11
-130.78
 21
-20.55
  0
LINE
  8
0
 10
-130.78
 20
-20.55
 11
-130.764
 21
-20.5502
  0
LINE
  8
0
 10
-130.764
 20
-20.5502
 11
-130.729
 21
-20.5511
  0
LINE
  8
0
 10
-130.729
 20
-20.5511
 11
-130.699
 21
-20.5525
  0
LINE
  8
0
 10
-130.699
 20
-20.5525
 11
-130.67
 21
-20.5547
  0
LINE
  8
0
 10
-130.67
 20
-20.5547
 11
-130.642
 21
-20.5575
  0
LINE
  8
0
 10
-130.642
 20
-20.5575
 11
-130.612
 21
-20.5611
  0
LINE
  8
0
 10
-130.612
 20
-20.5611
 11
-130.583
 21
-20.5653
  0
LINE
  8
0
 10
-130.583
 20
-20.5653
 11
-130.554
 21
-20.5705
  0
LINE
  8
0
 10
-130.554
 20
-20.5705
 11
-130.526
 21
-20.576
  0
LINE
  8
0
 10
-130.526
 20
-20.576
 11
-130.497
 21
-20.5825
  0
LINE
  8
0
 10
-130.497
 20
-20.5825
 11
-130.469
 21
-20.5896
  0
LINE
  8
0
 10
-130.469
 20
-20.5896
 11
-130.441
 21
-20.5974
  0
LINE
  8
0
 10
-130.441
 20
-20.5974
 11
-130.413
 21
-20.6057
  0
LINE
  8
0
 10
-130.413
 20
-20.6057
 11
-130.384
 21
-20.6155
  0
LINE
  8
0
 10
-130.384
 20
-20.6155
 11
-130.359
 21
-20.6242
  0
LINE
  8
0
 10
-130.359
 20
-20.6242
 11
-130.335
 21
-20.6334
  0
LINE
  8
0
 10
-130.335
 20
-20.6334
 11
-130.325
 21
-20.6372
  0
LINE
  8
0
 10
-130.325
 20
-20.6372
 11
-112.584
 21
-27.7338
  0
LINE
  8
0
 10
-112.584
 20
-27.7338
 11
-112.57
 21
-27.7397
  0
LINE
  8
0
 10
-112.57
 20
-27.7397
 11
-112.537
 21
-27.7541
  0
LINE
  8
0
 10
-112.537
 20
-27.7541
 11
-112.51
 21
-27.7661
  0
LINE
  8
0
 10
-112.51
 20
-27.7661
 11
-112.484
 21
-27.7791
  0
LINE
  8
0
 10
-112.484
 20
-27.7791
 11
-112.458
 21
-27.7923
  0
LINE
  8
0
 10
-112.458
 20
-27.7923
 11
-112.433
 21
-27.8065
  0
LINE
  8
0
 10
-112.433
 20
-27.8065
 11
-112.407
 21
-27.8213
  0
LINE
  8
0
 10
-112.407
 20
-27.8213
 11
-112.382
 21
-27.8365
  0
LINE
  8
0
 10
-112.382
 20
-27.8365
 11
-112.358
 21
-27.8526
  0
LINE
  8
0
 10
-112.358
 20
-27.8526
 11
-112.334
 21
-27.869
  0
LINE
  8
0
 10
-112.334
 20
-27.869
 11
-112.31
 21
-27.8861
  0
LINE
  8
0
 10
-112.31
 20
-27.8861
 11
-112.287
 21
-27.9039
  0
LINE
  8
0
 10
-112.287
 20
-27.9039
 11
-112.264
 21
-27.9219
  0
LINE
  8
0
 10
-112.264
 20
-27.9219
 11
-112.241
 21
-27.9412
  0
LINE
  8
0
 10
-112.241
 20
-27.9412
 11
-112.22
 21
-27.9602
  0
LINE
  8
0
 10
-112.22
 20
-27.9602
 11
-112.199
 21
-27.9799
  0
LINE
  8
0
 10
-112.199
 20
-27.9799
 11
-112.177
 21
-28.0006
  0
LINE
  8
0
 10
-112.177
 20
-28.0006
 11
-112.157
 21
-28.0213
  0
LINE
  8
0
 10
-112.157
 20
-28.0213
 11
-112.137
 21
-28.043
  0
LINE
  8
0
 10
-112.137
 20
-28.043
 11
-112.118
 21
-28.0646
  0
LINE
  8
0
 10
-112.118
 20
-28.0646
 11
-112.099
 21
-28.0873
  0
LINE
  8
0
 10
-112.099
 20
-28.0873
 11
-112.081
 21
-28.1098
  0
LINE
  8
0
 10
-112.081
 20
-28.1098
 11
-112.063
 21
-28.1332
  0
LINE
  8
0
 10
-112.063
 20
-28.1332
 11
-112.046
 21
-28.1571
  0
LINE
  8
0
 10
-112.046
 20
-28.1571
 11
-112.03
 21
-28.1807
  0
LINE
  8
0
 10
-112.03
 20
-28.1807
 11
-112.013
 21
-28.2055
  0
LINE
  8
0
 10
-112.013
 20
-28.2055
 11
-111.998
 21
-28.2302
  0
LINE
  8
0
 10
-111.998
 20
-28.2302
 11
-111.983
 21
-28.2557
  0
LINE
  8
0
 10
-111.983
 20
-28.2557
 11
-111.97
 21
-28.281
  0
LINE
  8
0
 10
-111.97
 20
-28.281
 11
-111.956
 21
-28.307
  0
LINE
  8
0
 10
-111.956
 20
-28.307
 11
-111.943
 21
-28.3335
  0
LINE
  8
0
 10
-111.943
 20
-28.3335
 11
-111.931
 21
-28.3599
  0
LINE
  8
0
 10
-111.931
 20
-28.3599
 11
-111.919
 21
-28.3867
  0
LINE
  8
0
 10
-111.919
 20
-28.3867
 11
-111.909
 21
-28.414
  0
LINE
  8
0
 10
-111.909
 20
-28.414
 11
-111.899
 21
-28.4411
  0
LINE
  8
0
 10
-111.899
 20
-28.4411
 11
-111.889
 21
-28.469
  0
LINE
  8
0
 10
-111.889
 20
-28.469
 11
-111.88
 21
-28.4966
  0
LINE
  8
0
 10
-111.88
 20
-28.4966
 11
-111.872
 21
-28.525
  0
LINE
  8
0
 10
-111.872
 20
-28.525
 11
-111.865
 21
-28.5531
  0
LINE
  8
0
 10
-111.865
 20
-28.5531
 11
-111.858
 21
-28.5816
  0
LINE
  8
0
 10
-111.858
 20
-28.5816
 11
-111.852
 21
-28.61
  0
LINE
  8
0
 10
-111.852
 20
-28.61
 11
-111.846
 21
-28.6388
  0
LINE
  8
0
 10
-111.846
 20
-28.6388
 11
-111.842
 21
-28.6675
  0
LINE
  8
0
 10
-111.842
 20
-28.6675
 11
-111.838
 21
-28.6964
  0
LINE
  8
0
 10
-111.838
 20
-28.6964
 11
-111.835
 21
-28.7259
  0
LINE
  8
0
 10
-111.835
 20
-28.7259
 11
-111.832
 21
-28.7547
  0
LINE
  8
0
 10
-111.832
 20
-28.7547
 11
-111.83
 21
-28.7838
  0
LINE
  8
0
 10
-111.83
 20
-28.7838
 11
-111.829
 21
-28.8131
  0
LINE
  8
0
 10
-111.829
 20
-28.8131
 11
-111.829
 21
-28.8423
  0
LINE
  8
0
 10
-111.829
 20
-28.8423
 11
-111.829
 21
-28.8714
  0
LINE
  8
0
 10
-111.829
 20
-28.8714
 11
-111.83
 21
-28.901
  0
LINE
  8
0
 10
-111.83
 20
-28.901
 11
-111.832
 21
-28.93
  0
LINE
  8
0
 10
-111.832
 20
-28.93
 11
-111.835
 21
-28.9586
  0
LINE
  8
0
 10
-111.835
 20
-28.9586
 11
-111.838
 21
-28.988
  0
LINE
  8
0
 10
-111.838
 20
-28.988
 11
-111.842
 21
-29.017
  0
LINE
  8
0
 10
-111.842
 20
-29.017
 11
-111.846
 21
-29.0458
  0
LINE
  8
0
 10
-111.846
 20
-29.0458
 11
-111.852
 21
-29.0745
  0
LINE
  8
0
 10
-111.852
 20
-29.0745
 11
-111.858
 21
-29.1028
  0
LINE
  8
0
 10
-111.858
 20
-29.1028
 11
-111.865
 21
-29.1318
  0
LINE
  8
0
 10
-111.865
 20
-29.1318
 11
-111.872
 21
-29.1595
  0
LINE
  8
0
 10
-111.872
 20
-29.1595
 11
-111.88
 21
-29.188
  0
LINE
  8
0
 10
-111.88
 20
-29.188
 11
-111.889
 21
-29.2157
  0
LINE
  8
0
 10
-111.889
 20
-29.2157
 11
-111.899
 21
-29.2434
  0
LINE
  8
0
 10
-111.899
 20
-29.2434
 11
-111.911
 21
-29.2771
  0
LINE
  8
0
 10
-111.911
 20
-29.2771
 11
-111.917
 21
-29.2917
  0
LINE
  8
0
 10
-111.917
 20
-29.2917
 11
-113.629
 21
-33.5728
  0
LINE
  8
0
 10
-113.629
 20
-33.5728
 11
-113.65
 21
-33.6276
  0
LINE
  8
0
 10
-113.65
 20
-33.6276
 11
-113.667
 21
-33.6833
  0
LINE
  8
0
 10
-113.667
 20
-33.6833
 11
-113.682
 21
-33.7398
  0
LINE
  8
0
 10
-113.682
 20
-33.7398
 11
-113.694
 21
-33.797
  0
LINE
  8
0
 10
-113.694
 20
-33.797
 11
-113.704
 21
-33.8546
  0
LINE
  8
0
 10
-113.704
 20
-33.8546
 11
-113.71
 21
-33.9127
  0
LINE
  8
0
 10
-113.71
 20
-33.9127
 11
-113.714
 21
-33.9711
  0
LINE
  8
0
 10
-113.714
 20
-33.9711
 11
-113.714
 21
-34.0295
  0
LINE
  8
0
 10
-113.714
 20
-34.0295
 11
-113.712
 21
-34.0879
  0
LINE
  8
0
 10
-113.712
 20
-34.0879
 11
-113.707
 21
-34.1461
  0
LINE
  8
0
 10
-113.707
 20
-34.1461
 11
-113.699
 21
-34.204
  0
LINE
  8
0
 10
-113.699
 20
-34.204
 11
-113.689
 21
-34.2615
  0
LINE
  8
0
 10
-113.689
 20
-34.2615
 11
-113.675
 21
-34.3183
  0
LINE
  8
0
 10
-113.675
 20
-34.3183
 11
-113.659
 21
-34.3745
  0
LINE
  8
0
 10
-113.659
 20
-34.3745
 11
-113.64
 21
-34.4297
  0
LINE
  8
0
 10
-113.64
 20
-34.4297
 11
-113.618
 21
-34.484
  0
LINE
  8
0
 10
-113.618
 20
-34.484
 11
-113.594
 21
-34.5371
  0
LINE
  8
0
 10
-113.594
 20
-34.5371
 11
-113.567
 21
-34.589
  0
LINE
  8
0
 10
-113.567
 20
-34.589
 11
-113.538
 21
-34.6395
  0
LINE
  8
0
 10
-113.538
 20
-34.6395
 11
-113.506
 21
-34.6885
  0
LINE
  8
0
 10
-113.506
 20
-34.6885
 11
-113.471
 21
-34.7358
  0
LINE
  8
0
 10
-113.471
 20
-34.7358
 11
-113.435
 21
-34.7815
  0
LINE
  8
0
 10
-113.435
 20
-34.7815
 11
-113.396
 21
-34.8253
  0
LINE
  8
0
 10
-113.396
 20
-34.8253
 11
-113.355
 21
-34.8671
  0
LINE
  8
0
 10
-113.355
 20
-34.8671
 11
-113.313
 21
-34.9069
  0
LINE
  8
0
 10
-113.313
 20
-34.9069
 11
-113.268
 21
-34.9445
  0
LINE
  8
0
 10
-113.268
 20
-34.9445
 11
-113.221
 21
-34.9799
  0
LINE
  8
0
 10
-113.221
 20
-34.9799
 11
-113.173
 21
-35.013
  0
LINE
  8
0
 10
-113.173
 20
-35.013
 11
-113.123
 21
-35.0436
  0
LINE
  8
0
 10
-113.123
 20
-35.0436
 11
-113.072
 21
-35.0718
  0
LINE
  8
0
 10
-113.072
 20
-35.0718
 11
-113.02
 21
-35.0974
  0
LINE
  8
0
 10
-113.02
 20
-35.0974
 11
-112.966
 21
-35.1205
  0
LINE
  8
0
 10
-112.966
 20
-35.1205
 11
-78.9666
 21
-48.7209
  0
LINE
  8
0
 10
-78.9666
 20
-48.7209
 11
-78.9118
 21
-48.7413
  0
LINE
  8
0
 10
-78.9118
 20
-48.7413
 11
-78.8561
 21
-48.7589
  0
LINE
  8
0
 10
-78.8561
 20
-48.7589
 11
-78.7996
 21
-48.7738
  0
LINE
  8
0
 10
-78.7996
 20
-48.7738
 11
-78.7424
 21
-48.7859
  0
LINE
  8
0
 10
-78.7424
 20
-48.7859
 11
-78.6848
 21
-48.7952
  0
LINE
  8
0
 10
-78.6848
 20
-48.7952
 11
-78.6267
 21
-48.8017
  0
LINE
  8
0
 10
-78.6267
 20
-48.8017
 11
-78.5683
 21
-48.8053
  0
LINE
  8
0
 10
-78.5683
 20
-48.8053
 11
-78.5099
 21
-48.806
  0
LINE
  8
0
 10
-78.5099
 20
-48.806
 11
-78.4515
 21
-48.8038
  0
LINE
  8
0
 10
-78.4515
 20
-48.8038
 11
-78.3933
 21
-48.7988
  0
LINE
  8
0
 10
-78.3933
 20
-48.7988
 11
-78.3354
 21
-48.791
  0
LINE
  8
0
 10
-78.3354
 20
-48.791
 11
-78.2779
 21
-48.7803
  0
LINE
  8
0
 10
-78.2779
 20
-48.7803
 11
-78.2211
 21
-48.7668
  0
LINE
  8
0
 10
-78.2211
 20
-48.7668
 11
-78.1649
 21
-48.7505
  0
LINE
  8
0
 10
-78.1649
 20
-48.7505
 11
-78.1097
 21
-48.7315
  0
LINE
  8
0
 10
-78.1097
 20
-48.7315
 11
-78.0554
 21
-48.7098
  0
LINE
  8
0
 10
-78.0554
 20
-48.7098
 11
-78.0023
 21
-48.6855
  0
LINE
  8
0
 10
-78.0023
 20
-48.6855
 11
-77.9504
 21
-48.6586
  0
LINE
  8
0
 10
-77.9504
 20
-48.6586
 11
-77.8999
 21
-48.6291
  0
LINE
  8
0
 10
-77.8999
 20
-48.6291
 11
-77.8509
 21
-48.5973
  0
LINE
  8
0
 10
-77.8509
 20
-48.5973
 11
-77.8036
 21
-48.563
  0
LINE
  8
0
 10
-77.8036
 20
-48.563
 11
-77.7579
 21
-48.5265
  0
LINE
  8
0
 10
-77.7579
 20
-48.5265
 11
-77.7141
 21
-48.4878
  0
LINE
  8
0
 10
-77.7141
 20
-48.4878
 11
-77.6723
 21
-48.447
  0
LINE
  8
0
 10
-77.6723
 20
-48.447
 11
-77.6325
 21
-48.4042
  0
LINE
  8
0
 10
-77.6325
 20
-48.4042
 11
-77.5949
 21
-48.3595
  0
LINE
  8
0
 10
-77.5949
 20
-48.3595
 11
-77.5595
 21
-48.313
  0
LINE
  8
0
 10
-77.5595
 20
-48.313
 11
-77.5264
 21
-48.2648
  0
LINE
  8
0
 10
-77.5264
 20
-48.2648
 11
-77.4958
 21
-48.2151
  0
LINE
  8
0
 10
-77.4958
 20
-48.2151
 11
-77.4676
 21
-48.1639
  0
LINE
  8
0
 10
-77.4676
 20
-48.1639
 11
-77.442
 21
-48.1113
  0
LINE
  8
0
 10
-77.442
 20
-48.1113
 11
-77.4189
 21
-48.0576
  0
LINE
  8
0
 10
-77.4189
 20
-48.0576
 11
-75.7063
 21
-43.7761
  0
LINE
  8
0
 10
-75.7063
 20
-43.7761
 11
-75.7005
 21
-43.7623
  0
LINE
  8
0
 10
-75.7005
 20
-43.7623
 11
-75.6863
 21
-43.7291
  0
LINE
  8
0
 10
-75.6863
 20
-43.7291
 11
-75.674
 21
-43.7024
  0
LINE
  8
0
 10
-75.674
 20
-43.7024
 11
-75.6611
 21
-43.6759
  0
LINE
  8
0
 10
-75.6611
 20
-43.6759
 11
-75.6479
 21
-43.6505
  0
LINE
  8
0
 10
-75.6479
 20
-43.6505
 11
-75.6337
 21
-43.6247
  0
LINE
  8
0
 10
-75.6337
 20
-43.6247
 11
-75.6189
 21
-43.5993
  0
LINE
  8
0
 10
-75.6189
 20
-43.5993
 11
-75.6037
 21
-43.5746
  0
LINE
  8
0
 10
-75.6037
 20
-43.5746
 11
-75.5876
 21
-43.5499
  0
LINE
  8
0
 10
-75.5876
 20
-43.5499
 11
-75.5712
 21
-43.526
  0
LINE
  8
0
 10
-75.5712
 20
-43.526
 11
-75.5541
 21
-43.5023
  0
LINE
  8
0
 10
-75.5541
 20
-43.5023
 11
-75.5363
 21
-43.4789
  0
LINE
  8
0
 10
-75.5363
 20
-43.4789
 11
-75.5183
 21
-43.4564
  0
LINE
  8
0
 10
-75.5183
 20
-43.4564
 11
-75.499
 21
-43.4335
  0
LINE
  8
0
 10
-75.499
 20
-43.4335
 11
-75.4801
 21
-43.4121
  0
LINE
  8
0
 10
-75.4801
 20
-43.4121
 11
-75.4603
 21
-43.3908
  0
LINE
  8
0
 10
-75.4603
 20
-43.3908
 11
-75.4396
 21
-43.3696
  0
LINE
  8
0
 10
-75.4396
 20
-43.3696
 11
-75.4189
 21
-43.3494
  0
LINE
  8
0
 10
-75.4189
 20
-43.3494
 11
-75.3972
 21
-43.3293
  0
LINE
  8
0
 10
-75.3972
 20
-43.3293
 11
-75.3756
 21
-43.3102
  0
LINE
  8
0
 10
-75.3756
 20
-43.3102
 11
-75.3529
 21
-43.2911
  0
LINE
  8
0
 10
-75.3529
 20
-43.2911
 11
-75.3304
 21
-43.273
  0
LINE
  8
0
 10
-75.3304
 20
-43.273
 11
-75.307
 21
-43.2552
  0
LINE
  8
0
 10
-75.307
 20
-43.2552
 11
-75.2831
 21
-43.238
  0
LINE
  8
0
 10
-75.2831
 20
-43.238
 11
-75.2595
 21
-43.2218
  0
LINE
  8
0
 10
-75.2595
 20
-43.2218
 11
-75.2347
 21
-43.2057
  0
LINE
  8
0
 10
-75.2347
 20
-43.2057
 11
-75.2101
 21
-43.1905
  0
LINE
  8
0
 10
-75.2101
 20
-43.1905
 11
-75.1845
 21
-43.1756
  0
LINE
  8
0
 10
-75.1845
 20
-43.1756
 11
-75.1592
 21
-43.1617
  0
LINE
  8
0
 10
-75.1592
 20
-43.1617
 11
-75.1332
 21
-43.1482
  0
LINE
  8
0
 10
-75.1332
 20
-43.1482
 11
-75.1068
 21
-43.1353
  0
LINE
  8
0
 10
-75.1068
 20
-43.1353
 11
-75.0803
 21
-43.1232
  0
LINE
  8
0
 10
-75.0803
 20
-43.1232
 11
-75.0535
 21
-43.1117
  0
LINE
  8
0
 10
-75.0535
 20
-43.1117
 11
-75.0263
 21
-43.1008
  0
LINE
  8
0
 10
-75.0263
 20
-43.1008
 11
-74.9991
 21
-43.0907
  0
LINE
  8
0
 10
-74.9991
 20
-43.0907
 11
-74.971
 21
-43.081
  0
LINE
  8
0
 10
-74.971
 20
-43.081
 11
-74.9437
 21
-43.0724
  0
LINE
  8
0
 10
-74.9437
 20
-43.0724
 11
-74.9153
 21
-43.0642
  0
LINE
  8
0
 10
-74.9153
 20
-43.0642
 11
-74.8874
 21
-43.0568
  0
LINE
  8
0
 10
-74.8874
 20
-43.0568
 11
-74.8589
 21
-43.05
  0
LINE
  8
0
 10
-74.8589
 20
-43.05
 11
-74.8298
 21
-43.0439
  0
LINE
  8
0
 10
-74.8298
 20
-43.0439
 11
-74.8016
 21
-43.0386
  0
LINE
  8
0
 10
-74.8016
 20
-43.0386
 11
-74.7725
 21
-43.034
  0
LINE
  8
0
 10
-74.7725
 20
-43.034
 11
-74.7439
 21
-43.0301
  0
LINE
  8
0
 10
-74.7439
 20
-43.0301
 11
-74.7143
 21
-43.0268
  0
LINE
  8
0
 10
-74.7143
 20
-43.0268
 11
-74.6855
 21
-43.0243
  0
LINE
  8
0
 10
-74.6855
 20
-43.0243
 11
-74.6564
 21
-43.0225
  0
LINE
  8
0
 10
-74.6564
 20
-43.0225
 11
-74.6271
 21
-43.0215
  0
LINE
  8
0
 10
-74.6271
 20
-43.0215
 11
-74.5979
 21
-43.0211
  0
LINE
  8
0
 10
-74.5979
 20
-43.0211
 11
-74.5688
 21
-43.0215
  0
LINE
  8
0
 10
-74.5688
 20
-43.0215
 11
-74.5393
 21
-43.0226
  0
LINE
  8
0
 10
-74.5393
 20
-43.0226
 11
-74.5102
 21
-43.0244
  0
LINE
  8
0
 10
-74.5102
 20
-43.0244
 11
-74.4816
 21
-43.0268
  0
LINE
  8
0
 10
-74.4816
 20
-43.0268
 11
-74.4522
 21
-43.0301
  0
LINE
  8
0
 10
-74.4522
 20
-43.0301
 11
-74.4232
 21
-43.034
  0
LINE
  8
0
 10
-74.4232
 20
-43.034
 11
-74.3944
 21
-43.0387
  0
LINE
  8
0
 10
-74.3944
 20
-43.0387
 11
-74.3657
 21
-43.044
  0
LINE
  8
0
 10
-74.3657
 20
-43.044
 11
-74.3369
 21
-43.0501
  0
LINE
  8
0
 10
-74.3369
 20
-43.0501
 11
-74.3089
 21
-43.0567
  0
LINE
  8
0
 10
-74.3089
 20
-43.0567
 11
-74.2801
 21
-43.0643
  0
LINE
  8
0
 10
-74.2801
 20
-43.0643
 11
-74.2526
 21
-43.0723
  0
LINE
  8
0
 10
-74.2526
 20
-43.0723
 11
-74.2245
 21
-43.0812
  0
LINE
  8
0
 10
-74.2245
 20
-43.0812
 11
-74.1969
 21
-43.0907
  0
LINE
  8
0
 10
-74.1969
 20
-43.0907
 11
-74.1631
 21
-43.1033
  0
LINE
  8
0
 10
-74.1631
 20
-43.1033
 11
-74.1486
 21
-43.1089
  0
LINE
  8
0
 10
-74.1486
 20
-43.1089
 11
-55.8663
 21
-50.4222
  0
LINE
  8
0
 10
-55.8663
 20
-50.4222
 11
-55.8116
 21
-50.4425
  0
LINE
  8
0
 10
-55.8116
 20
-50.4425
 11
-55.7559
 21
-50.4602
  0
LINE
  8
0
 10
-55.7559
 20
-50.4602
 11
-55.6993
 21
-50.4751
  0
LINE
  8
0
 10
-55.6993
 20
-50.4751
 11
-55.6422
 21
-50.4872
  0
LINE
  8
0
 10
-55.6422
 20
-50.4872
 11
-55.5845
 21
-50.4965
  0
LINE
  8
0
 10
-55.5845
 20
-50.4965
 11
-55.5264
 21
-50.5029
  0
LINE
  8
0
 10
-55.5264
 20
-50.5029
 11
-55.4681
 21
-50.5065
  0
LINE
  8
0
 10
-55.4681
 20
-50.5065
 11
-55.4241
 21
-50.5073
  0
LINE
  8
0
 10
-55.4241
 20
-50.5073
 11
-48.3805
 21
-50.5073
  0
LINE
  8
0
 10
-48.3805
 20
-50.5073
 11
-48.3649
 21
-50.5075
  0
LINE
  8
0
 10
-48.3649
 20
-50.5075
 11
-48.3292
 21
-50.5084
  0
LINE
  8
0
 10
-48.3292
 20
-50.5084
 11
-48.2999
 21
-50.5099
  0
LINE
  8
0
 10
-48.2999
 20
-50.5099
 11
-48.2704
 21
-50.512
  0
LINE
  8
0
 10
-48.2704
 20
-50.512
 11
-48.2421
 21
-50.5148
  0
LINE
  8
0
 10
-48.2421
 20
-50.5148
 11
-48.2124
 21
-50.5185
  0
LINE
  8
0
 10
-48.2124
 20
-50.5185
 11
-48.1841
 21
-50.5227
  0
LINE
  8
0
 10
-48.1841
 20
-50.5227
 11
-48.1545
 21
-50.5278
  0
LINE
  8
0
 10
-48.1545
 20
-50.5278
 11
-48.1268
 21
-50.5333
  0
LINE
  8
0
 10
-48.1268
 20
-50.5333
 11
-48.0978
 21
-50.5398
  0
LINE
  8
0
 10
-48.0978
 20
-50.5398
 11
-48.0695
 21
-50.5469
  0
LINE
  8
0
 10
-48.0695
 20
-50.5469
 11
-48.0411
 21
-50.5548
  0
LINE
  8
0
 10
-48.0411
 20
-50.5548
 11
-48.0137
 21
-50.5631
  0
LINE
  8
0
 10
-48.0137
 20
-50.5631
 11
-47.9857
 21
-50.5723
  0
LINE
  8
0
 10
-47.9857
 20
-50.5723
 11
-47.9579
 21
-50.5823
  0
LINE
  8
0
 10
-47.9579
 20
-50.5823
 11
-47.9308
 21
-50.5928
  0
LINE
  8
0
 10
-47.9308
 20
-50.5928
 11
-47.9041
 21
-50.6038
  0
LINE
  8
0
 10
-47.9041
 20
-50.6038
 11
-47.8773
 21
-50.6157
  0
LINE
  8
0
 10
-47.8773
 20
-50.6157
 11
-47.8507
 21
-50.6283
  0
LINE
  8
0
 10
-47.8507
 20
-50.6283
 11
-47.8246
 21
-50.6414
  0
LINE
  8
0
 10
-47.8246
 20
-50.6414
 11
-47.7991
 21
-50.655
  0
LINE
  8
0
 10
-47.7991
 20
-50.655
 11
-47.7734
 21
-50.6696
  0
LINE
  8
0
 10
-47.7734
 20
-50.6696
 11
-47.7485
 21
-50.6845
  0
LINE
  8
0
 10
-47.7485
 20
-50.6845
 11
-47.7234
 21
-50.7004
  0
LINE
  8
0
 10
-47.7234
 20
-50.7004
 11
-47.6996
 21
-50.7163
  0
LINE
  8
0
 10
-47.6996
 20
-50.7163
 11
-47.6755
 21
-50.7333
  0
LINE
  8
0
 10
-47.6755
 20
-50.7333
 11
-47.6522
 21
-50.7506
  0
LINE
  8
0
 10
-47.6522
 20
-50.7506
 11
-47.6289
 21
-50.7687
  0
LINE
  8
0
 10
-47.6289
 20
-50.7687
 11
-47.6068
 21
-50.7869
  0
LINE
  8
0
 10
-47.6068
 20
-50.7869
 11
-47.5844
 21
-50.8062
  0
LINE
  8
0
 10
-47.5844
 20
-50.8062
 11
-47.5627
 21
-50.8259
  0
LINE
  8
0
 10
-47.5627
 20
-50.8259
 11
-47.5418
 21
-50.8458
  0
LINE
  8
0
 10
-47.5418
 20
-50.8458
 11
-47.5207
 21
-50.8669
  0
LINE
  8
0
 10
-47.5207
 20
-50.8669
 11
-47.5009
 21
-50.8877
  0
LINE
  8
0
 10
-47.5009
 20
-50.8877
 11
-47.4812
 21
-50.9095
  0
LINE
  8
0
 10
-47.4812
 20
-50.9095
 11
-47.4618
 21
-50.9319
  0
LINE
  8
0
 10
-47.4618
 20
-50.9319
 11
-47.4437
 21
-50.954
  0
LINE
  8
0
 10
-47.4437
 20
-50.954
 11
-47.4255
 21
-50.9773
  0
LINE
  8
0
 10
-47.4255
 20
-50.9773
 11
-47.4082
 21
-51.0006
  0
LINE
  8
0
 10
-47.4082
 20
-51.0006
 11
-47.3912
 21
-51.0247
  0
LINE
  8
0
 10
-47.3912
 20
-51.0247
 11
-47.3753
 21
-51.0485
  0
LINE
  8
0
 10
-47.3753
 20
-51.0485
 11
-47.3594
 21
-51.0736
  0
LINE
  8
0
 10
-47.3594
 20
-51.0736
 11
-47.3445
 21
-51.0985
  0
LINE
  8
0
 10
-47.3445
 20
-51.0985
 11
-47.33
 21
-51.1242
  0
LINE
  8
0
 10
-47.33
 20
-51.1242
 11
-47.3163
 21
-51.1497
  0
LINE
  8
0
 10
-47.3163
 20
-51.1497
 11
-47.3032
 21
-51.1758
  0
LINE
  8
0
 10
-47.3032
 20
-51.1758
 11
-47.2906
 21
-51.2024
  0
LINE
  8
0
 10
-47.2906
 20
-51.2024
 11
-47.2788
 21
-51.2291
  0
LINE
  8
0
 10
-47.2788
 20
-51.2291
 11
-47.2677
 21
-51.2559
  0
LINE
  8
0
 10
-47.2677
 20
-51.2559
 11
-47.2572
 21
-51.283
  0
LINE
  8
0
 10
-47.2572
 20
-51.283
 11
-47.2473
 21
-51.3108
  0
LINE
  8
0
 10
-47.2473
 20
-51.3108
 11
-47.238
 21
-51.3388
  0
LINE
  8
0
 10
-47.238
 20
-51.3388
 11
-47.2297
 21
-51.3662
  0
LINE
  8
0
 10
-47.2297
 20
-51.3662
 11
-47.2219
 21
-51.3945
  0
LINE
  8
0
 10
-47.2219
 20
-51.3945
 11
-47.2148
 21
-51.4229
  0
LINE
  8
0
 10
-47.2148
 20
-51.4229
 11
-47.2083
 21
-51.4519
  0
LINE
  8
0
 10
-47.2083
 20
-51.4519
 11
-47.2027
 21
-51.4795
  0
LINE
  8
0
 10
-47.2027
 20
-51.4795
 11
-47.1976
 21
-51.5092
  0
LINE
  8
0
 10
-47.1976
 20
-51.5092
 11
-47.1934
 21
-51.5375
  0
LINE
  8
0
 10
-47.1934
 20
-51.5375
 11
-47.1897
 21
-51.5672
  0
LINE
  8
0
 10
-47.1897
 20
-51.5672
 11
-47.187
 21
-51.5955
  0
LINE
  8
0
 10
-47.187
 20
-51.5955
 11
-47.1848
 21
-51.6249
  0
LINE
  8
0
 10
-47.1848
 20
-51.6249
 11
-47.1833
 21
-51.6543
  0
LINE
  8
0
 10
-47.1833
 20
-51.6543
 11
-47.1825
 21
-51.69
  0
LINE
  8
0
 10
-47.1825
 20
-51.69
 11
-47.1823
 21
-51.7056
  0
LINE
  8
0
 10
-47.1823
 20
-51.7056
 11
-47.1823
 21
-56.3167
  0
LINE
  8
0
 10
-47.1823
 20
-56.3167
 11
-47.1808
 21
-56.3751
  0
LINE
  8
0
 10
-47.1808
 20
-56.3751
 11
-47.1765
 21
-56.4334
  0
LINE
  8
0
 10
-47.1765
 20
-56.4334
 11
-47.1694
 21
-56.4914
  0
LINE
  8
0
 10
-47.1694
 20
-56.4914
 11
-47.1594
 21
-56.549
  0
LINE
  8
0
 10
-47.1594
 20
-56.549
 11
-47.1466
 21
-56.606
  0
LINE
  8
0
 10
-47.1466
 20
-56.606
 11
-47.131
 21
-56.6623
  0
LINE
  8
0
 10
-47.131
 20
-56.6623
 11
-47.1127
 21
-56.7178
  0
LINE
  8
0
 10
-47.1127
 20
-56.7178
 11
-47.0916
 21
-56.7723
  0
LINE
  8
0
 10
-47.0916
 20
-56.7723
 11
-47.0679
 21
-56.8258
  0
LINE
  8
0
 10
-47.0679
 20
-56.8258
 11
-47.0417
 21
-56.878
  0
LINE
  8
0
 10
-47.0417
 20
-56.878
 11
-47.0129
 21
-56.9288
  0
LINE
  8
0
 10
-47.0129
 20
-56.9288
 11
-46.9816
 21
-56.9782
  0
LINE
  8
0
 10
-46.9816
 20
-56.9782
 11
-46.948
 21
-57.026
  0
LINE
  8
0
 10
-46.948
 20
-57.026
 11
-46.912
 21
-57.072
  0
LINE
  8
0
 10
-46.912
 20
-57.072
 11
-46.8738
 21
-57.1163
  0
LINE
  8
0
 10
-46.8738
 20
-57.1163
 11
-46.8335
 21
-57.1586
  0
LINE
  8
0
 10
-46.8335
 20
-57.1586
 11
-46.7912
 21
-57.1989
  0
LINE
  8
0
 10
-46.7912
 20
-57.1989
 11
-46.747
 21
-57.2371
  0
LINE
  8
0
 10
-46.747
 20
-57.2371
 11
-46.7009
 21
-57.273
  0
LINE
  8
0
 10
-46.7009
 20
-57.273
 11
-46.6531
 21
-57.3067
  0
LINE
  8
0
 10
-46.6531
 20
-57.3067
 11
-46.6037
 21
-57.338
  0
LINE
  8
0
 10
-46.6037
 20
-57.338
 11
-46.5529
 21
-57.3667
  0
LINE
  8
0
 10
-46.5529
 20
-57.3667
 11
-46.5007
 21
-57.393
  0
LINE
  8
0
 10
-46.5007
 20
-57.393
 11
-46.4473
 21
-57.4167
  0
LINE
  8
0
 10
-46.4473
 20
-57.4167
 11
-46.3927
 21
-57.4377
  0
LINE
  8
0
 10
-46.3927
 20
-57.4377
 11
-46.3373
 21
-57.4561
  0
LINE
  8
0
 10
-46.3373
 20
-57.4561
 11
-46.2809
 21
-57.4716
  0
LINE
  8
0
 10
-46.2809
 20
-57.4716
 11
-46.2239
 21
-57.4845
  0
LINE
  8
0
 10
-46.2239
 20
-57.4845
 11
-46.1663
 21
-57.4944
  0
LINE
  8
0
 10
-46.1663
 20
-57.4944
 11
-46.1083
 21
-57.5016
  0
LINE
  8
0
 10
-46.1083
 20
-57.5016
 11
-46.0501
 21
-57.5059
  0
LINE
  8
0
 10
-46.0501
 20
-57.5059
 11
-45.9916
 21
-57.5073
  0
LINE
  8
0
 10
-45.9916
 20
-57.5073
 11
-9.37289
 21
-57.5073
  0
LINE
  8
0
 10
-9.37289
 20
-57.5073
 11
-9.31447
 21
-57.5059
  0
LINE
  8
0
 10
-134.992
 20
60.568
 11
-134.992
 21
74.568
  0
LINE
  8
0
 10
-134.992
 20
74.568
 11
-120.992
 21
74.568
  0
LINE
  8
0
 10
-120.992
 20
74.568
 11
-120.992
 21
60.568
  0
LINE
  8
0
 10
-120.992
 20
60.568
 11
-134.992
 21
60.568
  0
LINE
  8
0
 10
120.992
 20
60.568
 11
120.992
 21
74.568
  0
LINE
  8
0
 10
120.992
 20
74.568
 11
134.992
 21
74.568
  0
LINE
  8
0
 10
134.992
 20
74.568
 11
134.992
 21
60.568
  0
LINE
  8
0
 10
134.992
 20
60.568
 11
120.992
 21
60.568
  0
LINE
  8
0
 10
-173.092
 20
59.675
 11
-173.092
 21
73.675
  0
LINE
  8
0
 10
-173.092
 20
73.675
 11
-159.092
 21
73.675
  0
LINE
  8
0
 10
-159.092
 20
73.675
 11
-159.092
 21
59.675
  0
LINE
  8
0
 10
-159.092
 20
59.675
 11
-173.092
 21
59.675
  0
LINE
  8
0
 10
178.142
 20
59.675
 11
178.142
 21
73.675
  0
LINE
  8
0
 10
178.142
 20
73.675
 11
192.142
 21
73.675
  0
LINE
  8
0
 10
192.142
 20
73.675
 11
192.142
 21
59.675
  0
LINE
  8
0
 10
192.142
 20
59.675
 11
178.142
 21
59.675
  0
LINE
  8
0
 10
159.092
 20
59.675
 11
159.092
 21
73.675
  0
LINE
  8
0
 10
159.092
 20
73.675
 11
173.092
 21
73.675
  0
LINE
  8
0
 10
173.092
 20
73.675
 11
173.092
 21
59.675
  0
LINE
  8
0
 10
173.092
 20
59.675
 11
159.092
 21
59.675
  0
LINE
  8
0
 10
140.042
 20
59.675
 11
140.042
 21
73.675
  0
LINE
  8
0
 10
140.042
 20
73.675
 11
154.042
 21
73.675
  0
LINE
  8
0
 10
154.042
 20
73.675
 11
154.042
 21
59.675
  0
LINE
  8
0
 10
154.042
 20
59.675
 11
140.042
 21
59.675
  0
LINE
  8
0
 10
-154.042
 20
59.675
 11
-154.042
 21
73.675
  0
LINE
  8
0
 10
-154.042
 20
73.675
 11
-140.042
 21
73.675
  0
LINE
  8
0
 10
-140.042
 20
73.675
 11
-140.042
 21
59.675
  0
LINE
  8
0
 10
-140.042
 20
59.675
 11
-154.042
 21
59.675
  0
LINE
  8
0
 10
-115.738
 20
58.3299
 11
-113.307
 21
72.1172
  0
LINE
  8
0
 10
-113.307
 20
72.1172
 11
-99.52
 21
69.6862
  0
LINE
  8
0
 10
-99.52
 20
69.6862
 11
-101.951
 21
55.8988
  0
LINE
  8
0
 10
-101.951
 20
55.8988
 11
-115.738
 21
58.3299
  0
LINE
  8
0
 10
99.52
 20
69.6862
 11
113.307
 21
72.1172
  0
LINE
  8
0
 10
113.307
 20
72.1172
 11
115.738
 21
58.3299
  0
LINE
  8
0
 10
115.738
 20
58.3299
 11
101.951
 21
55.8988
  0
LINE
  8
0
 10
101.951
 20
55.8988
 11
99.52
 21
69.6862
  0
LINE
  8
0
 10
80.7594
 20
66.3782
 11
94.5468
 21
68.8092
  0
LINE
  8
0
 10
94.5468
 20
68.8092
 11
96.9778
 21
55.0219
  0
LINE
  8
0
 10
96.9778
 20
55.0219
 11
83.1905
 21
52.5909
  0
LINE
  8
0
 10
83.1905
 20
52.5909
 11
80.7594
 21
66.3782
  0
LINE
  8
0
 10
-96.9778
 20
55.0219
 11
-94.5468
 21
68.8092
  0
LINE
  8
0
 10
-94.5468
 20
68.8092
 11
-80.7594
 21
66.3782
  0
LINE
  8
0
 10
-80.7594
 20
66.3782
 11
-83.1905
 21
52.5909
  0
LINE
  8
0
 10
-83.1905
 20
52.5909
 11
-96.9778
 21
55.0219
  0
LINE
  8
0
 10
61.9989
 20
63.0702
 11
75.7862
 21
65.5012
  0
LINE
  8
0
 10
75.7862
 20
65.5012
 11
78.2172
 21
51.7139
  0
LINE
  8
0
 10
78.2172
 20
51.7139
 11
64.4299
 21
49.2829
  0
LINE
  8
0
 10
64.4299
 20
49.2829
 11
61.9989
 21
63.0702
  0
LINE
  8
0
 10
-78.2172
 20
51.7139
 11
-75.7862
 21
65.5012
  0
LINE
  8
0
 10
-75.7862
 20
65.5012
 11
-61.9989
 21
63.0702
  0
LINE
  8
0
 10
-61.9989
 20
63.0702
 11
-64.4299
 21
49.2829
  0
LINE
  8
0
 10
-64.4299
 20
49.2829
 11
-78.2172
 21
51.7139
  0
LINE
  8
0
 10
43.2383
 20
59.7622
 11
57.0256
 21
62.1932
  0
LINE
  8
0
 10
57.0256
 20
62.1932
 11
59.4566
 21
48.4059
  0
LINE
  8
0
 10
59.4566
 20
48.4059
 11
45.6693
 21
45.9749
  0
LINE
  8
0
 10
45.6693
 20
45.9749
 11
43.2383
 21
59.7622
  0
LINE
  8
0
 10
-59.4566
 20
48.4059
 11
-57.0256
 21
62.1932
  0
LINE
  8
0
 10
-57.0256
 20
62.1932
 11
-43.2383
 21
59.7622
  0
LINE
  8
0
 10
-43.2383
 20
59.7622
 11
-45.6693
 21
45.9749
  0
LINE
  8
0
 10
-45.6693
 20
45.9749
 11
-59.4566
 21
48.4059
  0
LINE
  8
0
 10
112.208
 20
52.5796
 11
125.996
 21
55.0107
  0
LINE
  8
0
 10
125.996
 20
55.0107
 11
128.427
 21
41.2234
  0
LINE
  8
0
 10
128.427
 20
41.2234
 11
114.639
 21
38.7923
  0
LINE
  8
0
 10
114.639
 20
38.7923
 11
112.208
 21
52.5796
  0
LINE
  8
0
 10
-128.427
 20
41.2234
 11
-125.996
 21
55.0107
  0
LINE
  8
0
 10
-125.996
 20
55.0107
 11
-112.208
 21
52.5796
  0
LINE
  8
0
 10
-112.208
 20
52.5796
 11
-114.639
 21
38.7923
  0
LINE
  8
0
 10
-114.639
 20
38.7923
 11
-128.427
 21
41.2234
  0
LINE
  8
0
 10
-171.902
 20
40.625
 11
-171.902
 21
54.625
  0
LINE
  8
0
 10
-171.902
 20
54.625
 11
-157.902
 21
54.625
  0
LINE
  8
0
 10
-157.902
 20
54.625
 11
-157.902
 21
40.625
  0
LINE
  8
0
 10
-157.902
 20
40.625
 11
-171.902
 21
40.625
  0
LINE
  8
0
 10
172.189
 20
40.625
 11
172.189
 21
54.625
  0
LINE
  8
0
 10
172.189
 20
54.625
 11
186.189
 21
54.625
  0
LINE
  8
0
 10
186.189
 20
54.625
 11
186.189
 21
40.625
  0
LINE
  8
0
 10
186.189
 20
40.625
 11
172.189
 21
40.625
  0
LINE
  8
0
 10
153.139
 20
40.625
 11
153.139
 21
54.625
  0
LINE
  8
0
 10
153.139
 20
54.625
 11
167.139
 21
54.625
  0
LINE
  8
0
 10
167.139
 20
54.625
 11
167.139
 21
40.625
  0
LINE
  8
0
 10
167.139
 20
40.625
 11
153.139
 21
40.625
  0
LINE
  8
0
 10
134.089
 20
40.625
 11
134.089
 21
54.625
  0
LINE
  8
0
 10
134.089
 20
54.625
 11
148.089
 21
54.625
  0
LINE
  8
0
 10
148.089
 20
54.625
 11
148.089
 21
40.625
  0
LINE
  8
0
 10
148.089
 20
40.625
 11
134.089
 21
40.625
  0
LINE
  8
0
 10
-148.089
 20
40.625
 11
-148.089
 21
54.625
  0
LINE
  8
0
 10
-148.089
 20
54.625
 11
-134.089
 21
54.625
  0
LINE
  8
0
 10
-134.089
 20
54.625
 11
-134.089
 21
40.625
  0
LINE
  8
0
 10
-134.089
 20
40.625
 11
-148.089
 21
40.625
  0
LINE
  8
0
 10
93.4477
 20
49.2716
 11
107.235
 21
51.7027
  0
LINE
  8
0
 10
107.235
 20
51.7027
 11
109.666
 21
37.9154
  0
LINE
  8
0
 10
109.666
 20
37.9154
 11
95.8788
 21
35.4843
  0
LINE
  8
0
 10
95.8788
 20
35.4843
 11
93.4477
 21
49.2716
  0
LINE
  8
0
 10
-109.666
 20
37.9154
 11
-107.235
 21
51.7027
  0
LINE
  8
0
 10
-107.235
 20
51.7027
 11
-93.4477
 21
49.2716
  0
LINE
  8
0
 10
-93.4477
 20
49.2716
 11
-95.8788
 21
35.4843
  0
LINE
  8
0
 10
-95.8788
 20
35.4843
 11
-109.666
 21
37.9154
  0
LINE
  8
0
 10
74.6871
 20
45.9636
 11
88.4745
 21
48.3947
  0
LINE
  8
0
 10
88.4745
 20
48.3947
 11
90.9055
 21
34.6074
  0
LINE
  8
0
 10
90.9055
 20
34.6074
 11
77.1182
 21
32.1763
  0
LINE
  8
0
 10
77.1182
 20
32.1763
 11
74.6871
 21
45.9636
  0
LINE
  8
0
 10
-90.9055
 20
34.6074
 11
-88.4745
 21
48.3947
  0
LINE
  8
0
 10
-88.4745
 20
48.3947
 11
-74.6871
 21
45.9636
  0
LINE
  8
0
 10
-74.6871
 20
45.9636
 11
-77.1182
 21
32.1763
  0
LINE
  8
0
 10
-77.1182
 20
32.1763
 11
-90.9055
 21
34.6074
  0
LINE
  8
0
 10
55.9266
 20
42.6556
 11
69.7139
 21
45.0867
  0
LINE
  8
0
 10
69.7139
 20
45.0867
 11
72.145
 21
31.2994
  0
LINE
  8
0
 10
72.145
 20
31.2994
 11
58.3577
 21
28.8683
  0
LINE
  8
0
 10
58.3577
 20
28.8683
 11
55.9266
 21
42.6556
  0
LINE
  8
0
 10
-72.145
 20
31.2994
 11
-69.7139
 21
45.0867
  0
LINE
  8
0
 10
-69.7139
 20
45.0867
 11
-55.9266
 21
42.6556
  0
LINE
  8
0
 10
-55.9266
 20
42.6556
 11
-58.3577
 21
28.8683
  0
LINE
  8
0
 10
-58.3577
 20
28.8683
 11
-72.145
 21
31.2994
  0
LINE
  8
0
 10
-131.735
 20
22.4628
 11
-129.304
 21
36.2501
  0
LINE
  8
0
 10
-129.304
 20
36.2501
 11
-115.516
 21
33.819
  0
LINE
  8
0
 10
-115.516
 20
33.819
 11
-117.947
 21
20.0317
  0
LINE
  8
0
 10
-117.947
 20
20.0317
 11
-131.735
 21
22.4628
  0
LINE
  8
0
 10
115.516
 20
33.819
 11
129.304
 21
36.2501
  0
LINE
  8
0
 10
129.304
 20
36.2501
 11
131.735
 21
22.4628
  0
LINE
  8
0
 10
131.735
 20
22.4628
 11
117.947
 21
20.0317
  0
LINE
  8
0
 10
117.947
 20
20.0317
 11
115.516
 21
33.819
  0
LINE
  8
0
 10
156.413
 20
21.575
 11
156.413
 21
35.575
  0
LINE
  8
0
 10
156.413
 20
35.575
 11
170.413
 21
35.575
  0
LINE
  8
0
 10
170.413
 20
35.575
 11
170.413
 21
21.575
  0
LINE
  8
0
 10
170.413
 20
21.575
 11
156.413
 21
21.575
  0
LINE
  8
0
 10
137.363
 20
21.575
 11
137.363
 21
35.575
  0
LINE
  8
0
 10
137.363
 20
35.575
 11
151.363
 21
35.575
  0
LINE
  8
0
 10
151.363
 20
35.575
 11
151.363
 21
21.575
  0
LINE
  8
0
 10
151.363
 20
21.575
 11
137.363
 21
21.575
  0
LINE
  8
0
 10
175.463
 20
21.575
 11
175.463
 21
35.575
  0
LINE
  8
0
 10
175.463
 20
35.575
 11
189.463
 21
35.575
  0
LINE
  8
0
 10
189.463
 20
35.575
 11
189.463
 21
21.575
  0
LINE
  8
0
 10
189.463
 20
21.575
 11
175.463
 21
21.575
  0
LINE
  8
0
 10
-151.363
 20
21.575
 11
-151.363
 21
35.575
  0
LINE
  8
0
 10
-151.363
 20
35.575
 11
-137.363
 21
35.575
  0
LINE
  8
0
 10
-137.363
 20
35.575
 11
-137.363
 21
21.575
  0
LINE
  8
0
 10
-137.363
 20
21.575
 11
-151.363
 21
21.575
  0
LINE
  8
0
 10
-177.557
 20
21.575
 11
-177.557
 21
35.575
  0
LINE
  8
0
 10
-177.557
 20
35.575
 11
-163.557
 21
35.575
  0
LINE
  8
0
 10
-163.557
 20
35.575
 11
-163.557
 21
21.575
  0
LINE
  8
0
 10
-163.557
 20
21.575
 11
-177.557
 21
21.575
  0
LINE
  8
0
 10
-112.974
 20
19.1548
 11
-110.543
 21
32.9421
  0
LINE
  8
0
 10
-110.543
 20
32.9421
 11
-96.7557
 21
30.511
  0
LINE
  8
0
 10
-96.7557
 20
30.511
 11
-99.1868
 21
16.7237
  0
LINE
  8
0
 10
-99.1868
 20
16.7237
 11
-112.974
 21
19.1548
  0
LINE
  8
0
 10
96.7557
 20
30.511
 11
110.543
 21
32.9421
  0
LINE
  8
0
 10
110.543
 20
32.9421
 11
112.974
 21
19.1548
  0
LINE
  8
0
 10
112.974
 20
19.1548
 11
99.1868
 21
16.7237
  0
LINE
  8
0
 10
99.1868
 20
16.7237
 11
96.7557
 21
30.511
  0
LINE
  8
0
 10
-94.2135
 20
15.8468
 11
-91.7825
 21
29.6341
  0
LINE
  8
0
 10
-91.7825
 20
29.6341
 11
-77.9951
 21
27.203
  0
LINE
  8
0
 10
-77.9951
 20
27.203
 11
-80.4262
 21
13.4157
  0
LINE
  8
0
 10
-80.4262
 20
13.4157
 11
-94.2135
 21
15.8468
  0
LINE
  8
0
 10
77.9951
 20
27.203
 11
91.7825
 21
29.6341
  0
LINE
  8
0
 10
91.7825
 20
29.6341
 11
94.2135
 21
15.8468
  0
LINE
  8
0
 10
94.2135
 20
15.8468
 11
80.4262
 21
13.4157
  0
LINE
  8
0
 10
80.4262
 20
13.4157
 11
77.9951
 21
27.203
  0
LINE
  8
0
 10
59.2346
 20
23.895
 11
73.0219
 21
26.3261
  0
LINE
  8
0
 10
73.0219
 20
26.3261
 11
75.453
 21
12.5388
  0
LINE
  8
0
 10
75.453
 20
12.5388
 11
61.6656
 21
10.1077
  0
LINE
  8
0
 10
61.6656
 20
10.1077
 11
59.2346
 21
23.895
  0
LINE
  8
0
 10
-75.453
 20
12.5388
 11
-73.0219
 21
26.3261
  0
LINE
  8
0
 10
-73.0219
 20
26.3261
 11
-59.2346
 21
23.895
  0
LINE
  8
0
 10
-59.2346
 20
23.895
 11
-61.6656
 21
10.1077
  0
LINE
  8
0
 10
-61.6656
 20
10.1077
 11
-75.453
 21
12.5388
  0
LINE
  8
0
 10
131.112
 20
2.52499
 11
131.112
 21
16.525
  0
LINE
  8
0
 10
131.112
 20
16.525
 11
145.112
 21
16.525
  0
LINE
  8
0
 10
145.112
 20
16.525
 11
145.112
 21
2.52499
  0
LINE
  8
0
 10
145.112
 20
2.52499
 11
131.112
 21
2.52499
  0
LINE
  8
0
 10
-145.112
 20
2.52499
 11
-145.112
 21
16.525
  0
LINE
  8
0
 10
-145.112
 20
16.525
 11
-131.112
 21
16.525
  0
LINE
  8
0
 10
-131.112
 20
16.525
 11
-131.112
 21
2.52499
  0
LINE
  8
0
 10
-131.112
 20
2.52499
 11
-145.112
 21
2.52499
  0
LINE
  8
0
 10
-171.306
 20
2.52499
 11
-171.306
 21
16.525
  0
LINE
  8
0
 10
-171.306
 20
16.525
 11
-157.306
 21
16.525
  0
LINE
  8
0
 10
-157.306
 20
16.525
 11
-157.306
 21
2.52499
  0
LINE
  8
0
 10
-157.306
 20
2.52499
 11
-171.306
 21
2.52499
  0
LINE
  8
0
 10
150.162
 20
2.52499
 11
150.162
 21
16.525
  0
LINE
  8
0
 10
150.162
 20
16.525
 11
164.162
 21
16.525
  0
LINE
  8
0
 10
164.162
 20
16.525
 11
164.162
 21
2.52499
  0
LINE
  8
0
 10
164.162
 20
2.52499
 11
150.162
 21
2.52499
  0
LINE
  8
0
 10
169.212
 20
2.52499
 11
169.212
 21
16.525
  0
LINE
  8
0
 10
169.212
 20
16.525
 11
183.212
 21
16.525
  0
LINE
  8
0
 10
183.212
 20
16.525
 11
183.212
 21
2.52499
  0
LINE
  8
0
 10
183.212
 20
2.52499
 11
169.212
 21
2.52499
  0
LINE
  8
0
 10
-125.662
 20
2.04817
 11
-123.231
 21
15.8355
  0
LINE
  8
0
 10
-123.231
 20
15.8355
 11
-109.444
 21
13.4044
  0
LINE
  8
0
 10
-109.444
 20
13.4044
 11
-111.875
 21
-0.382889
  0
LINE
  8
0
 10
-111.875
 20
-0.382889
 11
-125.662
 21
2.04817
  0
LINE
  8
0
 10
109.444
 20
13.4044
 11
123.231
 21
15.8355
  0
LINE
  8
0
 10
123.231
 20
15.8355
 11
125.662
 21
2.04817
  0
LINE
  8
0
 10
125.662
 20
2.04817
 11
111.875
 21
-0.382889
  0
LINE
  8
0
 10
111.875
 20
-0.382889
 11
109.444
 21
13.4044
  0
LINE
  8
0
 10
-106.902
 20
-1.25981
 11
-104.471
 21
12.5275
  0
LINE
  8
0
 10
-104.471
 20
12.5275
 11
-90.6834
 21
10.0964
  0
LINE
  8
0
 10
-90.6834
 20
10.0964
 11
-93.1145
 21
-3.69089
  0
LINE
  8
0
 10
-93.1145
 20
-3.69089
 11
-106.902
 21
-1.25981
  0
LINE
  8
0
 10
90.6834
 20
10.0964
 11
104.471
 21
12.5275
  0
LINE
  8
0
 10
104.471
 20
12.5275
 11
106.902
 21
-1.25981
  0
LINE
  8
0
 10
106.902
 20
-1.25981
 11
93.1145
 21
-3.69089
  0
LINE
  8
0
 10
93.1145
 20
-3.69089
 11
90.6834
 21
10.0964
  0
LINE
  8
0
 10
-88.1412
 20
-4.56781
 11
-85.7101
 21
9.21948
  0
LINE
  8
0
 10
-85.7101
 20
9.21948
 11
-71.9228
 21
6.78841
  0
LINE
  8
0
 10
-71.9228
 20
6.78841
 11
-74.3539
 21
-6.99889
  0
LINE
  8
0
 10
-74.3539
 20
-6.99889
 11
-88.1412
 21
-4.56781
  0
LINE
  8
0
 10
71.9228
 20
6.78841
 11
85.7101
 21
9.21948
  0
LINE
  8
0
 10
85.7101
 20
9.21948
 11
88.1412
 21
-4.56781
  0
LINE
  8
0
 10
88.1412
 20
-4.56781
 11
74.3539
 21
-6.99889
  0
LINE
  8
0
 10
74.3539
 20
-6.99889
 11
71.9228
 21
6.78841
  0
LINE
  8
0
 10
-69.3806
 20
-7.87581
 11
-66.9496
 21
5.91148
  0
LINE
  8
0
 10
-66.9496
 20
5.91148
 11
-53.1623
 21
3.48041
  0
LINE
  8
0
 10
-53.1623
 20
3.48041
 11
-55.5933
 21
-10.3069
  0
LINE
  8
0
 10
-55.5933
 20
-10.3069
 11
-69.3806
 21
-7.87581
  0
LINE
  8
0
 10
53.1623
 20
3.48041
 11
66.9496
 21
5.91148
  0
LINE
  8
0
 10
66.9496
 20
5.91148
 11
69.3806
 21
-7.87581
  0
LINE
  8
0
 10
69.3806
 20
-7.87581
 11
55.5933
 21
-10.3069
  0
LINE
  8
0
 10
55.5933
 20
-10.3069
 11
53.1623
 21
3.48041
  0
LINE
  8
0
 10
157.306
 20
-16.525
 11
157.306
 21
-2.52499
  0
LINE
  8
0
 10
157.306
 20
-2.52499
 11
171.306
 21
-2.52499
  0
LINE
  8
0
 10
171.306
 20
-2.52499
 11
171.306
 21
-16.525
  0
LINE
  8
0
 10
171.306
 20
-16.525
 11
157.306
 21
-16.525
  0
LINE
  8
0
 10
-171.306
 20
-16.525
 11
-171.306
 21
-2.52499
  0
LINE
  8
0
 10
-171.306
 20
-2.52499
 11
-157.306
 21
-2.52499
  0
LINE
  8
0
 10
-157.306
 20
-2.52499
 11
-157.306
 21
-16.525
  0
LINE
  8
0
 10
-157.306
 20
-16.525
 11
-171.306
 21
-16.525
  0
LINE
  8
0
 10
-149.875
 20
-16.525
 11
-149.875
 21
-2.52499
  0
LINE
  8
0
 10
-149.875
 20
-2.52499
 11
-135.875
 21
-2.52499
  0
LINE
  8
0
 10
-135.875
 20
-2.52499
 11
-135.875
 21
-16.525
  0
LINE
  8
0
 10
-135.875
 20
-16.525
 11
-149.875
 21
-16.525
  0
LINE
  8
0
 10
135.875
 20
-16.525
 11
135.875
 21
-2.52499
  0
LINE
  8
0
 10
135.875
 20
-2.52499
 11
149.875
 21
-2.52499
  0
LINE
  8
0
 10
149.875
 20
-2.52499
 11
149.875
 21
-16.525
  0
LINE
  8
0
 10
149.875
 20
-16.525
 11
135.875
 21
-16.525
  0
LINE
  8
0
 10
110.407
 20
-5.76967
 11
124.194
 21
-3.33859
  0
LINE
  8
0
 10
124.194
 20
-3.33859
 11
126.625
 21
-17.1259
  0
LINE
  8
0
 10
126.625
 20
-17.1259
 11
112.838
 21
-19.557
  0
LINE
  8
0
 10
112.838
 20
-19.557
 11
110.407
 21
-5.76967
  0
LINE
  8
0
 10
-126.625
 20
-17.1259
 11
-124.194
 21
-3.33859
  0
LINE
  8
0
 10
-124.194
 20
-3.33859
 11
-110.407
 21
-5.76967
  0
LINE
  8
0
 10
-110.407
 20
-5.76967
 11
-112.838
 21
-19.557
  0
LINE
  8
0
 10
-112.838
 20
-19.557
 11
-126.625
 21
-17.1259
  0
LINE
  8
0
 10
-103.175
 20
-21.2609
 11
-100.744
 21
-7.47359
  0
LINE
  8
0
 10
-100.744
 20
-7.47359
 11
-86.9562
 21
-9.90466
  0
LINE
  8
0
 10
-86.9562
 20
-9.90466
 11
-89.3873
 21
-23.692
  0
LINE
  8
0
 10
-89.3873
 20
-23.692
 11
-103.175
 21
-21.2609
  0
LINE
  8
0
 10
86.9562
 20
-9.90466
 11
100.744
 21
-7.47359
  0
LINE
  8
0
 10
100.744
 20
-7.47359
 11
103.175
 21
-21.2609
  0
LINE
  8
0
 10
103.175
 20
-21.2609
 11
89.3873
 21
-23.692
  0
LINE
  8
0
 10
89.3873
 20
-23.692
 11
86.9562
 21
-9.90466
  0
LINE
  8
0
 10
-54.1553
 20
-21.8579
 11
-45.1563
 21
-11.1332
  0
LINE
  8
0
 10
-45.1563
 20
-11.1332
 11
-34.4317
 21
-20.1323
  0
LINE
  8
0
 10
-34.4317
 20
-20.1323
 11
-43.4307
 21
-30.8569
  0
LINE
  8
0
 10
-43.4307
 20
-30.8569
 11
-54.1553
 21
-21.8579
  0
LINE
  8
0
 10
34.4317
 20
-20.1323
 11
45.1563
 21
-11.1332
  0
LINE
  8
0
 10
45.1563
 20
-11.1332
 11
54.1553
 21
-21.8579
  0
LINE
  8
0
 10
54.1553
 20
-21.8579
 11
43.4307
 21
-30.8569
  0
LINE
  8
0
 10
43.4307
 20
-30.8569
 11
34.4317
 21
-20.1323
  0
LINE
  8
0
 10
-80.9935
 20
-24.2059
 11
-71.9945
 21
-13.4813
  0
LINE
  8
0
 10
-71.9945
 20
-13.4813
 11
-61.2699
 21
-22.4803
  0
LINE
  8
0
 10
-61.2699
 20
-22.4803
 11
-70.2689
 21
-33.2049
  0
LINE
  8
0
 10
-70.2689
 20
-33.2049
 11
-80.9935
 21
-24.2059
  0
LINE
  8
0
 10
61.2699
 20
-22.4803
 11
71.9945
 21
-13.4813
  0
LINE
  8
0
 10
71.9945
 20
-13.4813
 11
80.9935
 21
-24.2059
  0
LINE
  8
0
 10
80.9935
 20
-24.2059
 11
70.2689
 21
-33.2049
  0
LINE
  8
0
 10
70.2689
 20
-33.2049
 11
61.2699
 21
-22.4803
  0
LINE
  8
0
 10
46.6767
 20
-34.7254
 11
57.4014
 21
-25.7264
  0
LINE
  8
0
 10
57.4014
 20
-25.7264
 11
66.4004
 21
-36.451
  0
LINE
  8
0
 10
66.4004
 20
-36.451
 11
55.6758
 21
-45.45
  0
LINE
  8
0
 10
55.6758
 20
-45.45
 11
46.6767
 21
-34.7254
  0
LINE
  8
0
 10
-66.4004
 20
-36.451
 11
-57.4014
 21
-25.7264
  0
LINE
  8
0
 10
-57.4014
 20
-25.7264
 11
-46.6767
 21
-34.7254
  0
LINE
  8
0
 10
-46.6767
 20
-34.7254
 11
-55.6758
 21
-45.45
  0
LINE
  8
0
 10
-55.6758
 20
-45.45
 11
-66.4004
 21
-36.451
  0
ENDSEC
  0
SECTION
  2
OBJECTS
  0
DICTIONARY
  0
ENDSEC
  0
EOF
