M48
; DRILL file {KiCad (5.1.5-0-10_14)} date 2020 June 18, Thursday 23:30:59
; FORMAT={-:-/ absolute / metric / decimal}
; #@! TF.CreationDate,2020-06-18T23:30:59+09:00
; #@! TF.GenerationSoftware,Kicad,Pcbnew,(5.1.5-0-10_14)
; #@! TF.FileFunction,NonPlated,1,2,NPTH
FMAT,2
METRIC
T1C1.200
T2C1.900
T3C3.000
T4C4.100
%
G90
G05
T1
X223.242Y-73.235
X223.242Y-80.235
T2
X321.872Y-161.158
X331.878Y-159.394
X344.368Y-101.203
X354.528Y-101.203
X120.56Y-107.66
X130.566Y-109.425
X289.461Y-128.185
X299.466Y-126.421
X85.803Y-140.22
X95.809Y-141.984
X302.149Y-145.292
X312.155Y-143.528
X123.324Y-146.836
X133.33Y-148.6
X83.039Y-101.044
X93.045Y-102.809
X84.84Y-159.394
X94.846Y-161.158
X65.167Y-139.303
X75.327Y-139.303
X346.153Y-158.353
X356.313Y-158.353
X283.388Y-148.6
X293.394Y-146.836
X363.418Y-101.203
X373.578Y-101.203
X369.371Y-82.153
X379.531Y-82.153
X142.085Y-150.144
X152.091Y-151.908
X379.491Y-139.303
X389.651Y-139.303
X108.291Y-163.529
X118.297Y-165.293
X367.585Y-158.353
X377.745Y-158.353
X292.225Y-89.01
X302.231Y-87.246
X382.467Y-101.203
X392.627Y-101.203
X366.692Y-120.253
X376.852Y-120.253
X286.153Y-109.425
X296.158Y-107.66
X248.761Y-173.088
X256.544Y-166.558
X133.336Y-168.906
X141.119Y-175.436
X58.916Y-120.253
X69.076Y-120.253
X308.221Y-124.877
X318.227Y-123.113
X147.913Y-180.984
X155.696Y-187.514
X310.986Y-85.702
X320.991Y-83.938
X270.7Y-131.493
X280.706Y-129.729
X385.742Y-120.253
X395.902Y-120.253
X139.321Y-110.968
X149.326Y-112.733
X95.727Y-83.938
X105.733Y-85.702
X326.982Y-121.569
X336.987Y-119.805
X38.973Y-158.353
X49.133Y-158.353
X261.006Y-187.682
X268.789Y-181.151
X117.252Y-126.421
X127.258Y-128.185
X114.488Y-87.246
X124.493Y-89.01
X79.731Y-119.805
X89.737Y-121.569
X38.378Y-101.203
X48.538Y-101.203
X160.174Y-166.558
X167.957Y-173.088
X275.599Y-175.436
X283.382Y-168.906
X264.628Y-151.908
X274.633Y-150.144
X38.973Y-139.303
X49.133Y-139.303
X254.704Y-95.626
X264.709Y-93.862
X267.392Y-112.733
X277.398Y-110.968
X133.248Y-90.554
X143.254Y-92.318
X331.271Y-81.26
X341.431Y-81.26
X304.913Y-106.117
X314.919Y-104.352
X320.909Y-141.984
X330.915Y-140.22
X298.422Y-165.293
X308.427Y-163.529
X60.404Y-158.353
X70.564Y-158.353
X136.013Y-129.729
X146.018Y-131.493
X56.237Y-82.153
X66.397Y-82.153
X62.19Y-101.203
X72.35Y-101.203
X98.492Y-123.113
X108.497Y-124.877
X350.321Y-82.153
X360.481Y-82.153
X388.421Y-82.153
X398.581Y-82.153
X152.009Y-93.862
X162.015Y-95.626
X323.674Y-102.809
X333.679Y-101.044
X341.391Y-139.303
X351.551Y-139.303
X37.187Y-82.153
X47.347Y-82.153
X101.8Y-104.352
X111.805Y-106.117
X75.287Y-81.26
X85.447Y-81.26
X32.722Y-120.253
X42.882Y-120.253
X360.441Y-139.303
X370.601Y-139.303
X104.564Y-143.528
X114.569Y-145.292
X273.464Y-92.318
X283.47Y-90.554
X347.642Y-120.253
X357.802Y-120.253
T3
X248.101Y-170.326
X251.333Y-164.299
X135.942Y-167.776
X142.439Y-169.912
X60.186Y-117.713
X66.536Y-115.173
X309.031Y-122.155
X314.843Y-118.551
X150.519Y-179.854
X157.016Y-181.99
X311.795Y-82.98
X317.608Y-79.376
X271.51Y-128.771
X277.322Y-125.167
X387.012Y-117.713
X393.362Y-115.173
X141.012Y-108.688
X147.707Y-107.289
X97.419Y-81.657
X104.114Y-80.258
X327.791Y-118.847
X333.604Y-115.243
X40.243Y-155.813
X46.593Y-153.273
X260.346Y-184.919
X263.578Y-178.892
X118.944Y-124.14
X125.638Y-122.741
X116.18Y-84.965
X122.874Y-83.566
X81.423Y-117.524
X88.117Y-116.125
X39.648Y-98.663
X45.998Y-96.123
X162.78Y-165.428
X169.277Y-167.564
X274.939Y-172.674
X278.171Y-166.647
X265.437Y-149.186
X271.25Y-145.582
X40.243Y-136.763
X46.593Y-134.223
X255.513Y-92.904
X261.326Y-89.3
X268.202Y-110.011
X274.014Y-106.407
X134.94Y-88.273
X141.635Y-86.874
X332.541Y-78.72
X338.891Y-76.18
X305.723Y-103.395
X311.535Y-99.791
X321.719Y-139.262
X327.532Y-135.658
X299.231Y-162.571
X305.044Y-158.967
X61.674Y-155.813
X68.024Y-153.273
X137.704Y-127.448
X144.399Y-126.049
X57.507Y-79.613
X63.857Y-77.073
X63.46Y-98.663
X69.81Y-96.123
X100.183Y-120.832
X106.878Y-119.433
X351.591Y-79.613
X357.941Y-77.073
X389.691Y-79.613
X396.041Y-77.073
X153.701Y-91.581
X160.395Y-90.182
X324.483Y-100.087
X330.296Y-96.483
X342.661Y-136.763
X349.011Y-134.223
X38.457Y-79.613
X44.807Y-77.073
X103.491Y-102.072
X110.186Y-100.673
X76.557Y-78.72
X82.907Y-76.18
X33.992Y-117.713
X40.342Y-115.173
X361.711Y-136.763
X368.061Y-134.223
X106.256Y-141.247
X112.95Y-139.848
X274.274Y-89.596
X280.086Y-85.992
X348.912Y-117.713
X355.262Y-115.173
X322.682Y-158.436
X328.495Y-154.832
X345.638Y-98.663
X351.988Y-96.123
X122.252Y-105.38
X128.946Y-103.981
X290.27Y-125.463
X296.083Y-121.859
X87.495Y-137.939
X94.19Y-136.54
X302.959Y-142.57
X308.771Y-138.966
X125.016Y-144.555
X131.711Y-143.156
X84.731Y-98.764
X91.425Y-97.365
X86.532Y-157.113
X93.227Y-155.714
X66.437Y-136.763
X72.787Y-134.223
X347.423Y-155.813
X353.773Y-153.273
X284.198Y-145.878
X290.01Y-142.274
X364.688Y-98.663
X371.038Y-96.123
X370.641Y-79.613
X376.991Y-77.073
X143.777Y-147.863
X150.471Y-146.464
X380.761Y-136.763
X387.111Y-134.223
X109.983Y-161.248
X116.677Y-159.849
X368.855Y-155.813
X375.205Y-153.273
X293.035Y-86.288
X298.847Y-82.684
X383.737Y-98.663
X390.087Y-96.123
X367.962Y-117.713
X374.312Y-115.173
X286.962Y-106.703
X292.775Y-103.099
T4
X371.772Y-120.253
X291.155Y-108.543
X252.653Y-169.823
X137.228Y-172.171
X63.996Y-120.253
X313.224Y-123.995
X151.805Y-184.249
X315.988Y-84.82
X275.703Y-130.611
X390.822Y-120.253
X144.324Y-111.851
X100.73Y-84.82
X331.985Y-120.687
X44.053Y-158.353
X264.898Y-184.416
X122.255Y-127.303
X119.491Y-88.128
X84.734Y-120.687
X43.458Y-101.203
X164.066Y-169.823
X279.491Y-172.171
X269.631Y-151.026
X44.053Y-139.303
X259.707Y-94.744
X272.395Y-111.851
X138.251Y-91.436
X336.351Y-81.26
X309.916Y-105.235
X325.912Y-141.102
X303.425Y-164.411
X65.484Y-158.353
X141.016Y-130.611
X61.317Y-82.153
X67.27Y-101.203
X103.494Y-123.995
X355.401Y-82.153
X393.501Y-82.153
X157.012Y-94.744
X328.677Y-101.927
X346.471Y-139.303
X42.267Y-82.153
X106.802Y-105.235
X80.367Y-81.26
X37.802Y-120.253
X365.521Y-139.303
X109.567Y-144.41
X278.467Y-91.436
X352.722Y-120.253
X326.875Y-160.276
X349.448Y-101.203
X125.563Y-108.543
X294.463Y-127.303
X90.806Y-141.102
X307.152Y-144.41
X128.327Y-147.718
X88.042Y-101.927
X89.843Y-160.276
X70.247Y-139.303
X351.233Y-158.353
X288.391Y-147.718
X368.498Y-101.203
X374.451Y-82.153
X147.088Y-151.026
X384.571Y-139.303
X113.294Y-164.411
X372.665Y-158.353
X297.228Y-88.128
X387.547Y-101.203
T0
M30
