G04 #@! TF.GenerationSoftware,KiCad,Pcbnew,(5.1.5-0-10_14)*
G04 #@! TF.CreationDate,2020-06-18T23:30:57+09:00*
G04 #@! TF.ProjectId,angelina_integrated,616e6765-6c69-46e6-915f-696e74656772,rev?*
G04 #@! TF.SameCoordinates,Original*
G04 #@! TF.FileFunction,Profile,NP*
%FSLAX46Y46*%
G04 Gerber Fmt 4.6, Leading zero omitted, Abs format (unit mm)*
G04 Created by KiCad (PCBNEW (5.1.5-0-10_14)) date 2020-06-18 23:30:57*
%MOMM*%
%LPD*%
G04 APERTURE LIST*
%ADD10C,0.050000*%
G04 APERTURE END LIST*
D10*
X203623770Y-79634700D02*
X203599880Y-79617900D01*
X203648460Y-79650400D02*
X203623770Y-79634700D01*
X203673880Y-79664800D02*
X203648460Y-79650400D01*
X203699970Y-79677900D02*
X203673880Y-79664800D01*
X203331410Y-72151000D02*
X203326610Y-72136400D01*
X203335400Y-72164100D02*
X203331410Y-72151000D01*
X203339360Y-72178500D02*
X203335400Y-72164100D01*
X203343030Y-72193100D02*
X203339360Y-72178500D01*
X203346120Y-72206900D02*
X203343030Y-72193100D01*
X203349040Y-72221500D02*
X203346120Y-72206900D01*
X203351570Y-72236100D02*
X203349040Y-72221500D01*
X203353620Y-72249800D02*
X203351570Y-72236100D01*
X203355490Y-72265100D02*
X203353620Y-72249800D01*
X203356870Y-72279000D02*
X203355490Y-72265100D01*
X203357980Y-72294300D02*
X203356870Y-72279000D01*
X203358650Y-72307900D02*
X203357980Y-72294300D01*
X203359110Y-72326700D02*
X203358650Y-72307900D01*
X203359200Y-72334500D02*
X203359110Y-72326700D01*
X203359200Y-79139700D02*
X203359200Y-72334500D01*
X203359920Y-79168900D02*
X203359200Y-79139700D01*
X203362050Y-79198100D02*
X203359920Y-79168900D01*
X203365640Y-79227100D02*
X203362050Y-79198100D01*
X203370630Y-79255900D02*
X203365640Y-79227100D01*
X203377040Y-79284400D02*
X203370630Y-79255900D01*
X203384830Y-79312500D02*
X203377040Y-79284400D01*
X203393990Y-79340300D02*
X203384830Y-79312500D01*
X203404500Y-79367600D02*
X203393990Y-79340300D01*
X203416340Y-79394300D02*
X203404500Y-79367600D01*
X203429480Y-79420400D02*
X203416340Y-79394300D01*
X203443890Y-79445800D02*
X203429480Y-79420400D01*
X203459530Y-79470500D02*
X203443890Y-79445800D01*
X203476340Y-79494400D02*
X203459530Y-79470500D01*
X203494320Y-79517400D02*
X203476340Y-79494400D01*
X203513410Y-79539500D02*
X203494320Y-79517400D01*
X203533560Y-79560700D02*
X203513410Y-79539500D01*
X203554730Y-79580800D02*
X203533560Y-79560700D01*
X203576850Y-79599900D02*
X203554730Y-79580800D01*
X203599880Y-79617900D02*
X203576850Y-79599900D01*
X338441200Y-167947900D02*
X338469200Y-167938400D01*
X338407200Y-167960500D02*
X338441200Y-167947900D01*
X212763890Y-104785000D02*
X203954510Y-104785000D01*
X212793100Y-104784300D02*
X212763890Y-104785000D01*
X212822240Y-104782200D02*
X212793100Y-104784300D01*
X212851250Y-104778600D02*
X212822240Y-104782200D01*
X212880030Y-104773600D02*
X212851250Y-104778600D01*
X212908550Y-104767200D02*
X212880030Y-104773600D01*
X212936700Y-104759400D02*
X212908550Y-104767200D01*
X212964460Y-104750200D02*
X212936700Y-104759400D01*
X212991710Y-104739700D02*
X212964460Y-104750200D01*
X213018430Y-104727900D02*
X212991710Y-104739700D01*
X213044520Y-104714700D02*
X213018430Y-104727900D01*
X213069940Y-104700300D02*
X213044520Y-104714700D01*
X213094630Y-104684700D02*
X213069940Y-104700300D01*
X213118520Y-104667900D02*
X213094630Y-104684700D01*
X213141550Y-104649900D02*
X213118520Y-104667900D01*
X213163670Y-104630800D02*
X213141550Y-104649900D01*
X213184840Y-104610700D02*
X213163670Y-104630800D01*
X213204990Y-104589500D02*
X213184840Y-104610700D01*
X213224080Y-104567400D02*
X213204990Y-104589500D01*
X213242060Y-104544400D02*
X213224080Y-104567400D01*
X213258870Y-104520500D02*
X213242060Y-104544400D01*
X213274510Y-104495800D02*
X213258870Y-104520500D01*
X213288920Y-104470300D02*
X213274510Y-104495800D01*
X213302060Y-104444300D02*
X213288920Y-104470300D01*
X213313900Y-104417500D02*
X213302060Y-104444300D01*
X213324410Y-104390300D02*
X213313900Y-104417500D01*
X213333570Y-104362500D02*
X213324410Y-104390300D01*
X213341360Y-104334400D02*
X213333570Y-104362500D01*
X213347770Y-104305900D02*
X213341360Y-104334400D01*
X213352760Y-104277100D02*
X213347770Y-104305900D01*
X213356350Y-104248100D02*
X213352760Y-104277100D01*
X213358480Y-104218900D02*
X213356350Y-104248100D01*
X213359200Y-104189700D02*
X213358480Y-104218900D01*
X213359200Y-97380300D02*
X213359200Y-104189700D01*
X213358480Y-97351100D02*
X213359200Y-97380300D01*
X213356350Y-97322000D02*
X213358480Y-97351100D01*
X213352760Y-97293000D02*
X213356350Y-97322000D01*
X213347770Y-97264200D02*
X213352760Y-97293000D01*
X213341360Y-97235700D02*
X213347770Y-97264200D01*
X213333570Y-97207500D02*
X213341360Y-97235700D01*
X213324410Y-97179800D02*
X213333570Y-97207500D01*
X213313900Y-97152500D02*
X213324410Y-97179800D01*
X213302060Y-97125800D02*
X213313900Y-97152500D01*
X213288920Y-97099700D02*
X213302060Y-97125800D01*
X213274510Y-97074300D02*
X213288920Y-97099700D01*
X213258870Y-97049600D02*
X213274510Y-97074300D01*
X213242060Y-97025700D02*
X213258870Y-97049600D01*
X213224080Y-97002700D02*
X213242060Y-97025700D01*
X213204990Y-96980600D02*
X213224080Y-97002700D01*
X213184840Y-96959400D02*
X213204990Y-96980600D01*
X213163670Y-96939200D02*
X213184840Y-96959400D01*
X213141550Y-96920100D02*
X213163670Y-96939200D01*
X213118520Y-96902200D02*
X213141550Y-96920100D01*
X213094630Y-96885400D02*
X213118520Y-96902200D01*
X213069940Y-96869700D02*
X213094630Y-96885400D01*
X213044520Y-96855300D02*
X213069940Y-96869700D01*
X213018430Y-96842200D02*
X213044520Y-96855300D01*
X212991710Y-96830300D02*
X213018430Y-96842200D01*
X212964460Y-96819800D02*
X212991710Y-96830300D01*
X212936700Y-96810700D02*
X212964460Y-96819800D01*
X212908550Y-96802900D02*
X212936700Y-96810700D01*
X212880030Y-96796500D02*
X212908550Y-96802900D01*
X212851250Y-96791500D02*
X212880030Y-96796500D01*
X212822240Y-96787900D02*
X212851250Y-96791500D01*
X212793100Y-96785700D02*
X212822240Y-96787900D01*
X212763890Y-96785000D02*
X212793100Y-96785700D01*
X203954510Y-96785000D02*
X212763890Y-96785000D01*
X203925300Y-96785700D02*
X203954510Y-96785000D01*
X203896160Y-96787900D02*
X203925300Y-96785700D01*
X203867150Y-96791500D02*
X203896160Y-96787900D01*
X203838370Y-96796500D02*
X203867150Y-96791500D01*
X203809850Y-96802900D02*
X203838370Y-96796500D01*
X203781700Y-96810700D02*
X203809850Y-96802900D01*
X203753940Y-96819800D02*
X203781700Y-96810700D01*
X203726690Y-96830300D02*
X203753940Y-96819800D01*
X203699970Y-96842200D02*
X203726690Y-96830300D01*
X203673880Y-96855300D02*
X203699970Y-96842200D01*
X203648460Y-96869700D02*
X203673880Y-96855300D01*
X203623770Y-96885400D02*
X203648460Y-96869700D01*
X203599880Y-96902200D02*
X203623770Y-96885400D01*
X203576850Y-96920100D02*
X203599880Y-96902200D01*
X203554730Y-96939200D02*
X203576850Y-96920100D01*
X203533560Y-96959400D02*
X203554730Y-96939200D01*
X203513410Y-96980600D02*
X203533560Y-96959400D01*
X203494320Y-97002700D02*
X203513410Y-96980600D01*
X203476340Y-97025700D02*
X203494320Y-97002700D01*
X203459530Y-97049600D02*
X203476340Y-97025700D01*
X203443890Y-97074300D02*
X203459530Y-97049600D01*
X203429480Y-97099700D02*
X203443890Y-97074300D01*
X203416340Y-97125800D02*
X203429480Y-97099700D01*
X203404500Y-97152500D02*
X203416340Y-97125800D01*
X203393990Y-97179800D02*
X203404500Y-97152500D01*
X203384830Y-97207500D02*
X203393990Y-97179800D01*
X203377040Y-97235700D02*
X203384830Y-97207500D01*
X203370630Y-97264200D02*
X203377040Y-97235700D01*
X203365640Y-97293000D02*
X203370630Y-97264200D01*
X203362050Y-97322000D02*
X203365640Y-97293000D01*
X203359920Y-97351100D02*
X203362050Y-97322000D01*
X203359200Y-97380300D02*
X203359920Y-97351100D01*
X203359200Y-104189700D02*
X203359200Y-97380300D01*
X203359920Y-104218900D02*
X203359200Y-104189700D01*
X203362050Y-104248100D02*
X203359920Y-104218900D01*
X203365640Y-104277100D02*
X203362050Y-104248100D01*
X203370630Y-104305900D02*
X203365640Y-104277100D01*
X203377040Y-104334400D02*
X203370630Y-104305900D01*
X203384830Y-104362500D02*
X203377040Y-104334400D01*
X203393990Y-104390300D02*
X203384830Y-104362500D01*
X203404500Y-104417500D02*
X203393990Y-104390300D01*
X203416340Y-104444300D02*
X203404500Y-104417500D01*
X203429480Y-104470300D02*
X203416340Y-104444300D01*
X203443890Y-104495800D02*
X203429480Y-104470300D01*
X203459530Y-104520500D02*
X203443890Y-104495800D01*
X203476340Y-104544400D02*
X203459530Y-104520500D01*
X203494320Y-104567400D02*
X203476340Y-104544400D01*
X203513410Y-104589500D02*
X203494320Y-104567400D01*
X203533560Y-104610700D02*
X203513410Y-104589500D01*
X203554730Y-104630800D02*
X203533560Y-104610700D01*
X203576850Y-104649900D02*
X203554730Y-104630800D01*
X203599880Y-104667900D02*
X203576850Y-104649900D01*
X203623770Y-104684700D02*
X203599880Y-104667900D01*
X203648460Y-104700300D02*
X203623770Y-104684700D01*
X203673880Y-104714700D02*
X203648460Y-104700300D01*
X203699970Y-104727900D02*
X203673880Y-104714700D01*
X203726690Y-104739700D02*
X203699970Y-104727900D01*
X203753940Y-104750200D02*
X203726690Y-104739700D01*
X203781700Y-104759400D02*
X203753940Y-104750200D01*
X203809850Y-104767200D02*
X203781700Y-104759400D01*
X203838370Y-104773600D02*
X203809850Y-104767200D01*
X203867150Y-104778600D02*
X203838370Y-104773600D01*
X203896160Y-104782200D02*
X203867150Y-104778600D01*
X203925300Y-104784300D02*
X203896160Y-104782200D01*
X203954510Y-104785000D02*
X203925300Y-104784300D01*
X263494500Y-197835300D02*
X263552900Y-197833900D01*
X153223900Y-197835300D02*
X263494500Y-197835300D01*
X153180000Y-197834500D02*
X153223900Y-197835300D01*
X153121700Y-197830900D02*
X153180000Y-197834500D01*
X153063600Y-197824500D02*
X153121700Y-197830900D01*
X153005900Y-197815200D02*
X153063600Y-197824500D01*
X152948700Y-197803100D02*
X153005900Y-197815200D01*
X152892200Y-197788200D02*
X152948700Y-197803100D01*
X152836500Y-197770500D02*
X152892200Y-197788200D01*
X152781700Y-197750200D02*
X152836500Y-197770500D01*
X78323200Y-167965200D02*
X152781700Y-197750200D01*
X78313201Y-167961400D02*
X78323200Y-167965200D01*
X78289200Y-167952200D02*
X78313201Y-167961400D01*
X78264200Y-167943500D02*
X78289200Y-167952200D01*
X78235200Y-167933700D02*
X78264200Y-167943500D01*
X78207201Y-167925400D02*
X78235200Y-167933700D01*
X78179200Y-167917600D02*
X78207201Y-167925400D01*
X78151200Y-167910500D02*
X78179200Y-167917600D01*
X78122200Y-167904000D02*
X78151200Y-167910500D01*
X78094201Y-167898500D02*
X78122200Y-167904000D01*
X78064201Y-167893300D02*
X78094201Y-167898500D01*
X78036200Y-167889100D02*
X78064201Y-167893300D01*
X78006200Y-167885500D02*
X78036200Y-167889100D01*
X77978200Y-167882700D02*
X78006200Y-167885500D01*
X77949200Y-167880500D02*
X77978200Y-167882700D01*
X77919200Y-167879100D02*
X77949200Y-167880500D01*
X77884200Y-167878200D02*
X77919200Y-167879100D01*
X77868200Y-167878000D02*
X77884200Y-167878200D01*
X22324200Y-167878000D02*
X77868200Y-167878000D01*
X22265200Y-167876600D02*
X22324200Y-167878000D01*
X22207200Y-167872300D02*
X22265200Y-167876600D01*
X22149200Y-167865100D02*
X22207200Y-167872300D01*
X22092200Y-167855100D02*
X22149200Y-167865100D01*
X22035200Y-167842300D02*
X22092200Y-167855100D01*
X21978200Y-167826700D02*
X22035200Y-167842300D01*
X21923200Y-167808400D02*
X21978200Y-167826700D01*
X21868200Y-167787400D02*
X21923200Y-167808400D01*
X21815200Y-167763700D02*
X21868200Y-167787400D01*
X21763200Y-167737400D02*
X21815200Y-167763700D01*
X21712200Y-167708600D02*
X21763200Y-167737400D01*
X21662200Y-167677300D02*
X21712200Y-167708600D01*
X21615200Y-167643700D02*
X21662200Y-167677300D01*
X21569200Y-167607700D02*
X21615200Y-167643700D01*
X21524200Y-167569600D02*
X21569200Y-167607700D01*
X21482200Y-167529300D02*
X21524200Y-167569600D01*
X21442200Y-167486900D02*
X21482200Y-167529300D01*
X21403200Y-167442700D02*
X21442200Y-167486900D01*
X21368200Y-167396600D02*
X21403200Y-167442700D01*
X21334200Y-167348800D02*
X21368200Y-167396600D01*
X21303200Y-167299500D02*
X21334200Y-167348800D01*
X21274200Y-167248600D02*
X21303200Y-167299500D01*
X21248200Y-167196400D02*
X21274200Y-167248600D01*
X21224200Y-167143000D02*
X21248200Y-167196400D01*
X21203200Y-167088500D02*
X21224200Y-167143000D01*
X21185200Y-167033000D02*
X21203200Y-167088500D01*
X21169200Y-166976700D02*
X21185200Y-167033000D01*
X21156200Y-166919600D02*
X21169200Y-166976700D01*
X21146200Y-166862100D02*
X21156200Y-166919600D01*
X21139200Y-166804100D02*
X21146200Y-166862100D01*
X21135200Y-166745800D02*
X21139200Y-166804100D01*
X21133200Y-166687400D02*
X21135200Y-166745800D01*
X21133200Y-72925700D02*
X21133200Y-166687400D01*
X21135200Y-72867200D02*
X21133200Y-72925700D01*
X21139200Y-72809000D02*
X21135200Y-72867200D01*
X21146200Y-72751000D02*
X21139200Y-72809000D01*
X21156200Y-72693400D02*
X21146200Y-72751000D01*
X21169200Y-72636400D02*
X21156200Y-72693400D01*
X21185200Y-72580000D02*
X21169200Y-72636400D01*
X21203200Y-72524600D02*
X21185200Y-72580000D01*
X21224200Y-72470000D02*
X21203200Y-72524600D01*
X21248200Y-72416600D02*
X21224200Y-72470000D01*
X21274200Y-72364400D02*
X21248200Y-72416600D01*
X21303200Y-72313600D02*
X21274200Y-72364400D01*
X21334200Y-72264200D02*
X21303200Y-72313600D01*
X21368200Y-72216400D02*
X21334200Y-72264200D01*
X21403200Y-72170300D02*
X21368200Y-72216400D01*
X21442200Y-72126100D02*
X21403200Y-72170300D01*
X21482200Y-72083800D02*
X21442200Y-72126100D01*
X21524200Y-72043500D02*
X21482200Y-72083800D01*
X21569200Y-72005300D02*
X21524200Y-72043500D01*
X21615200Y-71969400D02*
X21569200Y-72005300D01*
X21662200Y-71935700D02*
X21615200Y-71969400D01*
X21712200Y-71904400D02*
X21662200Y-71935700D01*
X21763200Y-71875600D02*
X21712200Y-71904400D01*
X21815200Y-71849400D02*
X21763200Y-71875600D01*
X21868200Y-71825700D02*
X21815200Y-71849400D01*
X21923200Y-71804600D02*
X21868200Y-71825700D01*
X21978200Y-71786300D02*
X21923200Y-71804600D01*
X22035200Y-71770700D02*
X21978200Y-71786300D01*
X22092200Y-71757900D02*
X22035200Y-71770700D01*
X22149200Y-71747900D02*
X22092200Y-71757900D01*
X22207200Y-71740800D02*
X22149200Y-71747900D01*
X22265200Y-71736500D02*
X22207200Y-71740800D01*
X22324200Y-71735000D02*
X22265200Y-71736500D01*
X202759710Y-71735000D02*
X22324200Y-71735000D01*
X202767560Y-71735100D02*
X202759710Y-71735000D01*
X202786320Y-71735600D02*
X202767560Y-71735100D01*
X202799970Y-71736300D02*
X202786320Y-71735600D01*
X202815210Y-71737400D02*
X202799970Y-71736300D01*
X202829170Y-71738800D02*
X202815210Y-71737400D01*
X202844400Y-71740600D02*
X202829170Y-71738800D01*
X202858100Y-71742700D02*
X202844400Y-71740600D01*
X202872720Y-71745200D02*
X202858100Y-71742700D01*
X202887340Y-71748100D02*
X202872720Y-71745200D01*
X202901160Y-71751200D02*
X202887340Y-71748100D01*
X202915760Y-71754900D02*
X202901160Y-71751200D01*
X202930110Y-71758800D02*
X202915760Y-71754900D01*
X202943210Y-71762800D02*
X202930110Y-71758800D01*
X202957820Y-71767600D02*
X202943210Y-71762800D01*
X202970960Y-71772300D02*
X202957820Y-71767600D01*
X202985050Y-71777800D02*
X202970960Y-71772300D01*
X202998210Y-71783200D02*
X202985050Y-71777800D01*
X203011620Y-71789200D02*
X202998210Y-71783200D01*
X203025200Y-71795600D02*
X203011620Y-71789200D01*
X203037900Y-71802000D02*
X203025200Y-71795600D01*
X203050850Y-71808900D02*
X203037900Y-71802000D01*
X203063470Y-71816100D02*
X203050850Y-71808900D01*
X203076160Y-71823700D02*
X203063470Y-71816100D01*
X203088630Y-71831600D02*
X203076160Y-71823700D01*
X203100530Y-71839500D02*
X203088630Y-71831600D01*
X203112740Y-71848100D02*
X203100530Y-71839500D01*
X203124110Y-71856500D02*
X203112740Y-71848100D01*
X203135920Y-71865800D02*
X203124110Y-71856500D01*
X203146920Y-71874800D02*
X203135920Y-71865800D01*
X203158010Y-71884400D02*
X203146920Y-71874800D01*
X203169210Y-71894500D02*
X203158010Y-71884400D01*
X203179710Y-71904500D02*
X203169210Y-71894500D01*
X203189720Y-71914500D02*
X203179710Y-71904500D01*
X203199720Y-71925000D02*
X203189720Y-71914500D01*
X203209880Y-71936200D02*
X203199720Y-71925000D01*
X203219460Y-71947300D02*
X203209880Y-71936200D01*
X203228480Y-71958300D02*
X203219460Y-71947300D01*
X203237710Y-71970100D02*
X203228480Y-71958300D01*
X203246130Y-71981500D02*
X203237710Y-71970100D01*
X203254710Y-71993700D02*
X203246130Y-71981500D01*
X203262670Y-72005600D02*
X203254710Y-71993700D01*
X203270580Y-72018100D02*
X203262670Y-72005600D01*
X203278180Y-72030800D02*
X203270580Y-72018100D01*
X203285330Y-72043400D02*
X203278180Y-72030800D01*
X203292260Y-72056300D02*
X203285330Y-72043400D01*
X203298650Y-72069000D02*
X203292260Y-72056300D01*
X203305080Y-72082600D02*
X203298650Y-72069000D01*
X203311010Y-72096000D02*
X203305080Y-72082600D01*
X203316460Y-72109200D02*
X203311010Y-72096000D01*
X203321910Y-72123300D02*
X203316460Y-72109200D01*
X203326610Y-72136400D02*
X203321910Y-72123300D01*
X203726690Y-79689700D02*
X203699970Y-79677900D01*
X203753940Y-79700300D02*
X203726690Y-79689700D01*
X203781700Y-79709400D02*
X203753940Y-79700300D01*
X203809850Y-79717200D02*
X203781700Y-79709400D01*
X203838370Y-79723600D02*
X203809850Y-79717200D01*
X203867150Y-79728600D02*
X203838370Y-79723600D01*
X203896160Y-79732200D02*
X203867150Y-79728600D01*
X203925300Y-79734300D02*
X203896160Y-79732200D01*
X203954510Y-79735000D02*
X203925300Y-79734300D01*
X212763890Y-79735000D02*
X203954510Y-79735000D01*
X212793100Y-79734300D02*
X212763890Y-79735000D01*
X212822240Y-79732200D02*
X212793100Y-79734300D01*
X212851250Y-79728600D02*
X212822240Y-79732200D01*
X212880030Y-79723600D02*
X212851250Y-79728600D01*
X212908550Y-79717200D02*
X212880030Y-79723600D01*
X212936700Y-79709400D02*
X212908550Y-79717200D01*
X212964460Y-79700300D02*
X212936700Y-79709400D01*
X212991710Y-79689700D02*
X212964460Y-79700300D01*
X213018430Y-79677900D02*
X212991710Y-79689700D01*
X213044520Y-79664800D02*
X213018430Y-79677900D01*
X213069940Y-79650400D02*
X213044520Y-79664800D01*
X213094630Y-79634700D02*
X213069940Y-79650400D01*
X213118520Y-79617900D02*
X213094630Y-79634700D01*
X213141550Y-79599900D02*
X213118520Y-79617900D01*
X213163670Y-79580800D02*
X213141550Y-79599900D01*
X213184840Y-79560700D02*
X213163670Y-79580800D01*
X213204990Y-79539500D02*
X213184840Y-79560700D01*
X213224080Y-79517400D02*
X213204990Y-79539500D01*
X213242060Y-79494400D02*
X213224080Y-79517400D01*
X213258870Y-79470500D02*
X213242060Y-79494400D01*
X213274510Y-79445800D02*
X213258870Y-79470500D01*
X213288920Y-79420400D02*
X213274510Y-79445800D01*
X213302060Y-79394300D02*
X213288920Y-79420400D01*
X213313900Y-79367600D02*
X213302060Y-79394300D01*
X213324410Y-79340300D02*
X213313900Y-79367600D01*
X213333570Y-79312500D02*
X213324410Y-79340300D01*
X213341360Y-79284400D02*
X213333570Y-79312500D01*
X213347770Y-79255900D02*
X213341360Y-79284400D01*
X213352760Y-79227100D02*
X213347770Y-79255900D01*
X213356350Y-79198100D02*
X213352760Y-79227100D01*
X213358480Y-79168900D02*
X213356350Y-79198100D01*
X213359200Y-79139700D02*
X213358480Y-79168900D01*
X213359200Y-72334500D02*
X213359200Y-79139700D01*
X213359290Y-72326700D02*
X213359200Y-72334500D01*
X213359750Y-72307900D02*
X213359290Y-72326700D01*
X213360420Y-72294300D02*
X213359750Y-72307900D01*
X213361530Y-72279000D02*
X213360420Y-72294300D01*
X213362910Y-72265100D02*
X213361530Y-72279000D01*
X213364780Y-72249800D02*
X213362910Y-72265100D01*
X213366830Y-72236100D02*
X213364780Y-72249800D01*
X213369360Y-72221500D02*
X213366830Y-72236100D01*
X213372280Y-72206900D02*
X213369360Y-72221500D01*
X213375370Y-72193100D02*
X213372280Y-72206900D01*
X213379040Y-72178500D02*
X213375370Y-72193100D01*
X213383000Y-72164100D02*
X213379040Y-72178500D01*
X213386990Y-72151000D02*
X213383000Y-72164100D01*
X213391790Y-72136400D02*
X213386990Y-72151000D01*
X213396490Y-72123300D02*
X213391790Y-72136400D01*
X213401940Y-72109200D02*
X213396490Y-72123300D01*
X213407390Y-72096000D02*
X213401940Y-72109200D01*
X213413320Y-72082600D02*
X213407390Y-72096000D01*
X213419750Y-72069000D02*
X213413320Y-72082600D01*
X213426140Y-72056300D02*
X213419750Y-72069000D01*
X213433070Y-72043400D02*
X213426140Y-72056300D01*
X213440220Y-72030800D02*
X213433070Y-72043400D01*
X213447820Y-72018100D02*
X213440220Y-72030800D01*
X213455730Y-72005600D02*
X213447820Y-72018100D01*
X213463690Y-71993700D02*
X213455730Y-72005600D01*
X213472270Y-71981500D02*
X213463690Y-71993700D01*
X213480690Y-71970100D02*
X213472270Y-71981500D01*
X213489920Y-71958300D02*
X213480690Y-71970100D01*
X213498940Y-71947300D02*
X213489920Y-71958300D01*
X213508520Y-71936200D02*
X213498940Y-71947300D01*
X213518680Y-71925000D02*
X213508520Y-71936200D01*
X213528680Y-71914500D02*
X213518680Y-71925000D01*
X213538690Y-71904500D02*
X213528680Y-71914500D01*
X213549190Y-71894500D02*
X213538690Y-71904500D01*
X213560390Y-71884400D02*
X213549190Y-71894500D01*
X213571480Y-71874800D02*
X213560390Y-71884400D01*
X213582480Y-71865800D02*
X213571480Y-71874800D01*
X213594290Y-71856500D02*
X213582480Y-71865800D01*
X213605660Y-71848100D02*
X213594290Y-71856500D01*
X213617870Y-71839500D02*
X213605660Y-71848100D01*
X213629770Y-71831600D02*
X213617870Y-71839500D01*
X213642240Y-71823700D02*
X213629770Y-71831600D01*
X213654930Y-71816100D02*
X213642240Y-71823700D01*
X213667550Y-71808900D02*
X213654930Y-71816100D01*
X213680500Y-71802000D02*
X213667550Y-71808900D01*
X213693200Y-71795600D02*
X213680500Y-71802000D01*
X213706780Y-71789200D02*
X213693200Y-71795600D01*
X213720190Y-71783200D02*
X213706780Y-71789200D01*
X213733350Y-71777800D02*
X213720190Y-71783200D01*
X213747440Y-71772300D02*
X213733350Y-71777800D01*
X213760580Y-71767600D02*
X213747440Y-71772300D01*
X213775190Y-71762800D02*
X213760580Y-71767600D01*
X213788290Y-71758800D02*
X213775190Y-71762800D01*
X213802640Y-71754900D02*
X213788290Y-71758800D01*
X213817240Y-71751200D02*
X213802640Y-71754900D01*
X213831060Y-71748100D02*
X213817240Y-71751200D01*
X213845680Y-71745200D02*
X213831060Y-71748100D01*
X213860300Y-71742700D02*
X213845680Y-71745200D01*
X213874000Y-71740600D02*
X213860300Y-71742700D01*
X213889230Y-71738800D02*
X213874000Y-71740600D01*
X213903190Y-71737400D02*
X213889230Y-71738800D01*
X213918430Y-71736300D02*
X213903190Y-71737400D01*
X213932080Y-71735600D02*
X213918430Y-71736300D01*
X213950840Y-71735100D02*
X213932080Y-71735600D01*
X213958690Y-71735000D02*
X213950840Y-71735100D01*
X401836200Y-71735000D02*
X213958690Y-71735000D01*
X401894200Y-71736500D02*
X401836200Y-71735000D01*
X401952200Y-71740800D02*
X401894200Y-71736500D01*
X402010200Y-71747900D02*
X401952200Y-71740800D01*
X402068200Y-71757900D02*
X402010200Y-71747900D01*
X402125200Y-71770700D02*
X402068200Y-71757900D01*
X402181200Y-71786300D02*
X402125200Y-71770700D01*
X402237200Y-71804600D02*
X402181200Y-71786300D01*
X402291200Y-71825700D02*
X402237200Y-71804600D01*
X402345200Y-71849400D02*
X402291200Y-71825700D01*
X402397200Y-71875600D02*
X402345200Y-71849400D01*
X402448200Y-71904400D02*
X402397200Y-71875600D01*
X402497200Y-71935700D02*
X402448200Y-71904400D01*
X402545200Y-71969400D02*
X402497200Y-71935700D01*
X402591200Y-72005300D02*
X402545200Y-71969400D01*
X402635200Y-72043500D02*
X402591200Y-72005300D01*
X402677200Y-72083800D02*
X402635200Y-72043500D01*
X402718200Y-72126100D02*
X402677200Y-72083800D01*
X402756200Y-72170300D02*
X402718200Y-72126100D01*
X402792200Y-72216400D02*
X402756200Y-72170300D01*
X402826200Y-72264200D02*
X402792200Y-72216400D01*
X402857200Y-72313600D02*
X402826200Y-72264200D01*
X402886200Y-72364400D02*
X402857200Y-72313600D01*
X402912200Y-72416600D02*
X402886200Y-72364400D01*
X402936200Y-72470000D02*
X402912200Y-72416600D01*
X402957200Y-72524600D02*
X402936200Y-72470000D01*
X402975200Y-72580000D02*
X402957200Y-72524600D01*
X402990200Y-72636400D02*
X402975200Y-72580000D01*
X403003200Y-72693400D02*
X402990200Y-72636400D01*
X403013200Y-72751000D02*
X403003200Y-72693400D01*
X403020200Y-72809000D02*
X403013200Y-72751000D01*
X403025200Y-72867200D02*
X403020200Y-72809000D01*
X403026200Y-72925700D02*
X403025200Y-72867200D01*
X403026200Y-166687400D02*
X403026200Y-72925700D01*
X403025200Y-166745800D02*
X403026200Y-166687400D01*
X403020200Y-166804100D02*
X403025200Y-166745800D01*
X403013200Y-166862100D02*
X403020200Y-166804100D01*
X403003200Y-166919600D02*
X403013200Y-166862100D01*
X402990200Y-166976700D02*
X403003200Y-166919600D01*
X402975200Y-167033000D02*
X402990200Y-166976700D01*
X402957200Y-167088500D02*
X402975200Y-167033000D01*
X402936200Y-167143000D02*
X402957200Y-167088500D01*
X402912200Y-167196400D02*
X402936200Y-167143000D01*
X402886200Y-167248600D02*
X402912200Y-167196400D01*
X402857200Y-167299500D02*
X402886200Y-167248600D01*
X402826200Y-167348800D02*
X402857200Y-167299500D01*
X402792200Y-167396600D02*
X402826200Y-167348800D01*
X402756200Y-167442700D02*
X402792200Y-167396600D01*
X402718200Y-167486900D02*
X402756200Y-167442700D01*
X402677200Y-167529300D02*
X402718200Y-167486900D01*
X402635200Y-167569600D02*
X402677200Y-167529300D01*
X338581200Y-167907300D02*
X338610200Y-167901200D01*
X338553199Y-167913900D02*
X338581200Y-167907300D01*
X338525200Y-167921500D02*
X338553199Y-167913900D01*
X338497200Y-167929500D02*
X338525200Y-167921500D01*
X338469200Y-167938400D02*
X338497200Y-167929500D01*
X263895600Y-197765700D02*
X263936700Y-197750200D01*
X263840100Y-197784100D02*
X263895600Y-197765700D01*
X338393199Y-167966100D02*
X338407200Y-167960500D01*
X263936700Y-197750200D02*
X338393199Y-167966100D01*
X263611200Y-197829600D02*
X263669200Y-197822400D01*
X402591200Y-167607700D02*
X402635200Y-167569600D01*
X402545200Y-167643700D02*
X402591200Y-167607700D01*
X402497200Y-167677300D02*
X402545200Y-167643700D01*
X402448200Y-167708600D02*
X402497200Y-167677300D01*
X402397200Y-167737400D02*
X402448200Y-167708600D01*
X402345200Y-167763700D02*
X402397200Y-167737400D01*
X402291200Y-167787400D02*
X402345200Y-167763700D01*
X263783700Y-197799600D02*
X263840100Y-197784100D01*
X263726700Y-197812500D02*
X263783700Y-197799600D01*
X263552900Y-197833900D02*
X263611200Y-197829600D01*
X338726199Y-167884000D02*
X338755199Y-167881500D01*
X338697200Y-167887200D02*
X338726199Y-167884000D01*
X338668200Y-167891200D02*
X338697200Y-167887200D01*
X338639200Y-167895800D02*
X338668200Y-167891200D01*
X338610200Y-167901200D02*
X338639200Y-167895800D01*
X263669200Y-197822400D02*
X263726700Y-197812500D01*
X401836200Y-167878000D02*
X401894200Y-167876600D01*
X338848200Y-167878000D02*
X401836200Y-167878000D01*
X338837200Y-167878100D02*
X338848200Y-167878000D01*
X338811200Y-167878600D02*
X338837200Y-167878100D01*
X338786199Y-167879600D02*
X338811200Y-167878600D01*
X338755199Y-167881500D02*
X338786199Y-167879600D01*
X402237200Y-167808400D02*
X402291200Y-167787400D01*
X402181200Y-167826700D02*
X402237200Y-167808400D01*
X402125200Y-167842300D02*
X402181200Y-167826700D01*
X402068200Y-167855100D02*
X402125200Y-167842300D01*
X402010200Y-167865100D02*
X402068200Y-167855100D01*
X401952200Y-167872300D02*
X402010200Y-167865100D01*
X401894200Y-167876600D02*
X401952200Y-167872300D01*
M02*
