M48
; DRILL file {KiCad (5.1.5-0-10_14)} date 2020 June 18, Thursday 23:30:59
; FORMAT={-:-/ absolute / metric / decimal}
; #@! TF.CreationDate,2020-06-18T23:30:59+09:00
; #@! TF.GenerationSoftware,Kicad,Pcbnew,(5.1.5-0-10_14)
; #@! TF.FileFunction,Plated,1,2,PTH
FMAT,2
METRIC
T1C0.400
T2C0.813
T3C1.000
T4C1.300
%
G90
G05
T1
X36.909Y-144.066
X63.103Y-129.183
X77.986Y-126.801
X96.738Y-113.705
X119.062Y-114.598
X137.815Y-100.012
X150.316Y-100.905
X195.858Y-110.133
X196.751Y-119.062
X197.644Y-137.815
X198.533Y-178.292
X199.419Y-192.572
X215.968Y-108.942
X217.289Y-111.323
X218.182Y-117.872
X219.075Y-120.253
X219.968Y-136.624
X221.158Y-139.005
X222.051Y-177.105
X223.242Y-140.196
X252.412Y-108.942
X264.914Y-105.966
X283.964Y-115.491
X302.716Y-114.598
X324.445Y-127.694
X339.328Y-130.076
X358.675Y-144.066
X377.725Y-131.266
X91.38Y-124.431
X91.38Y-127.981
X296.168Y-148.839
X296.168Y-152.389
X86.916Y-84.545
X86.916Y-88.095
X50.602Y-160.745
X50.602Y-164.295
X70.544Y-122.645
X70.544Y-126.195
X357.783Y-160.745
X357.783Y-164.295
X271.165Y-180.986
X271.165Y-184.536
X336.351Y-103.595
X336.351Y-107.145
X400.05Y-84.545
X400.05Y-88.095
X372.07Y-141.695
X372.07Y-145.245
X323.552Y-86.034
X323.552Y-89.584
X76.795Y-141.695
X76.795Y-145.245
X94.655Y-105.679
X94.655Y-109.229
X258.961Y-166.401
X258.961Y-169.951
X283.071Y-131.873
X283.071Y-135.423
X126.206Y-91.987
X126.206Y-95.537
X379.214Y-160.745
X379.214Y-164.295
X285.75Y-168.782
X285.75Y-172.332
X279.797Y-113.12
X279.797Y-116.67
X144.363Y-177.116
X144.363Y-180.666
X342.9Y-84.545
X342.9Y-88.095
X113.407Y-108.953
X113.407Y-112.503
X267.295Y-95.856
X267.295Y-99.406
X163.711Y-98.535
X163.711Y-102.085
X359.271Y-122.645
X359.271Y-126.195
X72.033Y-160.745
X72.033Y-164.295
X302.121Y-128.598
X302.121Y-132.148
X110.133Y-127.705
X110.133Y-131.255
X144.958Y-95.261
X144.958Y-98.811
X107.454Y-88.712
X107.454Y-92.262
X153.888Y-154.792
X153.888Y-158.342
X355.997Y-103.595
X355.997Y-107.145
X391.12Y-141.695
X391.12Y-145.245
X298.847Y-109.846
X298.847Y-113.396
X97.631Y-144.969
X97.631Y-148.519
X314.92Y-145.565
X314.92Y-149.115
X361.95Y-84.545
X361.95Y-88.095
X132.159Y-112.227
X132.159Y-115.777
X286.047Y-92.582
X286.047Y-96.132
X50.006Y-103.595
X50.006Y-107.145
X378.321Y-122.645
X378.321Y-126.195
X96.441Y-164.019
X96.441Y-167.569
X320.873Y-125.324
X320.873Y-128.874
X48.816Y-84.545
X48.816Y-88.095
X128.885Y-130.98
X128.885Y-134.53
X277.415Y-152.113
X277.415Y-155.663
X147.637Y-134.254
X147.637Y-137.804
X311.051Y-165.508
X311.051Y-169.058
X67.866Y-84.545
X67.866Y-88.095
X171.152Y-174.735
X171.152Y-178.285
X375.047Y-103.595
X375.047Y-107.145
X317.599Y-106.572
X317.599Y-110.122
X333.672Y-141.695
X333.672Y-145.245
X150.912Y-115.501
X150.912Y-119.051
X119.955Y-168.187
X119.955Y-171.737
X339.625Y-122.645
X339.625Y-126.195
X116.383Y-148.244
X116.383Y-151.794
X394.097Y-103.595
X394.097Y-107.145
X44.351Y-122.645
X44.351Y-126.195
X334.565Y-160.745
X334.565Y-164.295
X135.136Y-151.518
X135.136Y-155.068
X381.0Y-84.545
X381.0Y-88.095
X353.02Y-141.695
X353.02Y-145.245
X304.8Y-89.308
X304.8Y-92.858
X50.602Y-141.695
X50.602Y-145.245
X73.819Y-103.595
X73.819Y-107.145
X397.371Y-122.645
X397.371Y-126.195
X158.948Y-189.022
X158.948Y-192.572
T2
X231.715Y-77.688
X236.795Y-77.688
X228.6Y-77.688
X231.715Y-75.009
X236.795Y-75.009
X200.748Y-75.557
X200.748Y-78.097
X200.748Y-80.637
X200.748Y-83.177
X200.748Y-85.717
X200.748Y-88.257
X200.748Y-90.797
X200.748Y-93.337
X200.748Y-95.877
X200.748Y-98.417
X200.748Y-100.957
X200.748Y-103.497
X215.968Y-75.557
X215.968Y-78.097
X215.968Y-80.637
X215.968Y-83.177
X215.968Y-85.717
X215.968Y-88.257
X215.968Y-90.797
X215.968Y-93.337
X215.968Y-95.877
X215.968Y-98.417
X215.968Y-100.957
X215.968Y-103.497
X228.6Y-75.009
T4
X189.036Y-73.521
X195.536Y-73.521
T3
G00X221.142Y-75.285
M15
G01X221.142Y-74.785
M16
G05
G00X221.142Y-78.285
M15
G01X221.142Y-77.785
M16
G05
G00X221.142Y-82.285
M15
G01X221.142Y-81.785
M16
G05
G00X225.342Y-83.785
M15
G01X225.342Y-83.285
M16
G05
T0
M30
